<?xml version="1.0" encoding="utf-8"?>
<!-- Generator: Adobe Illustrator 27.9.1, SVG Export Plug-In . SVG Version: 6.00 Build 0)  -->
<svg version="1.1" id="Layer_1" xmlns="http://www.w3.org/2000/svg" xmlns:xlink="http://www.w3.org/1999/xlink" x="0px" y="0px"
	 viewBox="0 0 740 538.1" style="enable-background:new 0 0 740 538.1;" xml:space="preserve">
<style type="text/css">
	.st0{clip-path:url(#SVGID_00000017518905036210368000000008397834817399947176_);}
	.st1{fill:#1D1D1B;}
	.st2{fill:none;stroke:#C9C9C9;stroke-width:0.7;stroke-miterlimit:10;}
	.st3{fill:#1EB66B;}
	.st4{fill:none;stroke:#000000;stroke-miterlimit:10;}
	.st5{fill:none;stroke:#C9C9C9;stroke-width:0.4192;stroke-miterlimit:10;}
	.st6{fill:none;stroke:#000000;stroke-width:0.5988;stroke-miterlimit:10;}
	.st7{fill:none;stroke:#1D1D1B;stroke-width:2;stroke-linecap:round;stroke-linejoin:round;stroke-miterlimit:10;}
	.st8{fill:none;stroke:#1EB66B;stroke-width:2;stroke-linecap:round;stroke-linejoin:round;stroke-miterlimit:10;}
	.st9{fill:none;stroke:#000000;stroke-width:0.6541;stroke-miterlimit:10;}
	.st10{fill:none;stroke:#C9C9C9;stroke-width:0.4578;stroke-miterlimit:10;}
	.st11{fill:none;stroke:#C4C4C4;stroke-width:0.7;stroke-miterlimit:10;}
	.st12{fill:#FFFFFF;stroke:#C4C4C4;stroke-width:0.7;stroke-miterlimit:10;}
	.st13{fill:#1AA0DC;}
	.st14{fill:#93D3F1;}
	.st15{fill:none;stroke:#000000;stroke-width:0.25;stroke-miterlimit:10;}
	.st16{fill:none;stroke:#000000;stroke-width:0.35;stroke-miterlimit:10;stroke-dasharray:1,1;}
	.st17{fill:#FFFFFF;stroke:#000000;stroke-width:0.6889;stroke-miterlimit:10;}
	.st18{fill:#FFFFFF;stroke:#000000;stroke-width:0.4957;stroke-miterlimit:10;}
	.st19{fill:#FFFFFF;stroke:#000000;stroke-width:0.5306;stroke-miterlimit:10;}
	.st20{fill:none;stroke:#1F1410;stroke-width:0.7;}
	.st21{fill:#1F1410;}
	.st22{fill:#FFFFFF;stroke:#1F1410;stroke-width:0.4183;}
	.st23{fill:#9A989D;}
	.st24{fill:#59595C;}
	.st25{fill:#626266;}
	.st26{fill:none;}
	.st27{fill:#706F6F;}
	.st28{fill:none;stroke:#D71380;stroke-width:4;}
	.st29{fill:#DD162A;stroke:#FFFFFF;stroke-width:2.5449;stroke-miterlimit:10;}
	.st30{fill:none;stroke:#199CDA;stroke-width:1.9569;stroke-miterlimit:4.0001;}
	.st31{fill:none;stroke:#199CDA;stroke-width:1.9568;stroke-miterlimit:4.0001;}
	.st32{fill:#199CD6;}
	.st33{fill:#FFFFFF;}
	.st34{fill:none;stroke:#199CDA;stroke-width:1.9568;}
	.st35{fill:#1F1410;stroke:#FFFFFF;stroke-width:1.9568;}
	.st36{fill:none;stroke:#C9C6C5;stroke-width:0.7;}
	.st37{fill:#FFFFFF;stroke:#1F1410;stroke-width:0.3291;}
	.st38{fill:none;stroke:#D71380;stroke-width:4;stroke-linecap:round;stroke-linejoin:round;}
	.st39{fill:none;stroke:#199CDA;stroke-width:1.0683;stroke-miterlimit:4.0001;}
	.st40{fill:none;stroke:#199CDA;stroke-width:1.0683;}
	.st41{fill:#1F1410;stroke:#FFFFFF;stroke-width:1.0683;}
	.st42{fill:none;stroke:#1F1410;stroke-width:0.6;}
	.st43{fill:none;stroke:#000000;stroke-linecap:round;stroke-linejoin:round;stroke-miterlimit:10;}
	.st44{fill:none;stroke:#A6A5A5;stroke-width:2;stroke-linecap:round;stroke-linejoin:round;stroke-miterlimit:10;}
	.st45{fill:none;stroke:#A6A5A5;stroke-miterlimit:10;}
	.st46{fill:none;stroke:#1D1D1B;stroke-miterlimit:10;}
	.st47{fill:#00A0E0;}
	.st48{fill:none;stroke:#00A0E0;stroke-width:1.4736;stroke-linecap:round;stroke-linejoin:round;stroke-miterlimit:10;}
	.st49{fill:none;stroke:#00A0E0;stroke-width:1.5;stroke-linecap:round;stroke-linejoin:round;stroke-miterlimit:10;}
	.st50{fill:none;stroke:#000000;stroke-width:2.9478;stroke-linecap:round;stroke-linejoin:round;stroke-miterlimit:10;}
	.st51{fill:none;stroke:#00A2E2;stroke-width:1.4739;stroke-linecap:round;stroke-linejoin:round;stroke-miterlimit:10;}
	.st52{fill:none;stroke:#000000;stroke-width:0.6132;stroke-linecap:round;stroke-linejoin:round;stroke-miterlimit:10;}
	.st53{fill:none;stroke:#A6A5A5;stroke-width:0.6132;stroke-miterlimit:10;}
	.st54{fill:none;stroke:#00A0E0;stroke-width:0.9036;stroke-linecap:round;stroke-linejoin:round;stroke-miterlimit:10;}
	.st55{fill:none;stroke:#00A0E0;stroke-width:0.9198;stroke-linecap:round;stroke-linejoin:round;stroke-miterlimit:10;}
	.st56{fill:none;stroke:#000000;stroke-width:1.8077;stroke-linecap:round;stroke-linejoin:round;stroke-miterlimit:10;}
	.st57{fill:none;stroke:#00A2E2;stroke-width:0.9038;stroke-linecap:round;stroke-linejoin:round;stroke-miterlimit:10;}
	.st58{fill:none;stroke:#1D1D1B;stroke-width:0.7;stroke-miterlimit:10;}
</style>
<g id="Parrafos_vertical_1360_x2F_960">
	<g id="Parrafos_1360_x2F_960">
	</g>
</g>
<g id="Ubicación_1360_x2F_960">
</g>
<g id="Ubicación_con_color_320">
</g>
<g id="Cifra_x5F_final">
</g>
<g id="Reloj">
</g>
<g id="Planisferio_ubicador">
</g>
<g id="Accidente_x5F_aeereo">
</g>
<g id="Lugar_accidente">
</g>
<g id="Capital_x5F_ubicador">
</g>
<g id="Ruta_320">
	<g id="Parrafos_vertical_1360_x2F_960_1_">
		<g id="Parrafos_1360_x2F_960_9_">
		</g>
	</g>
	<g id="Ubicación_con_color_1360_x2F_960">
	</g>
	<g id="Ubicación_con_marco_1360_x2F_960">
	</g>
	<g id="Lugar_principal_del_Mapa_1360_x2F_960">
	</g>
	<g id="Ruta_1360_x2F_960">
	</g>
	<g id="Mar_1360_x2F_960">
	</g>
	<g id="Calle_1360_x2F_960">
	</g>
	<g id="Número_y_aclaración_1360_x2F_960">
	</g>
	<g id="Subtítulo_info">
	</g>
	<g id="Titulo_1360_x2F__960">
	</g>
	<g id="Parrafos_1360_x2F_960_5_">
	</g>
</g>
<g id="Número_grande_320">
</g>
<g id="Mobile">
	<g id="Titulo_320">
	</g>
	<g id="Parrafos_vertical_320">
		<g id="Parrafos_1360_x2F_960_26_">
		</g>
	</g>
	<g id="Mar_320">
	</g>
	<g id="Calle_320">
	</g>
	<g id="Número_y_aclaración_320_19_">
	</g>
	<g id="Ubicación_con_punto_320">
		<g id="Detalle">
		</g>
	</g>
	<g id="Ubicación_con_marco_320">
	</g>
	<g id="Mobile_1_">
		<g id="Titulo_320_21_">
		</g>
		<g id="Parrafos_vertical_320_21_">
			<g id="Parrafos_1360_x2F_960_29_">
			</g>
		</g>
		<g id="Mar_320_21_">
		</g>
		<g id="Calle_320_21_">
		</g>
		<g id="Número_y_aclaración_320_22_">
		</g>
		<g id="Ubicación_con_punto_320_21_">
			<g id="Detalle_21_">
			</g>
		</g>
		<g id="Ubicación_con_marco_320_21_">
		</g>
	</g>
</g>
<g id="Número_y_aclaración_320">
</g>
<g id="Desktop">
</g>
<g id="Mobile_2_">
	<g id="Titulo_320_23_">
	</g>
	<g id="Parrafos_vertical_320_23_">
		<g id="Parrafos_1360_x2F_960_31_">
		</g>
	</g>
	<g id="Mar_320_23_">
	</g>
	<g id="Calle_320_23_">
	</g>
	<g id="Número_y_aclaración_320_24_">
	</g>
	<g id="Ubicación_con_punto_320_23_">
		<g id="Detalle_23_">
		</g>
	</g>
	<g id="Ubicación_con_marco_320_23_">
	</g>
</g>
<g id="Desktop_1_">
</g>
<g>
	<g>
		<path class="st1" d="M6.7,522.4l0.9-1.2l-1.3-0.7l0.4-0.6l1.2,0.7l0-1.3h0.8l0,1.3l1.2-0.7l0.4,0.6l-1.3,0.7l0.9,1.2l-0.6,0.4
			l-0.9-1.3l-0.9,1.3L6.7,522.4z"/>
		<path class="st1" d="M11.4,527.4l1-0.1v-7.2h-1v-0.7h6.6v2h-0.8l-0.1-1.2h-3.6v3h2.7l0-0.8h0.7v2.3h-0.7l0-0.8h-2.7v3.5h1.5v0.7
			h-3.5V527.4z"/>
		<path class="st1" d="M18.8,525.2c0-1.9,0.9-3.3,3-3.3c1.9,0,3,1.2,3,3.1c0,2-1,3.3-3.1,3.3C19.9,528.3,18.8,527.1,18.8,525.2z
			 M23.8,525.1c0-1.5-0.6-2.6-2-2.6c-1.4,0-1.9,1.1-1.9,2.5c0,1.5,0.5,2.5,1.9,2.5C23.3,527.6,23.8,526.6,23.8,525.1z"/>
		<path class="st1" d="M25.9,527.5l0.8-0.1v-4.7l-0.9,0V522l1.6-0.1l0.1,0.1l0.1,0.6c0.6-0.5,1.3-0.8,2.1-0.8c1.4,0,2.1,0.8,2.1,2.1
			v3.6h0.8v0.7H30v-0.7l0.7-0.1v-3.4c0-1.2-0.8-1.5-1.5-1.5c-0.7,0-1.3,0.3-1.6,0.6v4.3h0.8v0.7h-2.6V527.5z"/>
		<path class="st1" d="M33.6,525.2c0-1.8,1.1-3.3,3.1-3.3c0.5,0,1.1,0.1,1.6,0.3v-2.4l-1,0v-0.7l1.9-0.1l0.1,0.1v8.5h0.9v0.7
			l-1.6,0.1l-0.1-0.1l-0.1-0.6c-0.5,0.4-1.2,0.7-2,0.7C34.3,528.3,33.6,527,33.6,525.2z M38.3,527v-4.2c-0.3-0.1-0.8-0.2-1.5-0.2
			c-1.4,0-2.2,1.1-2.2,2.5c0,1.3,0.4,2.5,2,2.5C37.4,527.5,38,527.2,38.3,527z"/>
		<path class="st1" d="M41.2,525.2c0-1.9,0.9-3.3,3-3.3c1.9,0,3,1.2,3,3.1c0,2-1,3.3-3.1,3.3C42.2,528.3,41.2,527.1,41.2,525.2z
			 M46.1,525.1c0-1.5-0.6-2.6-2-2.6c-1.4,0-1.9,1.1-1.9,2.5c0,1.5,0.5,2.5,1.9,2.5C45.6,527.6,46.1,526.6,46.1,525.1z"/>
		<path class="st1" d="M53.2,521.4c0,0-0.4-0.7-0.4-0.8l0,0c0,0.1,0,1.5,0,1.5v5.3h1v0.7h-2.9v-0.7l1-0.1v-7.2h-1v-0.7h2.3l4.2,6.2
			l0.4,0.8h0c0,0,0-1.5,0-1.5v-4.8h-1v-0.7h2.8v0.7h-0.9v8h-0.9L53.2,521.4z"/>
		<path class="st1" d="M60.5,526.6c0-1.5,1.5-2.1,4-2.1v-0.7c0-0.7-0.4-1.2-1.3-1.2c-0.9,0-1.6,0.2-2.2,0.4l-0.2-0.7
			c0.6-0.2,1.3-0.5,2.5-0.5c1.4,0,2.1,0.7,2.1,1.9v3l0.1,0.7h0.9v0.6l-1.4,0.1h-0.3l-0.1-0.7c-0.6,0.6-1.5,0.8-2.3,0.8
			C61.1,528.3,60.5,527.5,60.5,526.6z M64.5,526.9v-1.8c-2.3-0.1-3,0.6-3,1.4c0,0.7,0.5,1.1,1.2,1.1
			C63.6,527.6,64.2,527.2,64.5,526.9z"/>
		<path class="st1" d="M67.3,525.1c0-2,1.2-3.3,3.2-3.3c0.5,0,1.4,0.1,1.9,0.2l0,1.5h-0.7l-0.1-0.9c-0.4-0.1-0.7-0.1-1.1-0.1
			c-1.4,0-2.2,1-2.2,2.5c0,1.6,0.9,2.5,2.3,2.5c0.6,0,1.2-0.1,1.7-0.3l0.1,0.7c-0.6,0.2-1.3,0.3-1.9,0.3
			C68.6,528.3,67.3,527.3,67.3,525.1z"/>
		<path class="st1" d="M73.7,527.5l0.8-0.1v-4.7l-0.9,0V522l1.7-0.1l0.1,0.1v5.5h0.8v0.7h-2.6V527.5z M74.3,520.1
			c0-0.4,0.2-0.7,0.6-0.7c0.5,0,0.6,0.3,0.6,0.7c0,0.4-0.2,0.7-0.6,0.7S74.3,520.5,74.3,520.1z"/>
		<path class="st1" d="M77.2,525.2c0-1.9,0.9-3.3,3-3.3c1.9,0,3,1.2,3,3.1c0,2-1,3.3-3.1,3.3C78.3,528.3,77.2,527.1,77.2,525.2z
			 M82.2,525.1c0-1.5-0.6-2.6-2-2.6c-1.4,0-1.9,1.1-1.9,2.5c0,1.5,0.5,2.5,1.9,2.5C81.7,527.6,82.2,526.6,82.2,525.1z"/>
		<path class="st1" d="M84.3,527.5l0.8-0.1v-4.7l-0.9,0V522l1.6-0.1l0.1,0.1l0.1,0.6c0.6-0.5,1.3-0.8,2.1-0.8c1.4,0,2.1,0.8,2.1,2.1
			v3.6H91v0.7h-2.5v-0.7l0.7-0.1v-3.4c0-1.2-0.8-1.5-1.5-1.5c-0.7,0-1.3,0.3-1.6,0.6v4.3h0.8v0.7h-2.6V527.5z"/>
		<path class="st1" d="M92,526.6c0-1.5,1.5-2.1,4-2.1v-0.7c0-0.7-0.4-1.2-1.3-1.2c-0.9,0-1.6,0.2-2.2,0.4l-0.2-0.7
			c0.6-0.2,1.3-0.5,2.5-0.5c1.4,0,2.1,0.7,2.1,1.9v3l0.1,0.7H98v0.6l-1.4,0.1h-0.3l-0.1-0.7c-0.6,0.6-1.5,0.8-2.3,0.8
			C92.6,528.3,92,527.5,92,526.6z M96,526.9v-1.8c-2.3-0.1-3,0.6-3,1.4c0,0.7,0.5,1.1,1.2,1.1C95.1,527.6,95.7,527.2,96,526.9z"/>
		<path class="st1" d="M98.9,527.5l0.8-0.1v-7.7h-0.9V519l1.8-0.1l0.1,0.1v8.5h0.8v0.7h-2.6V527.5z"/>
		<path class="st1" d="M105.2,530l0.7-0.1v-7.3l-0.9,0V522l1.6-0.1l0.1,0.1l0,0.5c0.5-0.3,1.2-0.6,2-0.6c2,0,2.8,1.4,2.8,3
			c0,1.9-1,3.4-3.1,3.4c-0.5,0-1.3-0.1-1.6-0.4v2.1h1.2v0.7h-2.8V530z M110.6,525c0-1.2-0.4-2.5-2-2.5c-0.8,0-1.2,0.3-1.7,0.5v4.1
			c0.3,0.2,0.9,0.4,1.6,0.4C109.9,527.5,110.6,526.4,110.6,525z"/>
		<path class="st1" d="M112.8,526.6c0-1.5,1.5-2.1,4-2.1v-0.7c0-0.7-0.4-1.2-1.3-1.2c-0.9,0-1.6,0.2-2.2,0.4l-0.2-0.7
			c0.6-0.2,1.3-0.5,2.5-0.5c1.4,0,2.1,0.7,2.1,1.9v3l0.1,0.7h0.9v0.6l-1.4,0.1H117l-0.1-0.7c-0.6,0.6-1.5,0.8-2.3,0.8
			C113.3,528.3,112.8,527.5,112.8,526.6z M116.7,526.9v-1.8c-2.3-0.1-3,0.6-3,1.4c0,0.7,0.5,1.1,1.2,1.1
			C115.8,527.6,116.4,527.2,116.7,526.9z"/>
		<path class="st1" d="M119.6,527.5l0.8-0.1v-4.7l-0.9,0V522l1.6-0.1l0.1,0.1l0.1,0.8c0.6-0.5,1.6-0.8,2.4-0.8c0.3,0,0.5,0,0.6,0
			v1.4h-0.9v-0.8c-0.8,0-1.5,0.3-2.1,0.7v4.1h1.1v0.7h-2.9V527.5z"/>
		<path class="st1" d="M125.3,526.6c0-1.5,1.5-2.1,4-2.1v-0.7c0-0.7-0.4-1.2-1.3-1.2c-0.9,0-1.6,0.2-2.2,0.4l-0.2-0.7
			c0.6-0.2,1.3-0.5,2.5-0.5c1.4,0,2.1,0.7,2.1,1.9v3l0.1,0.7h0.9v0.6l-1.4,0.1h-0.3l-0.1-0.7c-0.6,0.6-1.5,0.8-2.3,0.8
			C125.9,528.3,125.3,527.5,125.3,526.6z M129.3,526.9v-1.8c-2.3-0.1-3,0.6-3,1.4c0,0.7,0.5,1.1,1.2,1.1
			C128.4,527.6,129,527.2,129.3,526.9z"/>
		<path class="st1" d="M134.8,525.1c0-1.9,1.1-3.2,2.9-3.2c1.7,0,2.6,1.2,2.6,2.6v0.6h-4.5c0,1.4,0.7,2.5,2.3,2.5
			c0.7,0,1.2-0.1,1.8-0.3l0.2,0.7c-0.6,0.2-1.5,0.4-2.1,0.4C135.9,528.3,134.8,527,134.8,525.1z M139.4,524.4c0-1.2-0.6-1.8-1.7-1.8
			c-0.9,0-1.7,0.6-1.8,1.9L139.4,524.4z"/>
		<path class="st1" d="M141.4,527.5l0.8-0.1v-7.7h-0.9V519l1.8-0.1l0.1,0.1v8.5h0.8v0.7h-2.6V527.5z"/>
		<path class="st1" d="M147.6,527.4l1-0.1v-7.2h-1v-0.7h6.6v2.1h-0.8l-0.1-1.3h-3.6v3h2.7l0-0.8h0.7v2.3h-0.7l0-0.8h-2.7v3.5h3.8
			l0.1-1.3h0.8l-0.1,2.1h-6.6V527.4z"/>
		<path class="st1" d="M155.4,527.5l0.8-0.1v-4.7l-0.9,0V522l1.6-0.1l0.1,0.1l0.1,0.6c0.6-0.5,1.3-0.8,2.1-0.8
			c1.4,0,2.1,0.8,2.1,2.1v3.6h0.8v0.7h-2.5v-0.7l0.7-0.1v-3.4c0-1.2-0.8-1.5-1.5-1.5c-0.7,0-1.3,0.3-1.6,0.6v4.3h0.8v0.7h-2.6V527.5
			z"/>
		<path class="st1" d="M163.1,527.5l0.8-0.1v-4.7l-0.9,0V522l1.6-0.1l0.1,0.1l0.1,0.8c0.6-0.5,1.6-0.8,2.4-0.8c0.3,0,0.5,0,0.6,0
			v1.4h-0.9v-0.8c-0.8,0-1.5,0.3-2.1,0.7v4.1h1.1v0.7h-2.9V527.5z"/>
		<path class="st1" d="M168.7,527.5l0.8-0.1v-4.7l-0.9,0V522l1.7-0.1l0.1,0.1v5.5h0.8v0.7h-2.6V527.5z M169.3,520.1
			c0-0.4,0.2-0.7,0.6-0.7c0.5,0,0.6,0.3,0.6,0.7c0,0.4-0.2,0.7-0.6,0.7S169.3,520.5,169.3,520.1z"/>
		<path class="st1" d="M175.8,530h1.2v-2.4c-0.4,0.3-1.1,0.6-1.9,0.6c-1.9,0-2.8-1.2-2.8-3c0-2,1.2-3.4,3.1-3.4
			c0.6,0,1.3,0.1,1.7,0.3c0,0,0.1-0.4,0.2-0.4h0.7v8.2l0.7,0.1v0.7h-2.8V530z M177,527v-4.2c-0.3-0.1-0.7-0.2-1.4-0.2
			c-1.4,0-2.2,1-2.2,2.5c0,1.4,0.5,2.4,2,2.4C176.1,527.5,176.7,527.2,177,527z"/>
		<path class="st1" d="M180.2,526.3l0-3.6h-0.8V522l1.7-0.1l0.1,0.1l0,4.1c0,1.2,0.8,1.5,1.5,1.5c0.7,0,1.3-0.3,1.6-0.6l0-4.3h-0.9
			V522l1.7-0.1l0.1,0.1l0,5.4l0.9,0v0.7l-1.6,0.1l-0.1-0.1l-0.1-0.6c-0.6,0.5-1.4,0.8-2.1,0.8C180.9,528.3,180.2,527.5,180.2,526.3z
			"/>
		<path class="st1" d="M187,525.1c0-1.9,1.1-3.2,2.9-3.2c1.7,0,2.6,1.2,2.6,2.6v0.6H188c0,1.4,0.7,2.5,2.3,2.5
			c0.7,0,1.2-0.1,1.8-0.3l0.2,0.7c-0.6,0.2-1.5,0.4-2.1,0.4C188.1,528.3,187,527,187,525.1z M191.6,524.4c0-1.2-0.6-1.8-1.7-1.8
			c-0.9,0-1.7,0.6-1.8,1.9L191.6,524.4z"/>
		<path class="st1" d="M193.5,525.1c0-2,1.2-3.3,3.2-3.3c0.5,0,1.4,0.1,1.9,0.2l0,1.5H198l-0.1-0.9c-0.4-0.1-0.7-0.1-1.1-0.1
			c-1.4,0-2.2,1-2.2,2.5c0,1.6,0.9,2.5,2.3,2.5c0.6,0,1.2-0.1,1.7-0.3l0.1,0.7c-0.6,0.2-1.3,0.3-1.9,0.3
			C194.8,528.3,193.5,527.3,193.5,525.1z"/>
		<path class="st1" d="M199.9,527.5l0.8-0.1v-4.7l-0.9,0V522l1.7-0.1l0.1,0.1v5.5h0.8v0.7h-2.6V527.5z M200.5,520.1
			c0-0.4,0.2-0.7,0.6-0.7c0.5,0,0.6,0.3,0.6,0.7c0,0.4-0.2,0.7-0.6,0.7C200.6,520.8,200.5,520.5,200.5,520.1z"/>
		<path class="st1" d="M203.5,527.5l0.8-0.1v-4.7l-0.9,0V522l1.6-0.1l0.1,0.1l0.1,0.6c0.6-0.5,1.3-0.8,2.1-0.8
			c0.9,0,1.5,0.3,1.8,0.9c0.7-0.6,1.6-0.9,2.3-0.9c1.4,0,2.1,0.8,2.1,2.1v3.6h0.8v0.7h-2.6v-0.7l0.8-0.1v-3.4c0-1.2-0.8-1.5-1.5-1.5
			c-0.6,0-1.3,0.3-1.7,0.7c0.1,0.2,0.1,0.5,0.1,0.7v3.5h0.8v0.7h-2.5v-0.7l0.7-0.1V524c0-1.1-0.8-1.4-1.5-1.4
			c-0.7,0-1.3,0.3-1.6,0.6v4.3h0.8v0.7h-2.6V527.5z"/>
		<path class="st1" d="M215.2,527.5l0.8-0.1v-4.7l-0.9,0V522l1.7-0.1l0.1,0.1v5.5h0.8v0.7h-2.6V527.5z M215.8,520.1
			c0-0.4,0.2-0.7,0.6-0.7c0.5,0,0.6,0.3,0.6,0.7c0,0.4-0.2,0.7-0.6,0.7S215.8,520.5,215.8,520.1z"/>
		<path class="st1" d="M218.8,525.1c0-1.9,1.1-3.2,2.9-3.2c1.7,0,2.6,1.2,2.6,2.6v0.6h-4.5c0,1.4,0.7,2.5,2.3,2.5
			c0.7,0,1.2-0.1,1.8-0.3l0.2,0.7c-0.6,0.2-1.5,0.4-2.1,0.4C219.9,528.3,218.8,527,218.8,525.1z M223.4,524.4c0-1.2-0.6-1.8-1.7-1.8
			c-0.9,0-1.7,0.6-1.8,1.9L223.4,524.4z"/>
		<path class="st1" d="M225.4,527.5l0.8-0.1v-4.7l-0.9,0V522l1.6-0.1l0.1,0.1l0.1,0.6c0.6-0.5,1.3-0.8,2.1-0.8
			c1.4,0,2.1,0.8,2.1,2.1v3.6h0.8v0.7h-2.5v-0.7l0.7-0.1v-3.4c0-1.2-0.8-1.5-1.5-1.5c-0.7,0-1.3,0.3-1.6,0.6v4.3h0.8v0.7h-2.6V527.5
			z"/>
		<path class="st1" d="M233.8,526.5v-3.8h-0.9V522l0.9-0.1l0.3-1.4h0.7v1.4h1.9v0.7h-1.9v3.8c0,0.7,0.3,1,1,1c0.2,0,0.7,0,0.9-0.1
			l0.1,0.7c-0.4,0.1-0.9,0.2-1.2,0.2C234.4,528.3,233.8,527.7,233.8,526.5z"/>
		<path class="st1" d="M237.6,525.2c0-1.9,0.9-3.3,3-3.3c1.9,0,3,1.2,3,3.1c0,2-1,3.3-3.1,3.3C238.6,528.3,237.6,527.1,237.6,525.2z
			 M242.6,525.1c0-1.5-0.6-2.6-2-2.6c-1.4,0-1.9,1.1-1.9,2.5c0,1.5,0.5,2.5,1.9,2.5C242.1,527.6,242.6,526.6,242.6,525.1z"/>
		<path class="st1" d="M247.1,530.8l0.1-0.8c0.2,0,0.4,0,0.6,0c0.9-0.1,1.4-0.9,1.7-1.7l0.2-0.4l-2.2-5.4l-0.6,0v-0.7h2.4v0.7h-0.7
			l1.6,4.1l0.1,0.4h0l0.1-0.4l1.6-4.1h-0.8v-0.7h2.3v0.7l-0.6,0.1l-2.1,5c-0.6,1.6-1.4,3.2-3,3.2
			C247.4,530.9,247.3,530.9,247.1,530.8z"/>
		<path class="st1" d="M256.6,527.5l0.8-0.1v-7.7h-0.9V519l1.8-0.1l0.1,0.1v8.5h0.8v0.7h-2.6V527.5z"/>
		<path class="st1" d="M260.2,526.6c0-1.5,1.5-2.1,4-2.1v-0.7c0-0.7-0.4-1.2-1.3-1.2c-0.9,0-1.6,0.2-2.2,0.4l-0.2-0.7
			c0.6-0.2,1.3-0.5,2.5-0.5c1.4,0,2.1,0.7,2.1,1.9v3l0.1,0.7h0.9v0.6l-1.4,0.1h-0.3l-0.1-0.7c-0.6,0.6-1.5,0.8-2.3,0.8
			C260.8,528.3,260.2,527.5,260.2,526.6z M264.2,526.9v-1.8c-2.3-0.1-3,0.6-3,1.4c0,0.7,0.5,1.1,1.2,1.1
			C263.3,527.6,263.9,527.2,264.2,526.9z"/>
		<path class="st1" d="M269.7,523.9c0-2.7,1.4-4.6,4.4-4.6c0.9,0,1.7,0.1,2.6,0.3v1.9h-0.8l-0.1-1.2c-0.4-0.1-1-0.2-1.6-0.2
			c-2.5,0-3.4,1.5-3.4,3.6c0,2.7,1,3.8,3.3,3.8c0.5,0,1.1-0.1,1.6-0.2l0.2-1.3h0.8l-0.1,1.8c-0.8,0.2-1.5,0.4-2.6,0.4
			C271.1,528.3,269.7,526.8,269.7,523.9z"/>
		<path class="st1" d="M277.8,525.2c0-1.9,0.9-3.3,3-3.3c1.9,0,3,1.2,3,3.1c0,2-1,3.3-3.1,3.3C278.8,528.3,277.8,527.1,277.8,525.2z
			 M282.7,525.1c0-1.5-0.6-2.6-2-2.6c-1.4,0-1.9,1.1-1.9,2.5c0,1.5,0.5,2.5,1.9,2.5C282.2,527.6,282.7,526.6,282.7,525.1z"/>
		<path class="st1" d="M284.9,527.5l0.8-0.1v-4.7l-0.9,0V522l1.6-0.1l0.1,0.1l0.1,0.6c0.6-0.5,1.3-0.8,2.1-0.8
			c1.4,0,2.1,0.8,2.1,2.1v3.6h0.8v0.7H289v-0.7l0.7-0.1v-3.4c0-1.2-0.8-1.5-1.5-1.5c-0.7,0-1.3,0.3-1.6,0.6v4.3h0.8v0.7h-2.6V527.5z
			"/>
		<path class="st1" d="M292.6,528l-0.1-1.5h0.8l0.1,0.9c0.4,0.1,0.7,0.2,1.1,0.2c0.8,0,1.6-0.3,1.6-1c0-0.7-0.5-0.9-1.2-1.2
			l-0.6-0.2c-0.9-0.3-1.6-0.7-1.6-1.7c0-0.9,0.7-1.7,2.3-1.7c0.5,0,1.4,0.1,1.9,0.3l0,1.4h-0.8l-0.1-0.8c-0.4-0.1-0.7-0.2-1.1-0.2
			c-0.7,0-1.3,0.3-1.3,0.9c0,0.6,0.6,0.9,1.3,1.1l0.5,0.2c1.1,0.3,1.8,0.9,1.8,1.8c0,1.3-1.3,1.9-2.6,1.9
			C293.9,528.3,293.2,528.2,292.6,528z"/>
		<path class="st1" d="M298.2,525.1c0-1.9,1.1-3.2,2.9-3.2c1.7,0,2.6,1.2,2.6,2.6v0.6h-4.5c0,1.4,0.7,2.5,2.3,2.5
			c0.7,0,1.2-0.1,1.8-0.3l0.2,0.7c-0.6,0.2-1.5,0.4-2.1,0.4C299.3,528.3,298.2,527,298.2,525.1z M302.8,524.4c0-1.2-0.6-1.8-1.7-1.8
			c-0.9,0-1.7,0.6-1.8,1.9L302.8,524.4z"/>
		<path class="st1" d="M304.8,527.5l0.8-0.1v-4.7l-0.9,0V522l1.6-0.1l0.1,0.1l0.1,0.8c0.6-0.5,1.6-0.8,2.4-0.8c0.3,0,0.5,0,0.6,0
			v1.4h-0.9v-0.8c-0.8,0-1.5,0.3-2.1,0.7v4.1h1.1v0.7h-2.9V527.5z"/>
		<path class="st1" d="M310.6,522.7l-0.6,0v-0.7h2.4v0.7h-0.7l1.6,4.1l0.1,0.4h0l0.1-0.4l1.6-4.1h-0.8v-0.7h2.3v0.7l-0.6,0.1
			l-2.3,5.5h-0.8L310.6,522.7z"/>
		<path class="st1" d="M317.2,526.6c0-1.5,1.5-2.1,4-2.1v-0.7c0-0.7-0.4-1.2-1.3-1.2c-0.9,0-1.6,0.2-2.2,0.4l-0.2-0.7
			c0.6-0.2,1.3-0.5,2.5-0.5c1.4,0,2.1,0.7,2.1,1.9v3l0.1,0.7h0.9v0.6l-1.4,0.1h-0.3l-0.1-0.7c-0.6,0.6-1.5,0.8-2.3,0.8
			C317.8,528.3,317.2,527.5,317.2,526.6z M321.2,526.9v-1.8c-2.3-0.1-3,0.6-3,1.4c0,0.7,0.5,1.1,1.2,1.1
			C320.2,527.6,320.8,527.2,321.2,526.9z"/>
		<path class="st1" d="M324,525.1c0-2,1.2-3.3,3.2-3.3c0.5,0,1.4,0.1,1.9,0.2l0,1.5h-0.7l-0.1-0.9c-0.4-0.1-0.7-0.1-1.1-0.1
			c-1.4,0-2.2,1-2.2,2.5c0,1.6,0.9,2.5,2.3,2.5c0.6,0,1.2-0.1,1.7-0.3l0.1,0.7c-0.6,0.2-1.3,0.3-1.9,0.3
			C325.3,528.3,324,527.3,324,525.1z"/>
		<path class="st1" d="M330.4,527.5l0.8-0.1v-4.7l-0.9,0V522l1.7-0.1l0.1,0.1v5.5h0.8v0.7h-2.6V527.5z M330.9,520.1
			c0-0.4,0.2-0.7,0.6-0.7c0.5,0,0.6,0.3,0.6,0.7c0,0.4-0.2,0.7-0.6,0.7C331.1,520.8,330.9,520.5,330.9,520.1z"/>
		<path class="st1" d="M333.9,525.2c0-1.9,0.9-3.3,3-3.3c1.9,0,3,1.2,3,3.1c0,2-1,3.3-3.1,3.3C335,528.3,333.9,527.1,333.9,525.2z
			 M338.9,525.1c0-1.5-0.6-2.6-2-2.6c-1.4,0-1.9,1.1-1.9,2.5c0,1.5,0.5,2.5,1.9,2.5C338.4,527.6,338.9,526.6,338.9,525.1z
			 M336.4,521l1.2-1.8l1,0.3l-1.5,1.7L336.4,521z"/>
		<path class="st1" d="M341,527.5l0.8-0.1v-4.7l-0.9,0V522l1.6-0.1l0.1,0.1l0.1,0.6c0.6-0.5,1.3-0.8,2.1-0.8c1.4,0,2.1,0.8,2.1,2.1
			v3.6h0.8v0.7h-2.5v-0.7l0.7-0.1v-3.4c0-1.2-0.8-1.5-1.5-1.5c-0.7,0-1.3,0.3-1.6,0.6v4.3h0.8v0.7H341V527.5z"/>
		<path class="st1" d="M351.3,525.2c0-1.8,1.1-3.3,3.1-3.3c0.5,0,1.1,0.1,1.6,0.3v-2.4l-1,0v-0.7l1.9-0.1l0.1,0.1v8.5h0.9v0.7
			l-1.6,0.1l-0.1-0.1l-0.1-0.6c-0.5,0.4-1.2,0.7-2,0.7C352.1,528.3,351.3,527,351.3,525.2z M356,527v-4.2c-0.3-0.1-0.8-0.2-1.5-0.2
			c-1.4,0-2.2,1.1-2.2,2.5c0,1.3,0.4,2.5,2,2.5C355.1,527.5,355.7,527.2,356,527z"/>
		<path class="st1" d="M358.9,525.1c0-1.9,1.1-3.2,2.9-3.2c1.7,0,2.6,1.2,2.6,2.6v0.6h-4.5c0,1.4,0.7,2.5,2.3,2.5
			c0.7,0,1.2-0.1,1.8-0.3l0.2,0.7c-0.6,0.2-1.5,0.4-2.1,0.4C359.9,528.3,358.9,527,358.9,525.1z M363.5,524.4c0-1.2-0.6-1.8-1.7-1.8
			c-0.9,0-1.7,0.6-1.8,1.9L363.5,524.4z"/>
		<path class="st1" d="M368.1,527.5l0.8-0.1v-7.7h-0.9V519l1.8-0.1l0.1,0.1v8.5h0.8v0.7h-2.6V527.5z"/>
		<path class="st1" d="M371.7,525.2c0-1.9,0.9-3.3,3-3.3c1.9,0,3,1.2,3,3.1c0,2-1,3.3-3.1,3.3C372.7,528.3,371.7,527.1,371.7,525.2z
			 M376.6,525.1c0-1.5-0.6-2.6-2-2.6c-1.4,0-1.9,1.1-1.9,2.5c0,1.5,0.5,2.5,1.9,2.5C376.1,527.6,376.6,526.6,376.6,525.1z"/>
		<path class="st1" d="M378.8,528l-0.1-1.5h0.8l0.1,0.9c0.4,0.1,0.7,0.2,1.1,0.2c0.8,0,1.6-0.3,1.6-1c0-0.7-0.5-0.9-1.2-1.2
			l-0.6-0.2c-0.9-0.3-1.6-0.7-1.6-1.7c0-0.9,0.7-1.7,2.3-1.7c0.5,0,1.4,0.1,1.9,0.3l0,1.4h-0.8l-0.1-0.8c-0.4-0.1-0.7-0.2-1.1-0.2
			c-0.7,0-1.3,0.3-1.3,0.9c0,0.6,0.6,0.9,1.3,1.1l0.5,0.2c1.1,0.3,1.8,0.9,1.8,1.8c0,1.3-1.3,1.9-2.6,1.9
			C380.1,528.3,379.4,528.2,378.8,528z"/>
		<path class="st1" d="M387.1,527.4l1-0.1v-7.2h-1v-0.7h3.8c1.5,0,3,0.4,3,2.2c0,0.9-0.7,1.8-1.6,2v0c1.2,0.2,1.8,1,1.8,2
			c0,1.8-1.3,2.5-3.1,2.5h-3.8V527.4z M391.1,523.3c1.2,0,1.7-0.6,1.7-1.6c0-1.1-0.9-1.5-1.9-1.5h-1.7v3.1H391.1z M390.9,527.4
			c1.1,0,2.1-0.3,2.1-1.7c0-1.1-0.7-1.7-1.9-1.7h-1.8v3.4H390.9z"/>
		<path class="st1" d="M395.1,525.2c0-1.9,0.9-3.3,3-3.3c1.9,0,3,1.2,3,3.1c0,2-1,3.3-3.1,3.3C396.2,528.3,395.1,527.1,395.1,525.2z
			 M400.1,525.1c0-1.5-0.6-2.6-2-2.6c-1.4,0-1.9,1.1-1.9,2.5c0,1.5,0.5,2.5,1.9,2.5C399.6,527.6,400.1,526.6,400.1,525.1z"/>
		<path class="st1" d="M402.3,528l-0.1-1.5h0.8l0.1,0.9c0.4,0.1,0.7,0.2,1.1,0.2c0.8,0,1.6-0.3,1.6-1c0-0.7-0.5-0.9-1.2-1.2
			l-0.6-0.2c-0.9-0.3-1.6-0.7-1.6-1.7c0-0.9,0.7-1.7,2.3-1.7c0.5,0,1.4,0.1,1.9,0.3l0,1.4h-0.8l-0.1-0.8c-0.4-0.1-0.7-0.2-1.1-0.2
			c-0.7,0-1.3,0.3-1.3,0.9c0,0.6,0.6,0.9,1.3,1.1l0.5,0.2c1.1,0.3,1.8,0.9,1.8,1.8c0,1.3-1.3,1.9-2.6,1.9
			C403.5,528.3,402.9,528.2,402.3,528z"/>
		<path class="st1" d="M411.5,530h1.2v-2.4c-0.4,0.3-1.1,0.6-1.9,0.6c-1.9,0-2.8-1.2-2.8-3c0-2,1.2-3.4,3.1-3.4
			c0.6,0,1.3,0.1,1.7,0.3c0,0,0.1-0.4,0.2-0.4h0.7v8.2l0.7,0.1v0.7h-2.8V530z M412.6,527v-4.2c-0.3-0.1-0.7-0.2-1.4-0.2
			c-1.4,0-2.2,1-2.2,2.5c0,1.4,0.5,2.4,2,2.4C411.8,527.5,412.3,527.2,412.6,527z"/>
		<path class="st1" d="M415.8,526.3l0-3.6H415V522l1.7-0.1l0.1,0.1l0,4.1c0,1.2,0.8,1.5,1.5,1.5c0.7,0,1.3-0.3,1.6-0.6l0-4.3h-0.9
			V522l1.7-0.1l0.1,0.1l0,5.4l0.9,0v0.7l-1.6,0.1l-0.1-0.1l-0.1-0.6c-0.6,0.5-1.4,0.8-2.1,0.8C416.5,528.3,415.8,527.5,415.8,526.3z
			"/>
		<path class="st1" d="M422.6,525.1c0-1.9,1.1-3.2,2.9-3.2c1.7,0,2.6,1.2,2.6,2.6v0.6h-4.5c0,1.4,0.7,2.5,2.3,2.5
			c0.7,0,1.2-0.1,1.8-0.3l0.2,0.7c-0.6,0.2-1.5,0.4-2.1,0.4C423.7,528.3,422.6,527,422.6,525.1z M427.2,524.4c0-1.2-0.6-1.8-1.7-1.8
			c-0.9,0-1.7,0.6-1.8,1.9L427.2,524.4z"/>
		<path class="st1" d="M429.3,528l-0.1-1.5h0.8l0.1,0.9c0.4,0.1,0.7,0.2,1.1,0.2c0.8,0,1.6-0.3,1.6-1c0-0.7-0.5-0.9-1.2-1.2
			l-0.6-0.2c-0.9-0.3-1.6-0.7-1.6-1.7c0-0.9,0.7-1.7,2.3-1.7c0.5,0,1.4,0.1,1.9,0.3l0,1.4h-0.8l-0.1-0.8c-0.4-0.1-0.7-0.2-1.1-0.2
			c-0.7,0-1.3,0.3-1.3,0.9c0,0.6,0.6,0.9,1.3,1.1l0.5,0.2c1.1,0.3,1.8,0.9,1.8,1.8c0,1.3-1.3,1.9-2.6,1.9
			C430.5,528.3,429.9,528.2,429.3,528z"/>
		<path class="st1" d="M439.9,521.4c0,0-0.4-0.7-0.4-0.8l0,0c0,0.1,0,1.5,0,1.5v5.3h1v0.7h-2.9v-0.7l1-0.1v-7.2h-1v-0.7h2.3l4.2,6.2
			l0.4,0.8h0c0,0,0-1.5,0-1.5v-4.8h-1v-0.7h2.8v0.7h-0.9v8h-0.9L439.9,521.4z"/>
		<path class="st1" d="M447.2,526.6c0-1.5,1.5-2.1,4-2.1v-0.7c0-0.7-0.4-1.2-1.3-1.2c-0.9,0-1.6,0.2-2.2,0.4l-0.2-0.7
			c0.6-0.2,1.3-0.5,2.5-0.5c1.4,0,2.1,0.7,2.1,1.9v3l0.1,0.7h0.9v0.6l-1.4,0.1h-0.3l-0.1-0.7c-0.6,0.6-1.5,0.8-2.3,0.8
			C447.8,528.3,447.2,527.5,447.2,526.6z M451.2,526.9v-1.8c-2.3-0.1-3,0.6-3,1.4c0,0.7,0.5,1.1,1.2,1.1
			C450.2,527.6,450.8,527.2,451.2,526.9z"/>
		<path class="st1" d="M454.8,526.5v-3.8h-0.9V522l0.9-0.1l0.3-1.4h0.7v1.4h1.9v0.7h-1.9v3.8c0,0.7,0.3,1,1,1c0.2,0,0.7,0,0.9-0.1
			l0.1,0.7c-0.4,0.1-0.9,0.2-1.2,0.2C455.4,528.3,454.8,527.7,454.8,526.5z"/>
		<path class="st1" d="M458.7,527.5l0.8-0.1v-4.7l-0.9,0V522l1.7-0.1l0.1,0.1v5.5h0.8v0.7h-2.6V527.5z M459.3,520.1
			c0-0.4,0.2-0.7,0.6-0.7c0.5,0,0.6,0.3,0.6,0.7c0,0.4-0.2,0.7-0.6,0.7S459.3,520.5,459.3,520.1z"/>
		<path class="st1" d="M462.3,522.7l-0.6,0v-0.7h2.4v0.7h-0.7l1.6,4.1l0.1,0.4h0l0.1-0.4l1.6-4.1h-0.8v-0.7h2.3v0.7l-0.6,0.1
			l-2.3,5.5h-0.8L462.3,522.7z"/>
		<path class="st1" d="M468.9,525.2c0-1.9,0.9-3.3,3-3.3c1.9,0,3,1.2,3,3.1c0,2-1,3.3-3.1,3.3C469.9,528.3,468.9,527.1,468.9,525.2z
			 M473.8,525.1c0-1.5-0.6-2.6-2-2.6c-1.4,0-1.9,1.1-1.9,2.5c0,1.5,0.5,2.5,1.9,2.5C473.3,527.6,473.8,526.6,473.8,525.1z"/>
		<path class="st1" d="M476.1,528l-0.1-1.5h0.8l0.1,0.9c0.4,0.1,0.7,0.2,1.1,0.2c0.8,0,1.6-0.3,1.6-1c0-0.7-0.5-0.9-1.2-1.2
			l-0.6-0.2c-0.9-0.3-1.6-0.7-1.6-1.7c0-0.9,0.7-1.7,2.3-1.7c0.5,0,1.4,0.1,1.9,0.3l0,1.4h-0.8l-0.1-0.8c-0.4-0.1-0.7-0.2-1.1-0.2
			c-0.7,0-1.3,0.3-1.3,0.9c0,0.6,0.6,0.9,1.3,1.1l0.5,0.2c1.1,0.3,1.8,0.9,1.8,1.8c0,1.3-1.3,1.9-2.6,1.9
			C477.3,528.3,476.7,528.2,476.1,528z"/>
		<path class="st1" d="M484,530.2l2.4-11l0.7,0.1l-2.4,11L484,530.2z"/>
		<path class="st1" d="M487.9,530.2l2.4-11l0.7,0.1l-2.4,11L487.9,530.2z"/>
		<path class="st1" d="M494.8,527.4l1-0.1v-7.2h-1v-0.7h6.6v2h-0.8l-0.1-1.2h-3.6v3h2.7l0-0.8h0.7v2.3h-0.7l0-0.8h-2.7v3.5h1.5v0.7
			h-3.5V527.4z"/>
		<path class="st1" d="M502.9,526.3l0-3.6h-0.8V522l1.7-0.1l0.1,0.1l0,4.1c0,1.2,0.8,1.5,1.5,1.5c0.7,0,1.3-0.3,1.6-0.6l0-4.3h-0.9
			V522l1.7-0.1l0.1,0.1l0,5.4l0.9,0v0.7l-1.6,0.1l-0.1-0.1l-0.1-0.6c-0.6,0.5-1.4,0.8-2.1,0.8C503.6,528.3,502.9,527.5,502.9,526.3z
			"/>
		<path class="st1" d="M509.7,525.1c0-1.9,1.1-3.2,2.9-3.2c1.7,0,2.6,1.2,2.6,2.6v0.6h-4.5c0,1.4,0.7,2.5,2.3,2.5
			c0.7,0,1.2-0.1,1.8-0.3l0.2,0.7c-0.6,0.2-1.5,0.4-2.1,0.4C510.8,528.3,509.7,527,509.7,525.1z M514.3,524.4c0-1.2-0.6-1.8-1.7-1.8
			c-0.9,0-1.7,0.6-1.8,1.9L514.3,524.4z"/>
		<path class="st1" d="M516.3,527.5l0.8-0.1v-4.7l-0.9,0V522l1.6-0.1l0.1,0.1l0.1,0.6c0.6-0.5,1.3-0.8,2.1-0.8
			c1.4,0,2.1,0.8,2.1,2.1v3.6h0.8v0.7h-2.5v-0.7l0.7-0.1v-3.4c0-1.2-0.8-1.5-1.5-1.5c-0.7,0-1.3,0.3-1.6,0.6v4.3h0.8v0.7h-2.6V527.5
			z"/>
		<path class="st1" d="M524.7,526.5v-3.8h-0.9V522l0.9-0.1l0.3-1.4h0.7v1.4h1.9v0.7h-1.9v3.8c0,0.7,0.3,1,1,1c0.2,0,0.7,0,0.9-0.1
			l0.1,0.7c-0.4,0.1-0.9,0.2-1.2,0.2C525.3,528.3,524.7,527.7,524.7,526.5z"/>
		<path class="st1" d="M528.5,525.1c0-1.9,1.1-3.2,2.9-3.2c1.7,0,2.6,1.2,2.6,2.6v0.6h-4.5c0,1.4,0.7,2.5,2.3,2.5
			c0.7,0,1.2-0.1,1.8-0.3l0.2,0.7c-0.6,0.2-1.5,0.4-2.1,0.4C529.6,528.3,528.5,527,528.5,525.1z M533.1,524.4c0-1.2-0.6-1.8-1.7-1.8
			c-0.9,0-1.7,0.6-1.8,1.9L533.1,524.4z"/>
		<path class="st1" d="M535.3,522.8c0-0.4,0.2-0.7,0.6-0.7c0.5,0,0.6,0.3,0.6,0.7c0,0.4-0.2,0.7-0.6,0.7S535.3,523.2,535.3,522.8z
			 M535.3,527.6c0-0.4,0.2-0.7,0.6-0.7c0.5,0,0.6,0.3,0.6,0.7c0,0.4-0.2,0.7-0.6,0.7S535.3,528,535.3,527.6z"/>
		<path class="st1" d="M540.5,527.4l1-0.1v-7.2h-1v-0.7h6.6v2h-0.8l-0.1-1.2h-3.6v3h2.7l0-0.8h0.7v2.3h-0.7l0-0.8h-2.7v3.5h1.5v0.7
			h-3.5V527.4z"/>
		<path class="st1" d="M548.6,526.3l0-3.6h-0.8V522l1.7-0.1l0.1,0.1l0,4.1c0,1.2,0.8,1.5,1.5,1.5c0.7,0,1.3-0.3,1.6-0.6l0-4.3h-0.9
			V522l1.7-0.1l0.1,0.1l0,5.4l0.9,0v0.7l-1.6,0.1l-0.1-0.1l-0.1-0.6c-0.6,0.5-1.4,0.8-2.1,0.8C549.3,528.3,548.6,527.5,548.6,526.3z
			"/>
		<path class="st1" d="M555.5,527.5l0.8-0.1v-4.7l-0.9,0V522l1.6-0.1l0.1,0.1l0.1,0.6c0.6-0.5,1.3-0.8,2.1-0.8
			c1.4,0,2.1,0.8,2.1,2.1v3.6h0.8v0.7h-2.5v-0.7l0.7-0.1v-3.4c0-1.2-0.8-1.5-1.5-1.5c-0.7,0-1.3,0.3-1.6,0.6v4.3h0.8v0.7h-2.6V527.5
			z"/>
		<path class="st1" d="M563.1,525.2c0-1.8,1.1-3.3,3.1-3.3c0.5,0,1.1,0.1,1.6,0.3v-2.4l-1,0v-0.7l1.9-0.1l0.1,0.1v8.5h0.9v0.7
			l-1.6,0.1l-0.1-0.1l-0.1-0.6c-0.5,0.4-1.2,0.7-2,0.7C563.9,528.3,563.1,527,563.1,525.2z M567.8,527v-4.2
			c-0.3-0.1-0.8-0.2-1.5-0.2c-1.4,0-2.2,1.1-2.2,2.5c0,1.3,0.4,2.5,2,2.5C566.9,527.5,567.5,527.2,567.8,527z"/>
		<path class="st1" d="M570.8,526.6c0-1.5,1.5-2.1,4-2.1v-0.7c0-0.7-0.4-1.2-1.3-1.2c-0.9,0-1.6,0.2-2.2,0.4l-0.2-0.7
			c0.6-0.2,1.3-0.5,2.5-0.5c1.4,0,2.1,0.7,2.1,1.9v3l0.1,0.7h0.9v0.6l-1.4,0.1H575l-0.1-0.7c-0.6,0.6-1.5,0.8-2.3,0.8
			C571.3,528.3,570.8,527.5,570.8,526.6z M574.8,526.9v-1.8c-2.3-0.1-3,0.6-3,1.4c0,0.7,0.5,1.1,1.2,1.1
			C573.8,527.6,574.4,527.2,574.8,526.9z"/>
		<path class="st1" d="M577.6,525.1c0-2,1.2-3.3,3.2-3.3c0.5,0,1.4,0.1,1.9,0.2l0,1.5H582l-0.1-0.9c-0.4-0.1-0.7-0.1-1.1-0.1
			c-1.4,0-2.2,1-2.2,2.5c0,1.6,0.9,2.5,2.3,2.5c0.6,0,1.2-0.1,1.7-0.3l0.1,0.7c-0.6,0.2-1.3,0.3-1.9,0.3
			C578.9,528.3,577.6,527.3,577.6,525.1z"/>
		<path class="st1" d="M583.9,527.5l0.8-0.1v-4.7l-0.9,0V522l1.7-0.1l0.1,0.1v5.5h0.8v0.7h-2.6V527.5z M584.5,520.1
			c0-0.4,0.2-0.7,0.6-0.7c0.5,0,0.6,0.3,0.6,0.7c0,0.4-0.2,0.7-0.6,0.7S584.5,520.5,584.5,520.1z"/>
		<path class="st1" d="M587.5,525.2c0-1.9,0.9-3.3,3-3.3c1.9,0,3,1.2,3,3.1c0,2-1,3.3-3.1,3.3C588.5,528.3,587.5,527.1,587.5,525.2z
			 M592.4,525.1c0-1.5-0.6-2.6-2-2.6c-1.4,0-1.9,1.1-1.9,2.5c0,1.5,0.5,2.5,1.9,2.5C591.9,527.6,592.4,526.6,592.4,525.1z M590,521
			l1.2-1.8l1,0.3l-1.5,1.7L590,521z"/>
		<path class="st1" d="M594.6,527.5l0.8-0.1v-4.7l-0.9,0V522l1.6-0.1l0.1,0.1l0.1,0.6c0.6-0.5,1.3-0.8,2.1-0.8
			c1.4,0,2.1,0.8,2.1,2.1v3.6h0.8v0.7h-2.5v-0.7l0.7-0.1v-3.4c0-1.2-0.8-1.5-1.5-1.5c-0.7,0-1.3,0.3-1.6,0.6v4.3h0.8v0.7h-2.6V527.5
			z"/>
		<path class="st1" d="M605.2,520.2l-0.9-0.1v-0.7h3v0.7h-1l2.4,6.3l0.2,0.6h0l0.2-0.7l2.5-6.3h-1.2v-0.7h3v0.7l-0.9,0.1l-3.2,7.9
			h-1L605.2,520.2z"/>
		<path class="st1" d="M614.1,527.5l0.8-0.1v-4.7l-0.9,0V522l1.7-0.1l0.1,0.1v5.5h0.8v0.7h-2.6V527.5z M614.7,520.1
			c0-0.4,0.2-0.7,0.6-0.7c0.5,0,0.6,0.3,0.6,0.7c0,0.4-0.2,0.7-0.6,0.7C614.9,520.8,614.7,520.5,614.7,520.1z"/>
		<path class="st1" d="M617.7,525.2c0-1.8,1.1-3.3,3.1-3.3c0.5,0,1.1,0.1,1.6,0.3v-2.4l-1,0v-0.7l1.9-0.1l0.1,0.1v8.5h0.9v0.7
			l-1.6,0.1l-0.1-0.1l-0.1-0.6c-0.5,0.4-1.2,0.7-2,0.7C618.4,528.3,617.7,527,617.7,525.2z M622.4,527v-4.2
			c-0.3-0.1-0.8-0.2-1.5-0.2c-1.4,0-2.2,1.1-2.2,2.5c0,1.3,0.4,2.5,2,2.5C621.5,527.5,622.1,527.2,622.4,527z"/>
		<path class="st1" d="M625.3,526.6c0-1.5,1.5-2.1,4-2.1v-0.7c0-0.7-0.4-1.2-1.3-1.2c-0.9,0-1.6,0.2-2.2,0.4l-0.2-0.7
			c0.6-0.2,1.3-0.5,2.5-0.5c1.4,0,2.1,0.7,2.1,1.9v3l0.1,0.7h0.9v0.6l-1.4,0.1h-0.3l-0.1-0.7c-0.6,0.6-1.5,0.8-2.3,0.8
			C625.9,528.3,625.3,527.5,625.3,526.6z M629.3,526.9v-1.8c-2.3-0.1-3,0.6-3,1.4c0,0.7,0.5,1.1,1.2,1.1
			C628.4,527.6,629,527.2,629.3,526.9z"/>
		<path class="st1" d="M634.8,528l0-1.9h0.8l0.2,1.3c0.6,0.1,1.2,0.1,1.7,0.1c1.5,0,2.5-0.5,2.5-1.7c0-1-0.6-1.3-1.6-1.5l-1.5-0.3
			c-1.2-0.3-2.1-0.7-2.1-2.1c0-1.8,1.5-2.5,3.3-2.5c0.8,0,1.7,0.1,2.5,0.3v1.9h-0.8l-0.1-1.2c-0.2-0.1-0.9-0.2-1.6-0.2
			c-1.7,0-2.3,0.6-2.3,1.6c0,0.9,0.6,1.1,1.2,1.3l1.7,0.4c1.5,0.3,2.2,1,2.2,2.3c0,1.9-1.5,2.7-3.6,2.7
			C636.7,528.3,635.7,528.2,634.8,528z"/>
		<path class="st1" d="M642.1,527.5l0.8-0.1v-4.7l-0.9,0V522l1.7-0.1l0.1,0.1v5.5h0.8v0.7h-2.6V527.5z M642.7,520.1
			c0-0.4,0.2-0.7,0.6-0.7c0.5,0,0.6,0.3,0.6,0.7c0,0.4-0.2,0.7-0.6,0.7S642.7,520.5,642.7,520.1z"/>
		<path class="st1" d="M645.7,527.5l0.8-0.1v-7.7h-0.9V519l1.8-0.1l0.1,0.1v8.5h0.8v0.7h-2.6V527.5z"/>
		<path class="st1" d="M649.4,522.7l-0.6,0v-0.7h2.4v0.7h-0.7l1.6,4.1l0.1,0.4h0l0.1-0.4l1.6-4.1h-0.8v-0.7h2.3v0.7l-0.6,0.1
			l-2.3,5.5h-0.8L649.4,522.7z"/>
		<path class="st1" d="M655.9,525.1c0-1.9,1.1-3.2,2.9-3.2c1.7,0,2.6,1.2,2.6,2.6v0.6h-4.5c0,1.4,0.7,2.5,2.3,2.5
			c0.7,0,1.2-0.1,1.8-0.3l0.2,0.7c-0.6,0.2-1.5,0.4-2.1,0.4C657,528.3,655.9,527,655.9,525.1z M660.5,524.4c0-1.2-0.6-1.8-1.7-1.8
			c-0.9,0-1.7,0.6-1.8,1.9L660.5,524.4z"/>
		<path class="st1" d="M662.6,528l-0.1-1.5h0.8l0.1,0.9c0.4,0.1,0.7,0.2,1.1,0.2c0.8,0,1.6-0.3,1.6-1c0-0.7-0.5-0.9-1.2-1.2
			l-0.6-0.2c-0.9-0.3-1.6-0.7-1.6-1.7c0-0.9,0.7-1.7,2.3-1.7c0.5,0,1.4,0.1,1.9,0.3l0,1.4h-0.8l-0.1-0.8c-0.4-0.1-0.7-0.2-1.1-0.2
			c-0.7,0-1.3,0.3-1.3,0.9c0,0.6,0.6,0.9,1.3,1.1l0.5,0.2c1.1,0.3,1.8,0.9,1.8,1.8c0,1.3-1.3,1.9-2.6,1.9
			C663.8,528.3,663.2,528.2,662.6,528z"/>
		<path class="st1" d="M669,526.5v-3.8H668V522l0.9-0.1l0.3-1.4h0.7v1.4h1.9v0.7h-1.9v3.8c0,0.7,0.3,1,1,1c0.2,0,0.7,0,0.9-0.1
			l0.1,0.7c-0.4,0.1-0.9,0.2-1.2,0.2C669.6,528.3,669,527.7,669,526.5z"/>
		<path class="st1" d="M672.8,527.5l0.8-0.1v-4.7l-0.9,0V522l1.6-0.1l0.1,0.1l0.1,0.8c0.6-0.5,1.6-0.8,2.4-0.8c0.3,0,0.5,0,0.6,0
			v1.4h-0.9v-0.8c-0.8,0-1.5,0.3-2.1,0.7v4.1h1.1v0.7h-2.9V527.5z"/>
		<path class="st1" d="M678.5,525.1c0-1.9,1.1-3.2,2.9-3.2c1.7,0,2.6,1.2,2.6,2.6v0.6h-4.5c0,1.4,0.7,2.5,2.3,2.5
			c0.7,0,1.2-0.1,1.8-0.3l0.2,0.7c-0.6,0.2-1.5,0.4-2.1,0.4C679.5,528.3,678.5,527,678.5,525.1z M683.1,524.4c0-1.2-0.6-1.8-1.7-1.8
			c-0.9,0-1.7,0.6-1.8,1.9L683.1,524.4z"/>
		<path class="st1" d="M685.2,522.8c0-0.4,0.2-0.7,0.6-0.7c0.5,0,0.6,0.3,0.6,0.7c0,0.4-0.2,0.7-0.6,0.7S685.2,523.2,685.2,522.8z
			 M685.2,527.6c0-0.4,0.2-0.7,0.6-0.7c0.5,0,0.6,0.3,0.6,0.7c0,0.4-0.2,0.7-0.6,0.7S685.2,528,685.2,527.6z"/>
		<path class="st1" d="M690.5,527.4l1-0.1v-7.2h-1v-0.7h6.6v2h-0.8l-0.1-1.2h-3.6v3h2.7l0-0.8h0.7v2.3h-0.7l0-0.8h-2.7v3.5h1.5v0.7
			h-3.5V527.4z"/>
		<path class="st1" d="M697.6,527.4l0.9-0.1l3.2-7.9h1.1l3.2,8l0.9,0.1v0.7h-3v-0.7h1l-0.9-2.3h-3.6l-0.9,2.3h1.2v0.7h-3V527.4z
			 M703.7,524.4l-1.3-3.3l-0.2-0.6h0l-0.2,0.6l-1.3,3.3H703.7z"/>
		<path class="st1" d="M707.6,527.4l1-0.1v-7.2h-1v-0.7h4.4c1.4,0,3,0.3,3,2.3c0,1.5-1.3,2.1-2,2.1v0c1.1,0.1,1.5,1,1.6,1.6l0.3,1.8
			l1.2,0.1v0.7h-1.6c-0.4,0-0.6-0.3-0.6-0.6l-0.3-2c-0.1-0.8-0.5-1.4-1.8-1.4h-2v3.2h1v0.7h-3.1V527.4z M711.1,523.5
			c1.5,0,2.6-0.3,2.6-1.7c0-1.5-1.3-1.6-2.3-1.6h-1.8v3.3H711.1z"/>
		<path class="st1" d="M718.8,521.4c0,0-0.4-0.7-0.4-0.8l0,0c0,0.1,0,1.5,0,1.5v5.3h1v0.7h-2.9v-0.7l1-0.1v-7.2h-1v-0.7h2.3l4.2,6.2
			l0.4,0.8h0c0,0,0-1.5,0-1.5v-4.8h-1v-0.7h2.8v0.7h-0.9v8h-0.9L718.8,521.4z"/>
	</g>
</g>
<line class="st4" x1="78.3" y1="459.3" x2="690" y2="459.3"/>
<g>
	<path d="M159.9,25.2l1.3-0.1v-8h-1.3v-1.8h5.4l2.5,7.1h0.1l2.6-7.1h5.6v1.8h-1.4v8.1h1.4V27h-5.5v-1.8l1.3-0.1v-5.8l0.1-1.3l-0.1,0
		l-3.2,8.9h-2l-3.2-8.9h-0.1l0.1,1.2v6h1.4V27h-4.9V25.2z"/>
	<path d="M177.2,23c0-2.7,1.5-4.5,4.4-4.5c2.8,0,4.4,1.6,4.4,4.2c0,2.8-1.6,4.5-4.5,4.5C178.6,27.2,177.2,25.7,177.2,23z
		 M183.1,22.9c0-1.7-0.5-2.5-1.6-2.5c-1,0-1.6,0.7-1.6,2.5c0,1.9,0.5,2.5,1.6,2.5S183.1,24.7,183.1,22.9z"/>
	<path d="M187.1,25.3l0.8-0.1v-4.8l-0.8,0v-1.7l3.1-0.1l0.2,0.1l0.1,1c1-0.7,1.9-1.2,2.9-1.2c1.9,0,2.6,1.2,2.6,2.5v4.2h0.8V27h-4.3
		v-1.7l0.8-0.1v-3.6c0-1.1-0.8-1.2-1.2-1.2c-0.6,0-1.1,0.2-1.4,0.4v4.5h0.9V27h-4.4V25.3z"/>
	<path d="M198.6,24.3v-3.8h-1.1v-1.7l1.1-0.2l0.9-1.9h1.8v2h2v1.8h-2v3.6c0,0.8,0.5,1,1.1,1c0.2,0,0.7,0,0.9-0.1l0.2,1.9
		c-0.6,0.2-1.4,0.3-2.1,0.3C199.3,27.2,198.6,26,198.6,24.3z"/>
	<path d="M204.4,23c0-2.7,1.5-4.5,4.4-4.5c2.8,0,4.4,1.6,4.4,4.2c0,2.8-1.6,4.5-4.5,4.5C205.9,27.2,204.4,25.7,204.4,23z
		 M210.4,22.9c0-1.7-0.5-2.5-1.6-2.5c-1,0-1.6,0.7-1.6,2.5c0,1.9,0.5,2.5,1.6,2.5S210.4,24.7,210.4,22.9z"/>
	<path d="M217.8,23c0-2.7,1.5-4.5,4.2-4.5c0.3,0,1,0,1.6,0.2v-2.2l-1,0v-1.7l3.6-0.2l0.2,0.2v10.5h0.9V27l-3,0.2l-0.1-0.1l-0.2-1
		c-0.5,0.6-1.6,1.1-2.7,1.1C218.8,27.2,217.8,25.2,217.8,23z M223.6,24.9v-4.4c-0.3-0.1-0.6-0.2-1.1-0.2c-1.3,0-1.8,0.9-1.8,2.3
		c0,1.5,0.3,2.6,1.7,2.6C222.9,25.2,223.2,25.1,223.6,24.9z"/>
	<path d="M228.2,22.9c0-2.5,1.6-4.4,4.2-4.4c2.6,0,3.9,1.9,3.9,4v0.8h-5.2c0,1.3,1,1.8,2.1,1.8s1.8-0.2,2.5-0.3l0.4,1.8
		c-0.9,0.3-2.3,0.6-3.3,0.6C229.5,27.2,228.2,25.7,228.2,22.9z M233.7,22c0-1.1-0.4-1.8-1.3-1.8c-0.8,0-1.3,0.6-1.4,1.8L233.7,22z"
		/>
	<path d="M237.5,26.7l-0.1-2.2h2.4l0.1,0.8c0.3,0.1,0.7,0.1,1,0.1c0.7,0,1.3-0.2,1.3-0.7c0-0.5-0.6-0.7-1.3-0.9l-0.9-0.2
		c-1.8-0.5-2.5-1.1-2.5-2.4c0-1.4,0.8-2.7,4-2.7c0.6,0,2.2,0.1,3.1,0.6l0,2h-2.2l-0.1-0.8c-0.4-0.1-0.7-0.1-1-0.1
		c-0.7,0-1.2,0.2-1.2,0.6c0,0.5,0.7,0.6,1.5,0.8l0.8,0.2c2,0.5,2.6,1.6,2.6,2.5c0,1.7-1.5,2.8-3.9,2.8
		C239.6,27.2,238.6,27,237.5,26.7z"/>
	<path d="M246.8,24.3v-3.8h-1.1v-1.7l1.1-0.2l0.9-1.9h1.8v2h2v1.8h-2v3.6c0,0.8,0.5,1,1.1,1c0.2,0,0.7,0,0.9-0.1l0.2,1.9
		c-0.6,0.2-1.4,0.3-2.1,0.3C247.6,27.2,246.8,26,246.8,24.3z"/>
	<path d="M252.7,25.3l0.8-0.1v-4.8l-0.8,0v-1.7l3.3-0.1l0.2,0.2v6.5h0.9V27h-4.4V25.3z M253.4,16.4c0-1,0.4-1.5,1.4-1.5
		c1.2,0,1.5,0.7,1.5,1.5c0,0.8-0.3,1.4-1.5,1.4C253.7,17.9,253.4,17.2,253.4,16.4z"/>
	<path d="M258.2,25.3l0.8-0.1v-4.8l-0.8,0v-1.7l3.1-0.1l0.2,0.1l0.1,1c1-0.7,1.9-1.2,2.9-1.2c1.9,0,2.6,1.2,2.6,2.5v4.2h0.8V27h-4.3
		v-1.7l0.8-0.1v-3.6c0-1.1-0.8-1.2-1.2-1.2c-0.6,0-1.1,0.2-1.4,0.4v4.5h0.9V27h-4.4V25.3z"/>
	<path d="M268.9,24.8c0-2.2,2.6-2.6,5-2.7v-0.5c0-0.7-0.4-1-1.3-1c-0.9,0-1.9,0.2-2.7,0.5l-0.5-1.9c0.9-0.4,2.2-0.6,3.9-0.6
		c1.8,0,3.4,0.7,3.4,3v2.5l0.1,1.2h0.8v1.5l-2.7,0.2h-0.5l-0.1-1.2c-0.5,0.7-1.7,1.2-2.7,1.2C269.6,27.2,268.9,26.2,268.9,24.8z
		 M273.8,24.9v-1.6c-1.4,0-2.2,0.4-2.2,1.2c0,0.7,0.5,0.9,1,0.9C273.1,25.4,273.6,25.2,273.8,24.9z"/>
	<path d="M278.4,23c0-2.7,1.5-4.5,4.2-4.5c0.3,0,1,0,1.6,0.2v-2.2l-1,0v-1.7l3.6-0.2l0.2,0.2v10.5h0.9V27l-3,0.2l-0.1-0.1l-0.2-1
		c-0.5,0.6-1.6,1.1-2.7,1.1C279.4,27.2,278.4,25.2,278.4,23z M284.2,24.9v-4.4c-0.3-0.1-0.6-0.2-1.1-0.2c-1.3,0-1.8,0.9-1.8,2.3
		c0,1.5,0.3,2.6,1.7,2.6C283.5,25.2,283.9,25.1,284.2,24.9z"/>
	<path d="M288.8,23c0-2.7,1.5-4.5,4.4-4.5c2.8,0,4.4,1.6,4.4,4.2c0,2.8-1.6,4.5-4.5,4.5C290.3,27.2,288.8,25.7,288.8,23z
		 M294.8,22.9c0-1.7-0.5-2.5-1.6-2.5c-1,0-1.6,0.7-1.6,2.5c0,1.9,0.5,2.5,1.6,2.5S294.8,24.7,294.8,22.9z"/>
	<path d="M302.3,24.8c0-2.2,2.6-2.6,5-2.7v-0.5c0-0.7-0.4-1-1.3-1c-0.9,0-1.9,0.2-2.7,0.5l-0.5-1.9c0.9-0.4,2.2-0.6,3.9-0.6
		c1.8,0,3.4,0.7,3.4,3v2.5l0.1,1.2h0.8v1.5l-2.7,0.2h-0.5l-0.1-1.2c-0.5,0.7-1.7,1.2-2.7,1.2C303,27.2,302.3,26.2,302.3,24.8z
		 M307.2,24.9v-1.6c-1.4,0-2.2,0.4-2.2,1.2c0,0.7,0.5,0.9,1,0.9C306.5,25.4,307,25.2,307.2,24.9z"/>
	<path d="M315.3,25.3l0.8-0.1v-8.7h-0.9v-1.7l3.5-0.2l0.2,0.2v10.5h0.9V27h-4.4V25.3z"/>
	<path d="M320.8,24.8c0-2.2,2.6-2.6,5-2.7v-0.5c0-0.7-0.4-1-1.3-1c-0.9,0-1.9,0.2-2.7,0.5l-0.5-1.9c0.9-0.4,2.2-0.6,3.9-0.6
		c1.8,0,3.4,0.7,3.4,3v2.5l0.1,1.2h0.8v1.5l-2.7,0.2h-0.5l-0.1-1.2c-0.5,0.7-1.7,1.2-2.7,1.2C321.6,27.2,320.8,26.2,320.8,24.8z
		 M325.8,24.9v-1.6c-1.4,0-2.2,0.4-2.2,1.2c0,0.7,0.5,0.9,1,0.9C325.1,25.4,325.5,25.2,325.8,24.9z"/>
	<path d="M334,28.6l0.8-0.1v-8.1l-0.8,0v-1.7l3.1-0.1l0.2,0.1l0.1,0.7c0.6-0.4,1.6-0.9,2.6-0.9c2.4,0,3.3,1.9,3.3,4
		c0,2.7-1.5,4.6-4.2,4.6c-0.3,0-1.1-0.1-1.6-0.2v1.7h1.2v1.7H334V28.6z M340.4,22.9c0-1.6-0.4-2.4-1.7-2.4c-0.5,0-0.8,0.1-1.2,0.3
		V25c0.3,0.2,0.7,0.2,1.2,0.2C340,25.3,340.4,24.1,340.4,22.9z"/>
	<path d="M344.4,25.3l0.8-0.1v-4.8l-0.8,0v-1.7l3.1-0.1l0.2,0.1l0.1,1c1-0.8,2.3-1.1,3.1-1.1c0.3,0,0.8,0,1.1,0.1v2.8h-2.5v-1
		c-0.5,0-1,0.2-1.5,0.5v4.2h1.3V27h-4.8V25.3z"/>
	<path d="M352.9,23c0-2.7,1.5-4.5,4.4-4.5c2.8,0,4.4,1.6,4.4,4.2c0,2.8-1.6,4.5-4.5,4.5C354.4,27.2,352.9,25.7,352.9,23z
		 M358.9,22.9c0-1.7-0.5-2.5-1.6-2.5c-1,0-1.6,0.7-1.6,2.5c0,1.9,0.5,2.5,1.6,2.5S358.9,24.7,358.9,22.9z"/>
	<path d="M363.6,24.3v-3.8h-1.1v-1.7l1.1-0.2l0.9-1.9h1.8v2h2v1.8h-2v3.6c0,0.8,0.5,1,1.1,1c0.2,0,0.7,0,0.9-0.1l0.2,1.9
		c-0.6,0.2-1.4,0.3-2.1,0.3C364.4,27.2,363.6,26,363.6,24.3z"/>
	<path d="M369.4,22.9c0-2.5,1.6-4.4,4.2-4.4c2.6,0,3.9,1.9,3.9,4v0.8h-5.2c0,1.3,1,1.8,2.1,1.8s1.8-0.2,2.5-0.3l0.4,1.8
		c-0.9,0.3-2.3,0.6-3.3,0.6C370.8,27.2,369.4,25.7,369.4,22.9z M374.9,22c0-1.1-0.4-1.8-1.3-1.8c-0.8,0-1.3,0.6-1.4,1.8L374.9,22z"
		/>
	<path d="M378.6,22.8c0-2.6,1.8-4.3,4.7-4.3c0.7,0,1.9,0.1,2.7,0.4l0,2.6h-1.8l-0.2-1c-0.3,0-0.4,0-0.7,0c-1.1,0-1.9,0.8-1.9,2.2
		c0,1.6,0.8,2.4,2.2,2.4c0.7,0,1.6-0.2,2.2-0.3l0.3,1.8c-0.9,0.3-2,0.5-2.9,0.5C380.2,27.2,378.6,25.6,378.6,22.8z"/>
	<path d="M387.2,22.8c0-2.6,1.8-4.3,4.7-4.3c0.7,0,1.9,0.1,2.7,0.4l0,2.6h-1.8l-0.2-1c-0.3,0-0.4,0-0.7,0c-1.1,0-1.9,0.8-1.9,2.2
		c0,1.6,0.8,2.4,2.2,2.4c0.7,0,1.6-0.2,2.2-0.3l0.3,1.8c-0.9,0.3-2,0.5-2.9,0.5C388.8,27.2,387.2,25.6,387.2,22.8z"/>
	<path d="M395.9,25.3l0.8-0.1v-4.8l-0.8,0v-1.7l3.3-0.1l0.2,0.2v6.5h0.9V27h-4.4V25.3z M396.6,16.4c0-1,0.4-1.5,1.4-1.5
		c1.2,0,1.5,0.7,1.5,1.5c0,0.8-0.3,1.4-1.5,1.4C396.9,17.9,396.6,17.2,396.6,16.4z"/>
	<path d="M401.3,23c0-2.7,1.5-4.5,4.4-4.5c2.8,0,4.4,1.6,4.4,4.2c0,2.8-1.6,4.5-4.5,4.5C402.8,27.2,401.3,25.7,401.3,23z
		 M407.2,22.9c0-1.7-0.5-2.5-1.6-2.5c-1,0-1.6,0.7-1.6,2.5c0,1.9,0.5,2.5,1.6,2.5S407.2,24.7,407.2,22.9z M404.7,17.6l1.7-2.8
		l2.3,0.6l-2.4,2.4L404.7,17.6z"/>
	<path d="M411.2,25.3l0.8-0.1v-4.8l-0.8,0v-1.7l3.1-0.1l0.2,0.1l0.1,1c1-0.7,1.9-1.2,2.9-1.2c1.9,0,2.6,1.2,2.6,2.5v4.2h0.8V27h-4.3
		v-1.7l0.8-0.1v-3.6c0-1.1-0.8-1.2-1.2-1.2c-0.6,0-1.1,0.2-1.4,0.4v4.5h0.9V27h-4.4V25.3z"/>
	<path d="M425.4,23c0-2.7,1.5-4.5,4.2-4.5c0.3,0,1,0,1.6,0.2v-2.2l-1,0v-1.7l3.6-0.2l0.2,0.2v10.5h0.9V27l-3,0.2l-0.1-0.1l-0.2-1
		c-0.5,0.6-1.6,1.1-2.7,1.1C426.4,27.2,425.4,25.2,425.4,23z M431.2,24.9v-4.4c-0.3-0.1-0.6-0.2-1.1-0.2c-1.3,0-1.8,0.9-1.8,2.3
		c0,1.5,0.3,2.6,1.7,2.6C430.4,25.2,430.8,25.1,431.2,24.9z"/>
	<path d="M435.8,22.9c0-2.5,1.6-4.4,4.2-4.4c2.6,0,3.9,1.9,3.9,4v0.8h-5.2c0,1.3,1,1.8,2.1,1.8s1.8-0.2,2.5-0.3l0.4,1.8
		c-0.9,0.3-2.3,0.6-3.3,0.6C437.1,27.2,435.8,25.7,435.8,22.9z M441.3,22c0-1.1-0.4-1.8-1.3-1.8c-0.8,0-1.3,0.6-1.4,1.8L441.3,22z"
		/>
	<path d="M449.2,26.8V16.6h-0.9v-1.7l3.5-0.2l0.2,0.2v4.5c0.6-0.4,1.4-0.8,2.3-0.8c2.4,0,3.4,1.8,3.4,4c0,3.1-2.2,4.6-4.8,4.6
		C451.5,27.2,450.2,27,449.2,26.8z M454.9,22.8c0-1.8-0.8-2.3-1.7-2.3c-0.4,0-0.9,0.1-1.2,0.3v4.3c0.3,0.1,0.7,0.1,1,0.1
		C454.3,25.3,454.9,24.3,454.9,22.8z"/>
	<path d="M458.8,23c0-2.7,1.5-4.5,4.4-4.5c2.8,0,4.4,1.6,4.4,4.2c0,2.8-1.6,4.5-4.5,4.5C460.3,27.2,458.8,25.7,458.8,23z
		 M464.8,22.9c0-1.7-0.5-2.5-1.6-2.5c-1,0-1.6,0.7-1.6,2.5c0,1.9,0.5,2.5,1.6,2.5S464.8,24.7,464.8,22.9z"/>
	<path d="M468.8,26.7l-0.1-2.2h2.4l0.1,0.8c0.3,0.1,0.7,0.1,1,0.1c0.7,0,1.3-0.2,1.3-0.7c0-0.5-0.6-0.7-1.3-0.9l-0.9-0.2
		c-1.8-0.5-2.5-1.1-2.5-2.4c0-1.4,0.8-2.7,4-2.7c0.6,0,2.2,0.1,3.1,0.6l0,2h-2.2l-0.1-0.8c-0.4-0.1-0.7-0.1-1-0.1
		c-0.7,0-1.2,0.2-1.2,0.6c0,0.5,0.7,0.6,1.5,0.8l0.8,0.2c2,0.5,2.6,1.6,2.6,2.5c0,1.7-1.5,2.8-3.9,2.8
		C470.9,27.2,469.9,27,468.8,26.7z"/>
	<path d="M481.8,28.6h1.2v-2.1c-0.6,0.4-1.4,0.7-2.3,0.7c-2.5,0-3.5-1.9-3.5-4c0-2.7,1.5-4.6,4.2-4.6c0.7,0,1.6,0.1,2.1,0.4
		c0,0,0.3-0.3,0.3-0.3h1.9v9.9l0.8,0.1v1.7h-4.8V28.6z M483.1,24.9v-4.4c-0.2-0.1-0.6-0.2-1-0.2c-1.3,0-2,1-2,2.4
		c0,1.8,0.6,2.5,1.8,2.5C482.3,25.2,482.8,25.1,483.1,24.9z"/>
	<path d="M488,24.7v-4.2h-0.8v-1.7l3.3-0.1l0.2,0.1l0,5.4c0,1.1,0.8,1.2,1.2,1.2c0.6,0,1.1-0.3,1.3-0.4v-4.5h-0.9v-1.7l3.4-0.1
		l0.2,0.1l0,6.5l0.8,0V27l-3.1,0.1l-0.2-0.1l-0.1-0.9c-1,0.7-1.9,1.2-2.9,1.2C488.7,27.2,488,26,488,24.7z"/>
	<path d="M497.8,22.9c0-2.5,1.6-4.4,4.2-4.4c2.6,0,3.9,1.9,3.9,4v0.8h-5.2c0,1.3,1,1.8,2.1,1.8s1.8-0.2,2.5-0.3l0.4,1.8
		c-0.9,0.3-2.3,0.6-3.3,0.6C499.2,27.2,497.8,25.7,497.8,22.9z M503.4,22c0-1.1-0.4-1.8-1.3-1.8c-0.8,0-1.3,0.6-1.4,1.8L503.4,22z"
		/>
	<path d="M507.1,26.7l-0.1-2.2h2.4l0.1,0.8c0.3,0.1,0.7,0.1,1,0.1c0.7,0,1.3-0.2,1.3-0.7c0-0.5-0.6-0.7-1.3-0.9l-0.9-0.2
		c-1.8-0.5-2.5-1.1-2.5-2.4c0-1.4,0.8-2.7,4-2.7c0.6,0,2.2,0.1,3.1,0.6l0,2H512l-0.1-0.8c-0.4-0.1-0.7-0.1-1-0.1
		c-0.7,0-1.2,0.2-1.2,0.6c0,0.5,0.7,0.6,1.5,0.8l0.8,0.2c2,0.5,2.6,1.6,2.6,2.5c0,1.7-1.5,2.8-3.9,2.8
		C509.3,27.2,508.3,27,507.1,26.7z"/>
	<path d="M519.2,25.3l0.8-0.1v-4.8l-0.8,0v-1.7l3.1-0.1l0.2,0.1l0.1,1c1-0.7,1.9-1.2,2.9-1.2c1.9,0,2.6,1.2,2.6,2.5v4.2h0.8V27h-4.3
		v-1.7l0.8-0.1v-3.6c0-1.1-0.8-1.2-1.2-1.2c-0.6,0-1.1,0.2-1.4,0.4v4.5h0.9V27h-4.4V25.3z"/>
	<path d="M529.9,24.8c0-2.2,2.6-2.6,5-2.7v-0.5c0-0.7-0.4-1-1.3-1c-0.9,0-1.9,0.2-2.7,0.5l-0.5-1.9c0.9-0.4,2.2-0.6,3.9-0.6
		c1.8,0,3.4,0.7,3.4,3v2.5l0.1,1.2h0.8v1.5l-2.7,0.2h-0.5l-0.1-1.2c-0.5,0.7-1.7,1.2-2.7,1.2C530.7,27.2,529.9,26.2,529.9,24.8z
		 M534.9,24.9v-1.6c-1.4,0-2.2,0.4-2.2,1.2c0,0.7,0.5,0.9,1,0.9C534.2,25.4,534.6,25.2,534.9,24.9z"/>
	<path d="M540.3,24.3v-3.8h-1.1v-1.7l1.1-0.2l0.9-1.9h1.8v2h2v1.8h-2v3.6c0,0.8,0.5,1,1.1,1c0.2,0,0.7,0,0.9-0.1l0.2,1.9
		c-0.6,0.2-1.4,0.3-2.1,0.3C541.1,27.2,540.3,26,540.3,24.3z"/>
	<path d="M546.2,25.3l0.8-0.1v-4.8l-0.8,0v-1.7l3.3-0.1l0.2,0.2v6.5h0.9V27h-4.4V25.3z M546.9,16.4c0-1,0.4-1.5,1.4-1.5
		c1.2,0,1.5,0.7,1.5,1.5c0,0.8-0.3,1.4-1.5,1.4C547.2,17.9,546.9,17.2,546.9,16.4z"/>
	<path d="M552,20.5l-0.9-0.1v-1.7h4.6v1.7h-0.9l1.4,3.5l0.2,0.5h0l0.2-0.5l1.4-3.5h-0.9v-1.7h4.2v1.7l-0.9,0.1l-2.9,6.5h-2.6
		L552,20.5z"/>
	<path d="M561.8,23c0-2.7,1.5-4.5,4.4-4.5c2.8,0,4.4,1.6,4.4,4.2c0,2.8-1.6,4.5-4.5,4.5C563.3,27.2,561.8,25.7,561.8,23z
		 M567.8,22.9c0-1.7-0.5-2.5-1.6-2.5c-1,0-1.6,0.7-1.6,2.5c0,1.9,0.5,2.5,1.6,2.5S567.8,24.7,567.8,22.9z"/>
	<path d="M571.8,26.7l-0.1-2.2h2.4l0.1,0.8c0.3,0.1,0.7,0.1,1,0.1c0.7,0,1.3-0.2,1.3-0.7c0-0.5-0.6-0.7-1.3-0.9l-0.9-0.2
		c-1.8-0.5-2.5-1.1-2.5-2.4c0-1.4,0.8-2.7,4-2.7c0.6,0,2.2,0.1,3.1,0.6l0,2h-2.2l-0.1-0.8c-0.4-0.1-0.7-0.1-1-0.1
		c-0.7,0-1.2,0.2-1.2,0.6c0,0.5,0.7,0.6,1.5,0.8l0.8,0.2c2,0.5,2.6,1.6,2.6,2.5c0,1.7-1.5,2.8-3.9,2.8
		C573.9,27.2,572.9,27,571.8,26.7z"/>
</g>
<circle cx="183.8" cy="47.9" r="3.4"/>
<circle class="st3" cx="183.8" cy="65" r="3.4"/>
<g>
	<path d="M194.2,50.6l1-0.1v-7.8h-1.1V42h2.8l3,8h0l3.1-8h2.7v0.8h-1.1v7.9h1.1v0.8h-3.3v-0.8l1-0.1v-7.1l0-0.4h0l-3.2,8.4h-1
		l-3.2-8.4h0l0,0.4v7.2h1.1v0.8h-3.2V50.6z"/>
	<path d="M207,48.2c0-2.1,1-3.6,3.2-3.6c2.1,0,3.2,1.3,3.2,3.4c0,2.2-1.1,3.6-3.3,3.6C208.1,51.5,207,50.2,207,48.2z M212.3,48.1
		c0-1.7-0.6-2.8-2.2-2.8c-1.5,0-2.1,1.2-2.1,2.7c0,1.6,0.6,2.7,2.1,2.7C211.8,50.8,212.3,49.7,212.3,48.1z"/>
	<path d="M214.7,50.7l0.8-0.1v-5.1l-0.9-0.1v-0.8l1.7-0.1l0.1,0.1l0.1,0.7c0.6-0.5,1.5-0.8,2.3-0.8c1.5,0,2.2,0.9,2.2,2.2v3.9h0.9
		v0.7h-2.8v-0.7l0.8-0.1V47c0-1.3-0.9-1.6-1.6-1.6c-0.8,0-1.4,0.4-1.8,0.6v4.7h0.9v0.7h-2.8V50.7z"/>
	<path d="M223.7,49.6v-4.2h-1v-0.7l1-0.1l0.3-1.5h0.8v1.5h2.1v0.7h-2.1v4.1c0,0.8,0.4,1.1,1.1,1.1c0.2,0,0.7-0.1,1-0.1l0.1,0.8
		c-0.4,0.1-0.9,0.2-1.3,0.2C224.4,51.5,223.7,50.9,223.7,49.6z"/>
	<path d="M227.9,48.2c0-2.1,1-3.6,3.2-3.6c2.1,0,3.2,1.3,3.2,3.4c0,2.2-1.1,3.6-3.3,3.6C229,51.5,227.9,50.2,227.9,48.2z
		 M233.3,48.1c0-1.7-0.6-2.8-2.2-2.8c-1.5,0-2.1,1.2-2.1,2.7c0,1.6,0.6,2.7,2.1,2.7C232.7,50.8,233.3,49.7,233.3,48.1z"/>
	<path d="M242.2,53.4h1.3v-2.6c-0.5,0.4-1.2,0.7-2.1,0.7c-2.1,0-3-1.3-3-3.3c0-2.2,1.3-3.7,3.4-3.7c0.7,0,1.4,0.1,1.9,0.3
		c0,0,0.2-0.4,0.2-0.4h0.7v8.9l0.7,0.1v0.8h-3.1V53.4z M243.5,50.1v-4.5c-0.3-0.1-0.8-0.2-1.6-0.2c-1.5,0-2.4,1.1-2.4,2.7
		c0,1.6,0.5,2.7,2.2,2.7C242.5,50.7,243.2,50.3,243.5,50.1z"/>
	<path d="M246.9,49.3l0-3.9H246v-0.7l1.8-0.1l0.1,0.1l0,4.5c0,1.3,0.9,1.6,1.6,1.6c0.8,0,1.4-0.4,1.8-0.6l0-4.7h-0.9v-0.7l1.9-0.1
		l0.1,0.1l0,5.9l0.9,0.1v0.7l-1.7,0.1l-0.1-0.1l-0.1-0.6c-0.6,0.5-1.5,0.8-2.3,0.8C247.7,51.6,246.9,50.6,246.9,49.3z"/>
	<path d="M254.3,48.1c0-2,1.2-3.5,3.2-3.5c1.8,0,2.8,1.3,2.8,2.8V48h-4.8c0,1.5,0.8,2.7,2.5,2.7c0.7,0,1.3-0.1,2-0.3l0.2,0.8
		c-0.7,0.2-1.6,0.4-2.3,0.4C255.5,51.5,254.3,50.1,254.3,48.1z M259.3,47.3c0-1.2-0.7-2-1.8-2c-0.9,0-1.9,0.7-2,2.1L259.3,47.3z"/>
	<path d="M264.3,48.2c0-2,1.2-3.6,3.4-3.6c0.6,0,1.2,0.1,1.7,0.3v-2.6l-1.1-0.1v-0.8l2-0.1l0.1,0.1v9.3h1v0.7l-1.8,0.1l-0.1-0.1
		l-0.1-0.7c-0.5,0.4-1.3,0.8-2.1,0.8C265.1,51.5,264.3,50.1,264.3,48.2z M269.4,50.1v-4.5c-0.3-0.1-0.9-0.3-1.6-0.3
		c-1.5,0-2.4,1.2-2.4,2.7c0,1.4,0.4,2.7,2.2,2.7C268.4,50.7,269,50.4,269.4,50.1z"/>
	<path d="M272.5,48.1c0-2,1.2-3.5,3.2-3.5c1.8,0,2.8,1.3,2.8,2.8V48h-4.8c0,1.5,0.8,2.7,2.5,2.7c0.7,0,1.3-0.1,2-0.3l0.2,0.8
		c-0.7,0.2-1.6,0.4-2.3,0.4C273.6,51.5,272.5,50.1,272.5,48.1z M277.4,47.3c0-1.2-0.7-2-1.8-2c-0.9,0-1.9,0.7-2,2.1L277.4,47.3z"/>
	<path d="M280.3,51.2v-9h-1v-0.8l2-0.1l0.1,0.1v3.7c0.5-0.3,1.2-0.6,2.1-0.6c2,0,3,1.3,3,3.3c0,2.3-1.5,3.7-3.5,3.7
		C282.1,51.5,281.1,51.5,280.3,51.2z M285.3,47.9c0-1.5-0.6-2.6-2.1-2.6c-0.8,0-1.4,0.2-1.8,0.5v4.7c0.4,0.1,0.9,0.2,1.5,0.2
		C284.5,50.7,285.3,49.4,285.3,47.9z"/>
	<path d="M287.6,48.1c0-2,1.2-3.5,3.2-3.5c1.8,0,2.8,1.3,2.8,2.8V48h-4.8c0,1.5,0.8,2.7,2.5,2.7c0.7,0,1.3-0.1,2-0.3l0.2,0.8
		c-0.7,0.2-1.6,0.4-2.3,0.4C288.7,51.5,287.6,50.1,287.6,48.1z M292.5,47.3c0-1.2-0.7-2-1.8-2c-0.9,0-1.9,0.7-2,2.1L292.5,47.3z"/>
	<path d="M294.7,50.7l0.8-0.1v-5.1l-0.9-0.1v-0.8l1.7-0.1l0.1,0.1l0.1,0.8c0.6-0.5,1.7-0.9,2.6-0.9c0.3,0,0.5,0,0.7,0v1.6h-1v-0.8
		c-0.8,0-1.6,0.3-2.3,0.8v4.5h1.2v0.7h-3.1V50.7z"/>
	<path d="M300.8,50.7l0.8-0.1v-5.1l-0.9-0.1v-0.7l1.9-0.1l0.1,0.1v5.9h0.9v0.7h-2.8V50.7z M301.5,43.6l1.3-2l1.1,0.3l-1.6,1.8
		L301.5,43.6z"/>
	<path d="M304.8,49.7c0-1.6,1.6-2.3,4.3-2.3v-0.8c0-0.8-0.4-1.3-1.4-1.3c-0.9,0-1.8,0.2-2.3,0.5l-0.3-0.8c0.6-0.2,1.5-0.5,2.7-0.5
		c1.5,0,2.3,0.7,2.3,2v3.3l0.1,0.7h1v0.7l-1.5,0.1h-0.3l-0.1-0.8c-0.6,0.6-1.6,0.9-2.4,0.9C305.4,51.5,304.8,50.7,304.8,49.7z
		 M309.1,50.1v-2c-2.5-0.1-3.2,0.7-3.2,1.5c0,0.7,0.5,1.2,1.3,1.2C308.1,50.8,308.7,50.4,309.1,50.1z"/>
	<path d="M315.1,50.7l0.8-0.1v-8.4h-1v-0.8l2-0.1l0.1,0.1v4c0.6-0.5,1.4-0.8,2.2-0.8c1.5,0,2.2,0.9,2.2,2.2v3.9h0.9v0.7h-2.8v-0.7
		l0.8-0.1V47c0-1.3-0.9-1.6-1.6-1.6c-0.8,0-1.4,0.4-1.8,0.6v4.7h0.9v0.7h-2.8V50.7z"/>
	<path d="M323.4,49.7c0-1.6,1.6-2.3,4.3-2.3v-0.8c0-0.8-0.4-1.3-1.4-1.3c-0.9,0-1.8,0.2-2.3,0.5l-0.3-0.8c0.6-0.2,1.5-0.5,2.7-0.5
		c1.5,0,2.3,0.7,2.3,2v3.3l0.1,0.7h1v0.7l-1.5,0.1H328l-0.1-0.8c-0.6,0.6-1.6,0.9-2.4,0.9C324.1,51.5,323.4,50.7,323.4,49.7z
		 M327.7,50.1v-2c-2.5-0.1-3.2,0.7-3.2,1.5c0,0.7,0.5,1.2,1.3,1.2C326.7,50.8,327.4,50.4,327.7,50.1z"/>
	<path d="M331.5,51.2v-9h-1v-0.8l2-0.1l0.1,0.1v3.7c0.5-0.3,1.2-0.6,2.1-0.6c2,0,3,1.3,3,3.3c0,2.3-1.5,3.7-3.5,3.7
		C333.3,51.5,332.4,51.5,331.5,51.2z M336.5,47.9c0-1.5-0.6-2.6-2.1-2.6c-0.8,0-1.4,0.2-1.8,0.5v4.7c0.4,0.1,0.9,0.2,1.5,0.2
		C335.8,50.7,336.5,49.4,336.5,47.9z"/>
	<path d="M338.8,48.1c0-2,1.2-3.5,3.2-3.5c1.8,0,2.8,1.3,2.8,2.8V48h-4.8c0,1.5,0.8,2.7,2.5,2.7c0.7,0,1.3-0.1,2-0.3l0.2,0.8
		c-0.7,0.2-1.6,0.4-2.3,0.4C340,51.5,338.8,50.1,338.8,48.1z M343.8,47.3c0-1.2-0.7-2-1.8-2c-0.9,0-1.9,0.7-2,2.1L343.8,47.3z"/>
	<path d="M345.9,50.7l0.8-0.1v-5.1l-0.9-0.1v-0.8l1.7-0.1l0.1,0.1l0.1,0.8c0.6-0.5,1.7-0.9,2.6-0.9c0.3,0,0.5,0,0.7,0v1.6h-1v-0.8
		c-0.8,0-1.6,0.3-2.3,0.8v4.5h1.2v0.7h-3.1V50.7z"/>
	<path d="M355,50.7l0.8-0.1v-5.1l-0.9-0.1v-0.8l1.7-0.1l0.1,0.1l0.1,0.8c0.6-0.5,1.7-0.9,2.6-0.9c0.3,0,0.5,0,0.7,0v1.6h-1v-0.8
		c-0.8,0-1.6,0.3-2.3,0.8v4.5h1.2v0.7H355V50.7z"/>
	<path d="M361.1,48.1c0-2,1.2-3.5,3.2-3.5c1.8,0,2.8,1.3,2.8,2.8V48h-4.8c0,1.5,0.8,2.7,2.5,2.7c0.7,0,1.3-0.1,2-0.3l0.2,0.8
		c-0.7,0.2-1.6,0.4-2.3,0.4C362.2,51.5,361.1,50.1,361.1,48.1z M366,47.3c0-1.2-0.7-2-1.8-2c-0.9,0-1.9,0.7-2,2.1L366,47.3z"/>
	<path d="M368.1,48.1c0-2.2,1.3-3.5,3.5-3.5c0.6,0,1.5,0.1,2,0.3l0.1,1.7h-0.8l-0.1-1c-0.4-0.1-0.8-0.1-1.2-0.1
		c-1.6,0-2.4,1.1-2.4,2.7c0,1.7,1,2.7,2.5,2.7c0.7,0,1.3-0.1,1.9-0.3l0.2,0.8c-0.7,0.2-1.4,0.4-2.1,0.4
		C369.6,51.6,368.1,50.5,368.1,48.1z"/>
	<path d="M375,50.7l0.8-0.1v-5.1l-0.9-0.1v-0.7l1.9-0.1l0.1,0.1v5.9h0.9v0.7H375V50.7z M375.6,42.7c0-0.4,0.2-0.8,0.7-0.8
		c0.5,0,0.7,0.3,0.7,0.8c0,0.4-0.2,0.7-0.7,0.7C375.8,43.4,375.6,43.1,375.6,42.7z"/>
	<path d="M379.6,51.2v-9h-1v-0.8l2-0.1l0.1,0.1v3.7c0.5-0.3,1.2-0.6,2.1-0.6c2,0,3,1.3,3,3.3c0,2.3-1.5,3.7-3.5,3.7
		C381.4,51.5,380.4,51.5,379.6,51.2z M384.6,47.9c0-1.5-0.6-2.6-2.1-2.6c-0.8,0-1.4,0.2-1.8,0.5v4.7c0.4,0.1,0.9,0.2,1.5,0.2
		C383.8,50.7,384.6,49.4,384.6,47.9z"/>
	<path d="M386.9,50.7l0.8-0.1v-5.1l-0.9-0.1v-0.7l1.9-0.1l0.1,0.1v5.9h0.9v0.7h-2.8V50.7z M387.5,42.7c0-0.4,0.2-0.8,0.7-0.8
		c0.5,0,0.7,0.3,0.7,0.8c0,0.4-0.2,0.7-0.7,0.7C387.7,43.4,387.5,43.1,387.5,42.7z"/>
	<path d="M390.8,48.2c0-2,1.2-3.6,3.4-3.6c0.6,0,1.2,0.1,1.7,0.3v-2.6l-1.1-0.1v-0.8l2-0.1l0.1,0.1v9.3h1v0.7l-1.8,0.1l-0.1-0.1
		l-0.1-0.7c-0.5,0.4-1.3,0.8-2.1,0.8C391.6,51.5,390.8,50.1,390.8,48.2z M395.9,50.1v-4.5c-0.3-0.1-0.9-0.3-1.6-0.3
		c-1.5,0-2.4,1.2-2.4,2.7c0,1.4,0.4,2.7,2.2,2.7C394.9,50.7,395.5,50.4,395.9,50.1z"/>
	<path d="M399,48.2c0-2.1,1-3.6,3.2-3.6c2.1,0,3.2,1.3,3.2,3.4c0,2.2-1.1,3.6-3.3,3.6C400.1,51.5,399,50.2,399,48.2z M404.4,48.1
		c0-1.7-0.6-2.8-2.2-2.8c-1.5,0-2.1,1.2-2.1,2.7c0,1.6,0.6,2.7,2.1,2.7C403.8,50.8,404.4,49.7,404.4,48.1z"/>
	<path d="M409.5,48.1c0-2,1.2-3.5,3.2-3.5c1.8,0,2.8,1.3,2.8,2.8V48h-4.8c0,1.5,0.8,2.7,2.5,2.7c0.7,0,1.3-0.1,2-0.3l0.2,0.8
		c-0.7,0.2-1.6,0.4-2.3,0.4C410.7,51.5,409.5,50.1,409.5,48.1z M414.5,47.3c0-1.2-0.7-2-1.8-2c-0.9,0-1.9,0.7-2,2.1L414.5,47.3z"/>
	<path d="M416.6,50.7l0.8-0.1v-8.4h-1v-0.8l2-0.1l0.1,0.1v9.2h0.9v0.7h-2.8V50.7z"/>
	<path d="M423.4,50.6l1-0.1v-7.8h-1.1V42h7.1v2.1h-0.8l-0.1-1.3h-3.9V46h3l0.1-0.8h0.8v2.4h-0.8l-0.1-0.8h-3v3.8h1.6v0.8h-3.8V50.6z
		"/>
	<path d="M434,44.1c0,0-0.5-0.8-0.5-0.8l0,0c0,0.1,0,1.6,0,1.6v5.7h1.1v0.8h-3.1v-0.8l1-0.1v-7.8h-1.1V42h2.4l4.6,6.8l0.5,0.8h0
		c0,0,0-1.6,0-1.6v-5.2h-1.1V42h3.1v0.8h-1v8.7h-1L434,44.1z"/>
	<path d="M441.9,50.6l1-0.1v-7.8h-1.1V42h7.1v2.2h-0.8l-0.1-1.4h-3.9V46h3l0.1-0.8h0.8v2.4h-0.8l-0.1-0.8h-3v3.7h4.1l0.2-1.5h0.9
		l-0.1,2.3h-7.2V50.6z"/>
	<path d="M450.3,46.8c0-3,1.5-5,4.8-5c0.9,0,1.9,0.1,2.8,0.3v2H457l-0.1-1.3c-0.5-0.1-1.1-0.2-1.7-0.2c-2.7,0-3.6,1.7-3.6,3.9
		c0,3,1.1,4.1,3.6,4.1c0.5,0,1.2-0.1,1.7-0.2l0.2-1.4h0.9l-0.1,2c-0.9,0.2-1.7,0.4-2.8,0.4C451.8,51.5,450.3,49.9,450.3,46.8z"/>
	<path d="M459.1,50.6l1-0.1v-7.8H459V42h4.1c1.6,0,3.2,0.5,3.2,2.4c0,1-0.7,2-1.8,2.2v0c1.2,0.2,2,1.1,2,2.1c0,2-1.4,2.7-3.3,2.7
		h-4.2V50.6z M463.4,46.1c1.3,0,1.8-0.7,1.8-1.8c0-1.2-0.9-1.6-2.1-1.6h-1.8v3.3H463.4z M463.1,50.6c1.2,0,2.2-0.4,2.2-1.9
		c0-1.2-0.8-1.8-2.1-1.8h-2v3.7H463.1z"/>
	<path d="M470.3,44.1c0,0-0.5-0.8-0.5-0.8l0,0c0,0.1,0,1.6,0,1.6v5.7h1.1v0.8h-3.1v-0.8l1-0.1v-7.8h-1.1V42h2.4l4.6,6.8l0.5,0.8h0
		c0,0,0-1.6,0-1.6v-5.2h-1.1V42h3.1v0.8h-1v8.7h-1L470.3,44.1z"/>
	<path d="M478.6,45.2l1-1.3l-1.4-0.7l0.4-0.6l1.3,0.7l0-1.4h0.8l0,1.4l1.3-0.7l0.4,0.6l-1.4,0.7l0.9,1.3l-0.7,0.4l-1-1.4l-1,1.4
		L478.6,45.2z"/>
</g>
<g>
	<path d="M194.2,68.3l1-0.1v-7.8h-1.1v-0.8h2.8l3,8h0l3.1-8h2.7v0.8h-1.1v7.9h1.1V69h-3.3v-0.8l1-0.1v-7.1l0-0.4h0l-3.2,8.4h-1
		l-3.2-8.4h0l0,0.4v7.2h1.1V69h-3.2V68.3z"/>
	<path d="M207,65.8c0-2.1,1-3.6,3.2-3.6c2.1,0,3.2,1.3,3.2,3.4c0,2.2-1.1,3.6-3.3,3.6C208.1,69.2,207,67.9,207,65.8z M212.3,65.7
		c0-1.7-0.6-2.8-2.2-2.8c-1.5,0-2.1,1.2-2.1,2.7c0,1.6,0.6,2.7,2.1,2.7C211.8,68.4,212.3,67.4,212.3,65.7z"/>
	<path d="M214.7,68.3l0.8-0.1v-5.1l-0.9-0.1v-0.8l1.7-0.1l0.1,0.1l0.1,0.7c0.6-0.5,1.5-0.8,2.3-0.8c1.5,0,2.2,0.9,2.2,2.2v3.9h0.9
		V69h-2.8v-0.7l0.8-0.1v-3.6c0-1.3-0.9-1.6-1.6-1.6c-0.8,0-1.4,0.4-1.8,0.6v4.7h0.9V69h-2.8V68.3z"/>
	<path d="M223.7,67.3v-4.2h-1v-0.7l1-0.1l0.3-1.5h0.8v1.5h2.1v0.7h-2.1v4.1c0,0.8,0.4,1.1,1.1,1.1c0.2,0,0.7-0.1,1-0.1L227,69
		c-0.4,0.1-0.9,0.2-1.3,0.2C224.4,69.2,223.7,68.5,223.7,67.3z"/>
	<path d="M227.9,65.8c0-2.1,1-3.6,3.2-3.6c2.1,0,3.2,1.3,3.2,3.4c0,2.2-1.1,3.6-3.3,3.6C229,69.2,227.9,67.9,227.9,65.8z
		 M233.3,65.7c0-1.7-0.6-2.8-2.2-2.8c-1.5,0-2.1,1.2-2.1,2.7c0,1.6,0.6,2.7,2.1,2.7C232.7,68.4,233.3,67.4,233.3,65.7z"/>
	<path d="M238.4,65.7c0-2,1.2-3.5,3.2-3.5c1.8,0,2.8,1.3,2.8,2.8v0.6h-4.8c0,1.5,0.8,2.7,2.5,2.7c0.7,0,1.3-0.1,2-0.3l0.2,0.8
		c-0.7,0.2-1.6,0.4-2.3,0.4C239.6,69.2,238.4,67.8,238.4,65.7z M243.4,64.9c0-1.2-0.7-2-1.8-2c-0.9,0-1.9,0.7-2,2.1L243.4,64.9z"/>
	<path d="M245.6,68.3l0.8-0.1v-5.2h-0.9v-0.7h0.9v-0.5c0-1.8,0.7-2.9,2.6-2.9c0.5,0,0.9,0.1,1.2,0.2l-0.2,0.8
		c-0.2-0.1-0.6-0.1-0.9-0.1c-1.2,0-1.6,0.7-1.6,2v0.6h1.7v0.7h-1.7v5.2h1.3V69h-3.2V68.3z"/>
	<path d="M250.2,65.7c0-2,1.2-3.5,3.2-3.5c1.8,0,2.8,1.3,2.8,2.8v0.6h-4.8c0,1.5,0.8,2.7,2.5,2.7c0.7,0,1.3-0.1,2-0.3l0.2,0.8
		c-0.7,0.2-1.6,0.4-2.3,0.4C251.4,69.2,250.2,67.8,250.2,65.7z M255.2,64.9c0-1.2-0.7-2-1.8-2c-0.9,0-1.9,0.7-2,2.1L255.2,64.9z"/>
	<path d="M257.3,65.7c0-2.2,1.3-3.5,3.5-3.5c0.6,0,1.5,0.1,2,0.3l0.1,1.7h-0.8l-0.1-1c-0.4-0.1-0.8-0.1-1.2-0.1
		c-1.6,0-2.4,1.1-2.4,2.7c0,1.7,1,2.7,2.5,2.7c0.7,0,1.3-0.1,1.9-0.3l0.2,0.8c-0.7,0.2-1.4,0.4-2.1,0.4
		C258.7,69.2,257.3,68.1,257.3,65.7z"/>
	<path d="M264.9,67.3v-4.2h-1v-0.7l1-0.1l0.3-1.5h0.8v1.5h2.1v0.7H266v4.1c0,0.8,0.4,1.1,1.1,1.1c0.2,0,0.7-0.1,1-0.1l0.1,0.8
		c-0.4,0.1-0.9,0.2-1.3,0.2C265.6,69.2,264.9,68.5,264.9,67.3z"/>
	<path d="M269.1,68.3l0.8-0.1v-5.1l-0.9-0.1v-0.7l1.9-0.1l0.1,0.1v5.9h0.9V69h-2.8V68.3z M269.8,60.3c0-0.4,0.2-0.8,0.7-0.8
		c0.5,0,0.7,0.3,0.7,0.8c0,0.4-0.2,0.7-0.7,0.7C270,61.1,269.8,60.7,269.8,60.3z"/>
	<path d="M273.1,63.1l-0.7-0.1v-0.7h2.6V63h-0.8l1.8,4.4l0.1,0.4h0l0.1-0.4L278,63h-0.8v-0.7h2.5V63l-0.7,0.1l-2.5,6h-0.8
		L273.1,63.1z"/>
	<path d="M280.3,67.3c0-1.6,1.6-2.3,4.3-2.3v-0.8c0-0.8-0.4-1.3-1.4-1.3c-0.9,0-1.8,0.2-2.3,0.5l-0.3-0.8c0.6-0.2,1.5-0.5,2.7-0.5
		c1.5,0,2.3,0.7,2.3,2v3.3l0.1,0.7h1V69l-1.5,0.1h-0.3l-0.1-0.8c-0.6,0.6-1.6,0.9-2.4,0.9C280.9,69.2,280.3,68.3,280.3,67.3z
		 M284.6,67.7v-2c-2.5-0.1-3.2,0.7-3.2,1.5c0,0.7,0.5,1.2,1.3,1.2C283.6,68.4,284.2,68,284.6,67.7z"/>
	<path d="M287.7,68.3l0.8-0.1v-5.1l-0.9-0.1v-0.8l1.7-0.1l0.1,0.1l0.1,0.7c0.6-0.5,1.5-0.8,2.3-0.8c1,0,1.6,0.4,1.9,1
		c0.8-0.7,1.7-1,2.5-1c1.5,0,2.2,0.9,2.2,2.2v3.9h0.9V69h-2.8v-0.7l0.8-0.1v-3.6c0-1.3-0.9-1.6-1.6-1.6c-0.7,0-1.4,0.3-1.9,0.7
		c0.1,0.2,0.1,0.5,0.1,0.8v3.8h0.9V69h-2.8v-0.7l0.8-0.1v-3.7c0-1.2-0.9-1.5-1.6-1.5c-0.8,0-1.4,0.4-1.8,0.6v4.7h0.9V69h-2.8V68.3z"
		/>
	<path d="M300.4,65.7c0-2,1.2-3.5,3.2-3.5c1.8,0,2.8,1.3,2.8,2.8v0.6h-4.8c0,1.5,0.8,2.7,2.5,2.7c0.7,0,1.3-0.1,2-0.3l0.2,0.8
		c-0.7,0.2-1.6,0.4-2.3,0.4C301.6,69.2,300.4,67.8,300.4,65.7z M305.4,64.9c0-1.2-0.7-2-1.8-2c-0.9,0-1.9,0.7-2,2.1L305.4,64.9z"/>
	<path d="M307.6,68.3l0.8-0.1v-5.1l-0.9-0.1v-0.8l1.7-0.1l0.1,0.1l0.1,0.7c0.6-0.5,1.5-0.8,2.3-0.8c1.5,0,2.2,0.9,2.2,2.2v3.9h0.9
		V69H312v-0.7l0.8-0.1v-3.6c0-1.3-0.9-1.6-1.6-1.6c-0.8,0-1.4,0.4-1.8,0.6v4.7h0.9V69h-2.8V68.3z"/>
	<path d="M316.6,67.3v-4.2h-1v-0.7l1-0.1l0.3-1.5h0.8v1.5h2.1v0.7h-2.1v4.1c0,0.8,0.4,1.1,1.1,1.1c0.2,0,0.7-0.1,1-0.1l0.1,0.8
		c-0.4,0.1-0.9,0.2-1.3,0.2C317.4,69.2,316.6,68.5,316.6,67.3z"/>
	<path d="M320.8,65.7c0-2,1.2-3.5,3.2-3.5c1.8,0,2.8,1.3,2.8,2.8v0.6h-4.8c0,1.5,0.8,2.7,2.5,2.7c0.7,0,1.3-0.1,2-0.3l0.2,0.8
		c-0.7,0.2-1.6,0.4-2.3,0.4C322,69.2,320.8,67.8,320.8,65.7z M325.8,64.9c0-1.2-0.7-2-1.8-2c-0.9,0-1.9,0.7-2,2.1L325.8,64.9z"/>
	<path d="M330.8,67.3c0-1.6,1.6-2.3,4.3-2.3v-0.8c0-0.8-0.4-1.3-1.4-1.3c-0.9,0-1.8,0.2-2.3,0.5l-0.3-0.8c0.6-0.2,1.5-0.5,2.7-0.5
		c1.5,0,2.3,0.7,2.3,2v3.3l0.1,0.7h1V69l-1.5,0.1h-0.3l-0.1-0.8c-0.6,0.6-1.6,0.9-2.4,0.9C331.5,69.2,330.8,68.3,330.8,67.3z
		 M335.2,67.7v-2c-2.5-0.1-3.2,0.7-3.2,1.5c0,0.7,0.5,1.2,1.3,1.2C334.1,68.4,334.8,68,335.2,67.7z"/>
	<path d="M338.4,68.9l-0.1-1.6h0.9l0.1,1c0.4,0.1,0.8,0.2,1.2,0.2c0.8,0,1.7-0.3,1.7-1.1c0-0.7-0.5-1-1.4-1.3l-0.7-0.2
		c-1-0.3-1.8-0.7-1.8-1.8c0-0.9,0.7-1.8,2.5-1.8c0.6,0,1.5,0.1,2,0.3l0,1.5h-0.9l-0.1-0.9c-0.5-0.1-0.7-0.2-1.2-0.2
		c-0.8,0-1.4,0.3-1.4,1c0,0.7,0.7,0.9,1.4,1.1l0.5,0.2c1.2,0.4,1.9,1,1.9,2c0,1.4-1.4,2-2.8,2C339.7,69.2,339,69.1,338.4,68.9z"/>
	<path d="M344.5,68.3l0.8-0.1v-5.1l-0.9-0.1v-0.7l1.9-0.1l0.1,0.1v5.9h0.9V69h-2.8V68.3z M345.1,60.3c0-0.4,0.2-0.8,0.7-0.8
		c0.5,0,0.7,0.3,0.7,0.8c0,0.4-0.2,0.7-0.7,0.7C345.3,61.1,345.1,60.7,345.1,60.3z"/>
	<path d="M348.2,70.2c0-0.6,0.5-1.3,1.3-1.6c-0.2-0.1-0.5-0.4-0.5-0.9c0-0.4,0.3-0.9,0.8-1.2c-0.9-0.4-1.2-1.2-1.2-2
		c0-1.4,1.1-2.4,2.7-2.4c0.8,0,1.2,0.1,1.6,0.3l2-0.2l-0.1,0.9l-1.2-0.1c0.3,0.3,0.5,0.9,0.5,1.4c0,1.2-0.9,2.3-2.6,2.3
		c-0.3,0-0.6,0-0.9-0.1c-0.4,0.2-0.5,0.4-0.5,0.7c0,0.3,0.2,0.5,0.7,0.5l2,0.1c1.2,0.1,2.1,0.5,2.1,1.5c0,1.5-1.6,2.4-3.5,2.4
		C349.1,71.9,348.2,71.2,348.2,70.2z M353.7,69.7c0-0.4-0.2-0.7-1.3-0.8l-1.7-0.1c-0.2,0-0.5,0-0.6-0.1c-0.6,0.3-0.9,0.8-0.9,1.2
		c0,0.7,0.4,1.3,2.1,1.3C352.8,71.2,353.7,70.6,353.7,69.7z M353.1,64.5c0-0.9-0.4-1.6-1.7-1.6c-1.3,0-1.7,0.8-1.7,1.6
		c0,0.8,0.4,1.6,1.7,1.6C352.6,66.1,353.1,65.3,353.1,64.5z"/>
	<path d="M355.8,68.3l0.8-0.1v-5.1l-0.9-0.1v-0.8l1.7-0.1l0.1,0.1l0.1,0.7c0.6-0.5,1.5-0.8,2.3-0.8c1.5,0,2.2,0.9,2.2,2.2v3.9h0.9
		V69h-2.8v-0.7l0.8-0.1v-3.6c0-1.3-0.9-1.6-1.6-1.6c-0.8,0-1.4,0.4-1.8,0.6v4.7h0.9V69h-2.8V68.3z"/>
	<path d="M364.1,67.3c0-1.6,1.6-2.3,4.3-2.3v-0.8c0-0.8-0.4-1.3-1.4-1.3c-0.9,0-1.8,0.2-2.3,0.5l-0.3-0.8c0.6-0.2,1.5-0.5,2.7-0.5
		c1.5,0,2.3,0.7,2.3,2v3.3l0.1,0.7h1V69l-1.5,0.1h-0.3l-0.1-0.8c-0.6,0.6-1.6,0.9-2.4,0.9C364.8,69.2,364.1,68.3,364.1,67.3z
		 M368.4,67.7v-2c-2.5-0.1-3.2,0.7-3.2,1.5c0,0.7,0.5,1.2,1.3,1.2C367.4,68.4,368.1,68,368.4,67.7z"/>
	<path d="M371.5,65.8c0-2,1.2-3.6,3.4-3.6c0.6,0,1.2,0.1,1.7,0.3v-2.6l-1.1-0.1v-0.8l2-0.1l0.1,0.1v9.3h1v0.7l-1.8,0.1l-0.1-0.1
		l-0.1-0.7c-0.5,0.4-1.3,0.8-2.1,0.8C372.3,69.2,371.5,67.8,371.5,65.8z M376.6,67.8v-4.5c-0.3-0.1-0.9-0.3-1.6-0.3
		c-1.5,0-2.4,1.2-2.4,2.7c0,1.4,0.4,2.7,2.2,2.7C375.7,68.4,376.3,68,376.6,67.8z"/>
	<path d="M379.7,65.8c0-2.1,1-3.6,3.2-3.6c2.1,0,3.2,1.3,3.2,3.4c0,2.2-1.1,3.6-3.3,3.6C380.9,69.2,379.7,67.9,379.7,65.8z
		 M385.1,65.7c0-1.7-0.6-2.8-2.2-2.8c-1.5,0-2.1,1.2-2.1,2.7c0,1.6,0.6,2.7,2.1,2.7C384.6,68.4,385.1,67.4,385.1,65.7z"/>
	<path d="M390.2,65.7c0-2,1.2-3.5,3.2-3.5c1.8,0,2.8,1.3,2.8,2.8v0.6h-4.8c0,1.5,0.8,2.7,2.5,2.7c0.7,0,1.3-0.1,2-0.3l0.2,0.8
		c-0.7,0.2-1.6,0.4-2.3,0.4C391.4,69.2,390.2,67.8,390.2,65.7z M395.2,64.9c0-1.2-0.7-2-1.8-2c-0.9,0-1.9,0.7-2,2.1L395.2,64.9z"/>
	<path d="M397.4,68.3l0.8-0.1v-5.1l-0.9-0.1v-0.8l1.7-0.1l0.1,0.1l0.1,0.7c0.6-0.5,1.5-0.8,2.3-0.8c1.5,0,2.2,0.9,2.2,2.2v3.9h0.9
		V69h-2.8v-0.7l0.8-0.1v-3.6c0-1.3-0.9-1.6-1.6-1.6c-0.8,0-1.4,0.4-1.8,0.6v4.7h0.9V69h-2.8V68.3z"/>
	<path d="M408.5,65.7c0-2,1.2-3.5,3.2-3.5c1.8,0,2.8,1.3,2.8,2.8v0.6h-4.8c0,1.5,0.8,2.7,2.5,2.7c0.7,0,1.3-0.1,2-0.3l0.2,0.8
		c-0.7,0.2-1.6,0.4-2.3,0.4C409.7,69.2,408.5,67.8,408.5,65.7z M413.5,64.9c0-1.2-0.7-2-1.8-2c-0.9,0-1.9,0.7-2,2.1L413.5,64.9z"/>
	<path d="M415.6,68.3l0.8-0.1v-8.4h-1v-0.8l2-0.1l0.1,0.1v9.2h0.9V69h-2.8V68.3z"/>
	<path d="M422.5,71.1l0.7-0.1v-7.9l-0.9-0.1v-0.8l1.7-0.1l0.1,0.1l0.1,0.5c0.5-0.4,1.4-0.7,2.2-0.7c2.2,0,3,1.5,3,3.3
		c0,2.1-1.1,3.7-3.4,3.7c-0.6,0-1.4-0.2-1.8-0.4v2.3h1.3v0.8h-3.1V71.1z M428.3,65.7c0-1.3-0.4-2.7-2.2-2.7c-0.8,0-1.4,0.3-1.8,0.5
		v4.4c0.4,0.2,1,0.4,1.7,0.4C427.6,68.4,428.3,67.2,428.3,65.7z"/>
	<path d="M430.6,68.3l0.8-0.1v-5.1l-0.9-0.1v-0.8l1.7-0.1l0.1,0.1l0.1,0.8c0.6-0.5,1.7-0.9,2.6-0.9c0.3,0,0.5,0,0.7,0v1.6h-1V63
		c-0.8,0-1.6,0.3-2.3,0.8v4.5h1.2V69h-3.1V68.3z"/>
	<path d="M436.7,65.7c0-2,1.2-3.5,3.2-3.5c1.8,0,2.8,1.3,2.8,2.8v0.6h-4.8c0,1.5,0.8,2.7,2.5,2.7c0.7,0,1.3-0.1,2-0.3l0.2,0.8
		c-0.7,0.2-1.6,0.4-2.3,0.4C437.9,69.2,436.7,67.8,436.7,65.7z M441.7,64.9c0-1.2-0.7-2-1.8-2c-0.9,0-1.9,0.7-2,2.1L441.7,64.9z"/>
	<path d="M443.9,68.9l-0.1-1.6h0.9l0.1,1c0.4,0.1,0.8,0.2,1.2,0.2c0.8,0,1.7-0.3,1.7-1.1c0-0.7-0.5-1-1.4-1.3l-0.7-0.2
		c-1-0.3-1.8-0.7-1.8-1.8c0-0.9,0.7-1.8,2.5-1.8c0.6,0,1.5,0.1,2,0.3l0,1.5h-0.9l-0.1-0.9c-0.5-0.1-0.7-0.2-1.2-0.2
		c-0.8,0-1.4,0.3-1.4,1c0,0.7,0.7,0.9,1.4,1.1l0.5,0.2c1.2,0.4,1.9,1,1.9,2c0,1.4-1.4,2-2.8,2C445.3,69.2,444.6,69.1,443.9,68.9z"/>
	<path d="M450.6,67l0-3.9h-0.9v-0.7l1.8-0.1l0.1,0.1l0,4.5c0,1.3,0.9,1.6,1.6,1.6c0.8,0,1.4-0.4,1.8-0.6l0-4.7h-0.9v-0.7l1.9-0.1
		l0.1,0.1l0,5.9l0.9,0.1V69l-1.7,0.1l-0.1-0.1l-0.1-0.6c-0.6,0.5-1.5,0.8-2.3,0.8C451.4,69.2,450.6,68.3,450.6,67z"/>
	<path d="M458.2,71.1l0.7-0.1v-7.9l-0.9-0.1v-0.8l1.7-0.1l0.1,0.1l0.1,0.5c0.5-0.4,1.4-0.7,2.2-0.7c2.2,0,3,1.5,3,3.3
		c0,2.1-1.1,3.7-3.4,3.7c-0.6,0-1.4-0.2-1.8-0.4v2.3h1.3v0.8h-3.1V71.1z M464,65.7c0-1.3-0.4-2.7-2.2-2.7c-0.8,0-1.4,0.3-1.8,0.5
		v4.4c0.4,0.2,1,0.4,1.7,0.4C463.3,68.4,464,67.2,464,65.7z"/>
	<path d="M466.9,67l0-3.9H466v-0.7l1.8-0.1l0.1,0.1l0,4.5c0,1.3,0.9,1.6,1.6,1.6c0.8,0,1.4-0.4,1.8-0.6l0-4.7h-0.9v-0.7l1.9-0.1
		l0.1,0.1l0,5.9l0.9,0.1V69l-1.7,0.1l-0.1-0.1l-0.1-0.6c-0.6,0.5-1.5,0.8-2.3,0.8C467.6,69.2,466.9,68.3,466.9,67z"/>
	<path d="M474.3,65.7c0-2,1.2-3.5,3.2-3.5c1.8,0,2.8,1.3,2.8,2.8v0.6h-4.8c0,1.5,0.8,2.7,2.5,2.7c0.7,0,1.3-0.1,2-0.3l0.2,0.8
		c-0.7,0.2-1.6,0.4-2.3,0.4C475.4,69.2,474.3,67.8,474.3,65.7z M479.2,64.9c0-1.2-0.7-2-1.8-2c-0.9,0-1.9,0.7-2,2.1L479.2,64.9z"/>
	<path d="M481.5,68.9l-0.1-1.6h0.9l0.1,1c0.4,0.1,0.8,0.2,1.2,0.2c0.8,0,1.7-0.3,1.7-1.1c0-0.7-0.5-1-1.4-1.3l-0.7-0.2
		c-1-0.3-1.8-0.7-1.8-1.8c0-0.9,0.7-1.8,2.5-1.8c0.6,0,1.5,0.1,2,0.3l0,1.5h-0.9l-0.1-0.9c-0.5-0.1-0.7-0.2-1.2-0.2
		c-0.8,0-1.4,0.3-1.4,1c0,0.7,0.7,0.9,1.4,1.1l0.5,0.2c1.2,0.4,1.9,1,1.9,2c0,1.4-1.4,2-2.8,2C482.8,69.2,482.2,69.1,481.5,68.9z"/>
	<path d="M488.4,67.3v-4.2h-1v-0.7l1-0.1l0.3-1.5h0.8v1.5h2.1v0.7h-2.1v4.1c0,0.8,0.4,1.1,1.1,1.1c0.2,0,0.7-0.1,1-0.1l0.1,0.8
		c-0.4,0.1-0.9,0.2-1.3,0.2C489.1,69.2,488.4,68.5,488.4,67.3z"/>
	<path d="M492.6,65.8c0-2.1,1-3.6,3.2-3.6c2.1,0,3.2,1.3,3.2,3.4c0,2.2-1.1,3.6-3.3,3.6C493.7,69.2,492.6,67.9,492.6,65.8z
		 M497.9,65.7c0-1.7-0.6-2.8-2.2-2.8c-1.5,0-2.1,1.2-2.1,2.7c0,1.6,0.6,2.7,2.1,2.7C497.4,68.4,497.9,67.4,497.9,65.7z"/>
	<path d="M503.1,68.3l0.8-0.1v-5.1l-0.9-0.1v-0.8l1.7-0.1l0.1,0.1l0.1,0.7c0.6-0.5,1.5-0.8,2.3-0.8c1.5,0,2.2,0.9,2.2,2.2v3.9h0.9
		V69h-2.8v-0.7l0.8-0.1v-3.6c0-1.3-0.9-1.6-1.6-1.6c-0.8,0-1.4,0.4-1.8,0.6v4.7h0.9V69h-2.8V68.3z"/>
	<path d="M511.5,67.3c0-1.6,1.6-2.3,4.3-2.3v-0.8c0-0.8-0.4-1.3-1.4-1.3c-0.9,0-1.8,0.2-2.3,0.5l-0.3-0.8c0.6-0.2,1.5-0.5,2.7-0.5
		c1.5,0,2.3,0.7,2.3,2v3.3l0.1,0.7h1V69l-1.5,0.1H516l-0.1-0.8c-0.6,0.6-1.6,0.9-2.4,0.9C512.1,69.2,511.5,68.3,511.5,67.3z
		 M515.8,67.7v-2c-2.5-0.1-3.2,0.7-3.2,1.5c0,0.7,0.5,1.2,1.3,1.2C514.8,68.4,515.4,68,515.8,67.7z"/>
	<path d="M518.9,65.7c0-2.2,1.3-3.5,3.5-3.5c0.6,0,1.5,0.1,2,0.3l0.1,1.7h-0.8l-0.1-1c-0.4-0.1-0.8-0.1-1.2-0.1
		c-1.6,0-2.4,1.1-2.4,2.7c0,1.7,1,2.7,2.5,2.7c0.7,0,1.3-0.1,1.9-0.3l0.2,0.8c-0.7,0.2-1.4,0.4-2.1,0.4
		C520.3,69.2,518.9,68.1,518.9,65.7z"/>
	<path d="M525.7,68.3l0.8-0.1v-5.1l-0.9-0.1v-0.7l1.9-0.1l0.1,0.1v5.9h0.9V69h-2.8V68.3z M526.4,60.3c0-0.4,0.2-0.8,0.7-0.8
		c0.5,0,0.7,0.3,0.7,0.8c0,0.4-0.2,0.7-0.7,0.7C526.5,61.1,526.4,60.7,526.4,60.3z"/>
	<path d="M529.6,65.8c0-2.1,1-3.6,3.2-3.6c2.1,0,3.2,1.3,3.2,3.4c0,2.2-1.1,3.6-3.3,3.6C530.7,69.2,529.6,67.9,529.6,65.8z
		 M534.9,65.7c0-1.7-0.6-2.8-2.2-2.8c-1.5,0-2.1,1.2-2.1,2.7c0,1.6,0.6,2.7,2.1,2.7C534.4,68.4,534.9,67.4,534.9,65.7z"/>
	<path d="M537.3,68.3l0.8-0.1v-5.1l-0.9-0.1v-0.8l1.7-0.1l0.1,0.1l0.1,0.7c0.6-0.5,1.5-0.8,2.3-0.8c1.5,0,2.2,0.9,2.2,2.2v3.9h0.9
		V69h-2.8v-0.7l0.8-0.1v-3.6c0-1.3-0.9-1.6-1.6-1.6c-0.8,0-1.4,0.4-1.8,0.6v4.7h0.9V69h-2.8V68.3z"/>
	<path d="M545.6,67.3c0-1.6,1.6-2.3,4.3-2.3v-0.8c0-0.8-0.4-1.3-1.4-1.3c-0.9,0-1.8,0.2-2.3,0.5l-0.3-0.8c0.6-0.2,1.5-0.5,2.7-0.5
		c1.5,0,2.3,0.7,2.3,2v3.3l0.1,0.7h1V69l-1.5,0.1h-0.3l-0.1-0.8c-0.6,0.6-1.6,0.9-2.4,0.9C546.2,69.2,545.6,68.3,545.6,67.3z
		 M549.9,67.7v-2c-2.5-0.1-3.2,0.7-3.2,1.5c0,0.7,0.5,1.2,1.3,1.2C548.9,68.4,549.6,68,549.9,67.7z"/>
	<path d="M553,68.3l0.8-0.1v-8.4h-1v-0.8l2-0.1l0.1,0.1v9.2h0.9V69H553V68.3z"/>
</g>
<line class="st2" x1="78.1" y1="119.5" x2="740" y2="119.5"/>
<line class="st2" x1="78.1" y1="157.4" x2="740" y2="157.4"/>
<line class="st2" x1="78.1" y1="195.2" x2="740" y2="195.2"/>
<line class="st2" x1="78.1" y1="233.1" x2="740" y2="233.1"/>
<line class="st2" x1="78.1" y1="271" x2="740" y2="271"/>
<line class="st2" x1="78.1" y1="308.9" x2="740" y2="308.9"/>
<line class="st2" x1="78.1" y1="346.7" x2="740" y2="346.7"/>
<line class="st2" x1="78.1" y1="384.6" x2="740" y2="384.6"/>
<line class="st2" x1="78.1" y1="422.5" x2="740" y2="422.5"/>
<g>
	<path d="M57.3,117.4c0,2.7-0.9,4.8-3.8,4.9c-0.6,0-1.4-0.1-1.8-0.2l0.2-0.8c0.2,0,0.8,0.2,1.5,0.2c2,0,2.7-1.5,2.7-3.2
		c-0.4,0.2-1.3,0.7-2.3,0.7c-1.6,0-2.7-0.9-2.7-2.6c0-1.8,1.1-2.9,3-2.9C56.5,113.4,57.3,115.3,57.3,117.4z M52.3,116.2
		c0,1.2,0.7,1.9,1.9,1.9c1,0,1.9-0.5,2.1-0.7c0-1.2-0.1-3.3-2.1-3.3C53,114.2,52.3,115,52.3,116.2z"/>
	<path d="M58.4,118c0-2.7,1-4.7,3.1-4.7c2.1,0,3,1.8,3,4.4c0,2.6-0.9,4.6-3.1,4.6C59.4,122.3,58.4,120.5,58.4,118z M63.5,117.9
		c0-1.9-0.3-3.8-2.1-3.8c-1.7,0-2,2-2,3.8c0,1.8,0.4,3.6,2,3.6C63.1,121.6,63.5,119.8,63.5,117.9z"/>
	<path d="M65.7,121.5l1-0.1v-7.2h-1v-0.7h3.8c1.5,0,3,0.4,3,2.2c0,0.9-0.7,1.8-1.6,2v0c1.2,0.2,1.8,1,1.8,2c0,1.8-1.3,2.5-3.1,2.5
		h-3.8V121.5z M69.7,117.3c1.2,0,1.7-0.6,1.7-1.6c0-1.1-0.9-1.5-1.9-1.5h-1.7v3.1H69.7z M69.5,121.4c1.1,0,2.1-0.3,2.1-1.7
		c0-1.1-0.7-1.7-1.9-1.7h-1.8v3.4H69.5z"/>
</g>
<g>
	<path d="M51.4,157.7c0-1,0.5-1.9,1.7-2.2c-1-0.4-1.5-1-1.5-2.1c0-1.6,1.3-2.3,2.8-2.3c1.5,0,2.8,0.8,2.8,2.3c0,1.1-0.6,1.8-1.7,2.1
		c1.1,0.2,1.8,1,1.8,2.2c0,1.7-1.4,2.4-3.1,2.4C52.7,160.1,51.4,159.4,51.4,157.7z M56.4,157.6c0-1.2-0.9-1.8-2-1.8
		c-1,0-2,0.5-2,1.8c0,1.2,0.9,1.7,2,1.7C55.5,159.3,56.4,158.8,56.4,157.6z M56.3,153.4c0-1-0.8-1.6-1.8-1.6c-1.1,0-1.9,0.5-1.9,1.7
		c0,0.7,0.6,1.7,1.9,1.7C55.5,155.1,56.3,154.5,56.3,153.4z"/>
	<path d="M58.4,155.8c0-2.7,1-4.7,3.1-4.7c2.1,0,3,1.8,3,4.4c0,2.6-0.9,4.6-3.1,4.6C59.4,160.1,58.4,158.3,58.4,155.8z M63.5,155.7
		c0-1.9-0.3-3.8-2.1-3.8c-1.7,0-2,2-2,3.8c0,1.8,0.4,3.6,2,3.6C63.1,159.3,63.5,157.6,63.5,155.7z"/>
	<path d="M65.7,159.2l1-0.1v-7.2h-1v-0.7h3.8c1.5,0,3,0.4,3,2.2c0,0.9-0.7,1.8-1.6,2v0c1.2,0.2,1.8,1,1.8,2c0,1.8-1.3,2.5-3.1,2.5
		h-3.8V159.2z M69.7,155.1c1.2,0,1.7-0.6,1.7-1.6c0-1.1-0.9-1.5-1.9-1.5h-1.7v3.1H69.7z M69.5,159.2c1.1,0,2.1-0.3,2.1-1.7
		c0-1.1-0.7-1.7-1.9-1.7h-1.8v3.4H69.5z"/>
</g>
<g>
	<path d="M56.3,191.2h-3.9l-0.1,1.2h-0.7v-2h5.7v0.7l-3.7,7.9h-1.1L56.3,191.2z"/>
	<path d="M58.4,194.9c0-2.7,1-4.7,3.1-4.7c2.1,0,3,1.8,3,4.4c0,2.6-0.9,4.6-3.1,4.6C59.4,199.2,58.4,197.4,58.4,194.9z M63.5,194.8
		c0-1.9-0.3-3.8-2.1-3.8c-1.7,0-2,2-2,3.8c0,1.8,0.4,3.6,2,3.6C63.1,198.4,63.5,196.7,63.5,194.8z"/>
	<path d="M65.7,198.3l1-0.1v-7.2h-1v-0.7h3.8c1.5,0,3,0.4,3,2.2c0,0.9-0.7,1.8-1.6,2v0c1.2,0.2,1.8,1,1.8,2c0,1.8-1.3,2.5-3.1,2.5
		h-3.8V198.3z M69.7,194.2c1.2,0,1.7-0.6,1.7-1.6c0-1.1-0.9-1.5-1.9-1.5h-1.7v3.1H69.7z M69.5,198.3c1.1,0,2.1-0.3,2.1-1.7
		c0-1.1-0.7-1.7-1.9-1.7h-1.8v3.4H69.5z"/>
</g>
<g>
	<path d="M51.3,231.3c0-2.7,0.9-4.8,3.8-4.9c0.6,0,1.4,0.1,1.7,0.2l-0.2,0.8c-0.2,0-0.8-0.2-1.5-0.2c-2,0-2.7,1.5-2.7,3.3
		c0.4-0.3,1.3-0.7,2.3-0.7c1.6,0,2.7,0.9,2.7,2.6c0,1.8-1.1,2.9-3,2.9C52.1,235.3,51.3,233.4,51.3,231.3z M56.3,232.5
		c0-1.2-0.7-2-1.9-2c-1,0-1.9,0.5-2.1,0.7c0,1.1,0.2,3.3,2.1,3.3C55.7,234.5,56.3,233.7,56.3,232.5z"/>
	<path d="M58.4,231c0-2.7,1-4.7,3.1-4.7c2.1,0,3,1.8,3,4.4c0,2.6-0.9,4.6-3.1,4.6C59.4,235.3,58.4,233.5,58.4,231z M63.5,230.9
		c0-1.9-0.3-3.8-2.1-3.8c-1.7,0-2,2-2,3.8c0,1.8,0.4,3.6,2,3.6C63.1,234.6,63.5,232.8,63.5,230.9z"/>
	<path d="M65.7,234.5l1-0.1v-7.2h-1v-0.7h3.8c1.5,0,3,0.4,3,2.2c0,0.9-0.7,1.8-1.6,2v0c1.2,0.2,1.8,1,1.8,2c0,1.8-1.3,2.5-3.1,2.5
		h-3.8V234.5z M69.7,230.3c1.2,0,1.7-0.6,1.7-1.6c0-1.1-0.9-1.5-1.9-1.5h-1.7v3.1H69.7z M69.5,234.4c1.1,0,2.1-0.3,2.1-1.7
		c0-1.1-0.7-1.7-1.9-1.7h-1.8v3.4H69.5z"/>
</g>
<g>
	<path d="M51.8,273.2l0.2-0.8c0.7,0.2,1.4,0.3,2,0.3c1.6,0,2.4-0.8,2.4-2c0-1-0.7-1.8-2.3-1.8c-0.9,0-1.6,0.4-1.8,0.4l-0.1-0.1
		l0.4-4.5H57l-0.1,0.8h-3.6l-0.3,2.8c0.4-0.2,0.9-0.3,1.4-0.3c1.9,0,2.8,1.2,2.8,2.5c0,2-1.4,2.9-3.4,2.9
		C53.5,273.5,52.5,273.4,51.8,273.2z"/>
	<path d="M58.4,269.1c0-2.7,1-4.7,3.1-4.7c2.1,0,3,1.8,3,4.4c0,2.6-0.9,4.6-3.1,4.6C59.4,273.5,58.4,271.7,58.4,269.1z M63.5,269.1
		c0-1.9-0.3-3.8-2.1-3.8c-1.7,0-2,2-2,3.8c0,1.8,0.4,3.6,2,3.6C63.1,272.7,63.5,270.9,63.5,269.1z"/>
	<path d="M65.7,272.6l1-0.1v-7.2h-1v-0.7h3.8c1.5,0,3,0.4,3,2.2c0,0.9-0.7,1.8-1.6,2v0c1.2,0.2,1.8,1,1.8,2c0,1.8-1.3,2.5-3.1,2.5
		h-3.8V272.6z M69.7,268.4c1.2,0,1.7-0.6,1.7-1.6c0-1.1-0.9-1.5-1.9-1.5h-1.7v3.1H69.7z M69.5,272.6c1.1,0,2.1-0.3,2.1-1.7
		c0-1.1-0.7-1.7-1.9-1.7h-1.8v3.4H69.5z"/>
</g>
<g>
	<path d="M54.2,311.3l0.9-0.1v-1.8h-3.9v-0.8l3.8-5.2H56v5.3h1.7l0,0.8H56v1.9h0.7v0.7h-2.5V311.3z M55,308.6v-4.2h0l-3,4.2H55z"/>
	<path d="M58.4,307.8c0-2.7,1-4.7,3.1-4.7c2.1,0,3,1.8,3,4.4c0,2.6-0.9,4.6-3.1,4.6C59.4,312.1,58.4,310.4,58.4,307.8z M63.5,307.7
		c0-1.9-0.3-3.8-2.1-3.8c-1.7,0-2,2-2,3.8c0,1.8,0.4,3.6,2,3.6C63.1,311.4,63.5,309.6,63.5,307.7z"/>
	<path d="M65.7,311.3l1-0.1V304h-1v-0.7h3.8c1.5,0,3,0.4,3,2.2c0,0.9-0.7,1.8-1.6,2v0c1.2,0.2,1.8,1,1.8,2c0,1.8-1.3,2.5-3.1,2.5
		h-3.8V311.3z M69.7,307.1c1.2,0,1.7-0.6,1.7-1.6c0-1.1-0.9-1.5-1.9-1.5h-1.7v3.1H69.7z M69.5,311.3c1.1,0,2.1-0.3,2.1-1.7
		c0-1.1-0.7-1.7-1.9-1.7h-1.8v3.4H69.5z"/>
</g>
<g>
	<path d="M51.6,349l0.2-0.8c0.7,0.2,1.4,0.3,2,0.3c1.4,0,2.5-0.4,2.5-1.8c0-1.1-0.8-1.6-1.9-1.6h-1v-0.8h1c1.1,0,1.6-0.5,1.6-1.5
		c0-1.2-1.1-1.5-2.1-1.5c-0.7,0-0.9,0.1-1.3,0.2l-0.1,1h-0.8v-1.6c0.6-0.2,1.2-0.4,2.4-0.4c1.7,0,3,0.7,3,2.2c0,1-0.6,1.8-1.5,1.9
		c0,0,0,0,0,0c1.1,0.2,1.8,1,1.8,2c0,2-1.5,2.7-3.5,2.7C53.4,349.3,52.4,349.2,51.6,349z"/>
	<path d="M58.4,345c0-2.7,1-4.7,3.1-4.7c2.1,0,3,1.8,3,4.4c0,2.6-0.9,4.6-3.1,4.6C59.4,349.3,58.4,347.5,58.4,345z M63.5,344.9
		c0-1.9-0.3-3.8-2.1-3.8c-1.7,0-2,2-2,3.8c0,1.8,0.4,3.6,2,3.6C63.1,348.5,63.5,346.8,63.5,344.9z"/>
	<path d="M65.7,348.4l1-0.1v-7.2h-1v-0.7h3.8c1.5,0,3,0.4,3,2.2c0,0.9-0.7,1.8-1.6,2v0c1.2,0.2,1.8,1,1.8,2c0,1.8-1.3,2.5-3.1,2.5
		h-3.8V348.4z M69.7,344.3c1.2,0,1.7-0.6,1.7-1.6c0-1.1-0.9-1.5-1.9-1.5h-1.7v3.1H69.7z M69.5,348.4c1.1,0,2.1-0.3,2.1-1.7
		c0-1.1-0.7-1.7-1.9-1.7h-1.8v3.4H69.5z"/>
</g>
<g>
	<path d="M51.9,385.7c2.2-2.1,4.3-3.8,4.3-5.6c0-1-0.9-1.6-2.1-1.6c-0.7,0-0.9,0.1-1.3,0.2l-0.1,1.1h-0.8V378
		c0.6-0.2,1.3-0.4,2.4-0.4c1.5,0,3,0.8,3,2.4c0,1.9-2.3,3.8-4.2,5.5v0h3.4l0.2-1.1h0.7l-0.1,1.9h-5.4V385.7z"/>
	<path d="M58.4,382.2c0-2.7,1-4.7,3.1-4.7c2.1,0,3,1.8,3,4.4c0,2.6-0.9,4.6-3.1,4.6C59.4,386.6,58.4,384.8,58.4,382.2z M63.5,382.2
		c0-1.9-0.3-3.8-2.1-3.8c-1.7,0-2,2-2,3.8c0,1.8,0.4,3.6,2,3.6C63.1,385.8,63.5,384,63.5,382.2z"/>
	<path d="M65.7,385.7l1-0.1v-7.2h-1v-0.7h3.8c1.5,0,3,0.4,3,2.2c0,0.9-0.7,1.8-1.6,2v0c1.2,0.2,1.8,1,1.8,2c0,1.8-1.3,2.5-3.1,2.5
		h-3.8V385.7z M69.7,381.5c1.2,0,1.7-0.6,1.7-1.6c0-1.1-0.9-1.5-1.9-1.5h-1.7v3.1H69.7z M69.5,385.7c1.1,0,2.1-0.3,2.1-1.7
		c0-1.1-0.7-1.7-1.9-1.7h-1.8v3.4H69.5z"/>
</g>
<g>
	<path d="M53.8,423.4l1.4-0.1v-7l-1.5,0.2v-0.7l2.3-0.4l0.2,0.1v7.9h1.3v0.7h-3.7V423.4z"/>
	<path d="M58.4,419.9c0-2.7,1-4.7,3.1-4.7c2.1,0,3,1.8,3,4.4c0,2.6-0.9,4.6-3.1,4.6C59.4,424.3,58.4,422.5,58.4,419.9z M63.5,419.9
		c0-1.9-0.3-3.8-2.1-3.8c-1.7,0-2,2-2,3.8c0,1.8,0.4,3.6,2,3.6C63.1,423.5,63.5,421.7,63.5,419.9z"/>
	<path d="M65.7,423.4l1-0.1v-7.2h-1v-0.7h3.8c1.5,0,3,0.4,3,2.2c0,0.9-0.7,1.8-1.6,2v0c1.2,0.2,1.8,1,1.8,2c0,1.8-1.3,2.5-3.1,2.5
		h-3.8V423.4z M69.7,419.2c1.2,0,1.7-0.6,1.7-1.6c0-1.1-0.9-1.5-1.9-1.5h-1.7v3.1H69.7z M69.5,423.4c1.1,0,2.1-0.3,2.1-1.7
		c0-1.1-0.7-1.7-1.9-1.7h-1.8v3.4H69.5z"/>
</g>
<g>
	<path d="M58.4,459c0-2.7,1-4.7,3.1-4.7c2.1,0,3,1.8,3,4.4c0,2.6-0.9,4.6-3.1,4.6C59.4,463.3,58.4,461.5,58.4,459z M63.5,458.9
		c0-1.9-0.3-3.8-2.1-3.8c-1.7,0-2,2-2,3.8c0,1.8,0.4,3.6,2,3.6C63.1,462.6,63.5,460.8,63.5,458.9z"/>
	<path d="M65.7,462.5l1-0.1v-7.2h-1v-0.7h3.8c1.5,0,3,0.4,3,2.2c0,0.9-0.7,1.8-1.6,2v0c1.2,0.2,1.8,1,1.8,2c0,1.8-1.3,2.5-3.1,2.5
		h-3.8V462.5z M69.7,458.3c1.2,0,1.7-0.6,1.7-1.6c0-1.1-0.9-1.5-1.9-1.5h-1.7v3.1H69.7z M69.5,462.4c1.1,0,2.1-0.3,2.1-1.7
		c0-1.1-0.7-1.7-1.9-1.7h-1.8v3.4H69.5z"/>
</g>
<line class="st2" x1="132.7" y1="99" x2="132.7" y2="470.8"/>
<line class="st2" x1="220.4" y1="99" x2="220.4" y2="470.8"/>
<line class="st2" x1="306.5" y1="99" x2="306.5" y2="470.8"/>
<line class="st2" x1="393.9" y1="99" x2="393.9" y2="470.8"/>
<line class="st2" x1="481.5" y1="99" x2="481.5" y2="470.8"/>
<line class="st2" x1="567.6" y1="99" x2="567.6" y2="470.8"/>
<g>
	<g>
		<path class="st1" d="M121.6,490.7c1.7-1.6,3.7-2.9,3.7-4.4c0-0.7-0.6-1.1-1.4-1.1c-0.4,0-0.6,0-0.9,0.1l-0.1,0.8h-1.3v-1.9
			c0.7-0.2,1.5-0.3,2.4-0.3c1.5,0,2.9,0.5,2.9,2.3c0,1.9-2.2,3.4-3.5,4.3v0.1h2.3l0.2-0.8l1.1,0l-0.1,2.1h-5.4V490.7z"/>
		<path class="st1" d="M127.9,488c0-2.5,0.9-4.3,3.1-4.3c2.1,0,2.9,1.7,2.9,4.1c0,2.4-0.9,4.2-3,4.2
			C128.7,492,127.9,490.4,127.9,488z M132.2,488c0-1.7-0.2-3-1.3-3c-1.2,0-1.3,1.5-1.3,3c0,1.8,0.3,2.9,1.4,2.9
			C132,490.9,132.2,489.2,132.2,488z"/>
		<path class="st1" d="M135,490.9l1.1-0.1v-5.4l-1.1,0.1v-1.1l2.5-0.5l0.3,0.1v6.8h1.1v1H135V490.9z"/>
		<path class="st1" d="M139.8,490.9l1.1-0.1v-5.4l-1.1,0.1v-1.1l2.5-0.5l0.3,0.1v6.8h1.1v1h-3.8V490.9z"/>
	</g>
</g>
<g>
	<g>
		<path class="st1" d="M209.4,490.7c1.7-1.6,3.7-2.9,3.7-4.4c0-0.7-0.6-1.1-1.4-1.1c-0.4,0-0.6,0-0.9,0.1l-0.1,0.8h-1.3v-1.9
			c0.7-0.2,1.5-0.3,2.4-0.3c1.5,0,2.9,0.5,2.9,2.3c0,1.9-2.2,3.4-3.5,4.3v0.1h2.3l0.2-0.8l1.1,0l-0.1,2.1h-5.4V490.7z"/>
		<path class="st1" d="M215.8,488c0-2.5,0.9-4.3,3.1-4.3c2.1,0,2.9,1.7,2.9,4.1c0,2.4-0.9,4.2-3,4.2
			C216.6,492,215.8,490.4,215.8,488z M220.1,488c0-1.7-0.2-3-1.3-3c-1.2,0-1.3,1.5-1.3,3c0,1.8,0.3,2.9,1.4,2.9
			C219.9,490.9,220.1,489.2,220.1,488z"/>
		<path class="st1" d="M222.9,490.9l1.1-0.1v-5.4l-1.1,0.1v-1.1l2.5-0.5l0.3,0.1v6.8h1.1v1h-3.8V490.9z"/>
		<path class="st1" d="M227.5,491.7l0.2-1.3c0.5,0.1,1.4,0.2,2,0.2c1.1,0,1.7-0.3,1.7-1.2c0-0.7-0.5-1-1.2-1h-1.1v-1.2h1
			c0.8,0,1.2-0.4,1.2-1.1c0-0.8-0.7-1.1-1.5-1.1c-0.4,0-0.6,0-0.9,0.1l-0.1,0.7h-1.2v-1.8c0.7-0.2,1.4-0.3,2.4-0.3
			c1.5,0,3,0.5,3,2.1c0,0.9-0.6,1.6-1.4,1.7c0,0,0,0,0,0c0.9,0.2,1.6,0.8,1.6,1.8c0,1.9-1.7,2.4-3.4,2.4
			C229.1,492,228.3,492,227.5,491.7z"/>
	</g>
</g>
<g>
	<g>
		<path class="st1" d="M295.1,490.7c1.7-1.6,3.7-2.9,3.7-4.4c0-0.7-0.6-1.1-1.4-1.1c-0.4,0-0.6,0-0.9,0.1l-0.1,0.8h-1.3v-1.9
			c0.7-0.2,1.5-0.3,2.4-0.3c1.5,0,2.9,0.5,2.9,2.3c0,1.9-2.2,3.4-3.5,4.3v0.1h2.3l0.2-0.8l1.1,0l-0.1,2.1h-5.4V490.7z"/>
		<path class="st1" d="M301.4,488c0-2.5,0.9-4.3,3.1-4.3c2.1,0,2.9,1.7,2.9,4.1c0,2.4-0.9,4.2-3,4.2
			C302.2,492,301.4,490.4,301.4,488z M305.7,488c0-1.7-0.2-3-1.3-3c-1.2,0-1.3,1.5-1.3,3c0,1.8,0.3,2.9,1.4,2.9
			C305.5,490.9,305.7,489.2,305.7,488z"/>
		<path class="st1" d="M308.5,490.9l1.1-0.1v-5.4l-1.1,0.1v-1.1l2.5-0.5l0.3,0.1v6.8h1.1v1h-3.8V490.9z"/>
		<path class="st1" d="M313,491.8l0.2-1.3c0.5,0.1,1.3,0.2,1.8,0.2c1,0,1.8-0.4,1.8-1.3c0-0.9-0.8-1.2-2-1.2c-0.7,0-1.2,0.2-1.4,0.2
			l-0.1-0.1l0.3-4.4h4.6l-0.1,1.3h-3.2l-0.1,1.9c0.2-0.1,0.6-0.1,1.1-0.1c1.6,0,2.6,0.8,2.6,2.3c0,1.9-1.4,2.7-3.3,2.7
			C314.5,492,313.8,492,313,491.8z"/>
	</g>
</g>
<g>
	<g>
		<path class="st1" d="M382.8,490.7c1.7-1.6,3.7-2.9,3.7-4.4c0-0.7-0.6-1.1-1.4-1.1c-0.4,0-0.6,0-0.9,0.1l-0.1,0.8h-1.3v-1.9
			c0.7-0.2,1.5-0.3,2.4-0.3c1.5,0,2.9,0.5,2.9,2.3c0,1.9-2.2,3.4-3.5,4.3v0.1h2.3l0.2-0.8l1.1,0l-0.1,2.1h-5.4V490.7z"/>
		<path class="st1" d="M389.1,488c0-2.5,0.9-4.3,3.1-4.3c2.1,0,2.9,1.7,2.9,4.1c0,2.4-0.9,4.2-3,4.2
			C389.9,492,389.1,490.4,389.1,488z M393.4,488c0-1.7-0.2-3-1.3-3c-1.2,0-1.3,1.5-1.3,3c0,1.8,0.3,2.9,1.4,2.9
			C393.2,490.9,393.4,489.2,393.4,488z"/>
		<path class="st1" d="M396.2,490.9l1.1-0.1v-5.4l-1.1,0.1v-1.1l2.5-0.5l0.3,0.1v6.8h1.1v1h-3.8V490.9z"/>
		<path class="st1" d="M404.9,485.1h-2.8l-0.1,1.1h-1.2V484h5.7v1l-3.1,7h-1.8L404.9,485.1z"/>
	</g>
</g>
<g>
	<g>
		<path class="st1" d="M468,490.7c1.7-1.6,3.7-2.9,3.7-4.4c0-0.7-0.6-1.1-1.4-1.1c-0.4,0-0.6,0-0.9,0.1l-0.1,0.8H468v-1.9
			c0.7-0.2,1.5-0.3,2.4-0.3c1.5,0,2.9,0.5,2.9,2.3c0,1.9-2.2,3.4-3.5,4.3v0.1h2.3l0.2-0.8l1.1,0l-0.1,2.1H468V490.7z"/>
		<path class="st1" d="M474.3,488c0-2.5,0.9-4.3,3.1-4.3c2.1,0,2.9,1.7,2.9,4.1c0,2.4-0.9,4.2-3,4.2
			C475.2,492,474.3,490.4,474.3,488z M478.7,488c0-1.7-0.2-3-1.3-3c-1.2,0-1.3,1.5-1.3,3c0,1.8,0.3,2.9,1.4,2.9
			C478.5,490.9,478.7,489.2,478.7,488z"/>
		<path class="st1" d="M481.5,490.9l1.1-0.1v-5.4l-1.1,0.1v-1.1l2.5-0.5l0.3,0.1v6.8h1.1v1h-3.8V490.9z"/>
		<path class="st1" d="M492,487.7c0,2.5-1,4.3-3.6,4.3c-0.7,0-1.6-0.1-1.9-0.2l0.2-1.3c0.2,0,0.9,0.2,1.5,0.2c1.5,0,2-0.9,2-2.2
			c-0.4,0.2-0.9,0.5-1.8,0.5c-1.7,0-2.4-1-2.4-2.4c0-1.7,1-2.7,2.9-2.7C491.1,483.9,492,485.4,492,487.7z M487.7,486.4
			c0,0.8,0.4,1.5,1.3,1.5c0.6,0,1.2-0.3,1.3-0.4c0-0.8,0-2.5-1.4-2.5C488.1,485,487.7,485.6,487.7,486.4z"/>
	</g>
</g>
<g>
	<g>
		<path class="st1" d="M554.9,490.7c1.7-1.6,3.7-2.9,3.7-4.4c0-0.7-0.6-1.1-1.4-1.1c-0.4,0-0.6,0-0.9,0.1l-0.1,0.8h-1.3v-1.9
			c0.7-0.2,1.5-0.3,2.4-0.3c1.5,0,2.9,0.5,2.9,2.3c0,1.9-2.2,3.4-3.5,4.3v0.1h2.3l0.2-0.8l1.1,0l-0.1,2.1h-5.4V490.7z"/>
		<path class="st1" d="M561.2,488c0-2.5,0.9-4.3,3.1-4.3c2.1,0,2.9,1.7,2.9,4.1c0,2.4-0.9,4.2-3,4.2C562,492,561.2,490.4,561.2,488z
			 M565.5,488c0-1.7-0.2-3-1.3-3c-1.2,0-1.3,1.5-1.3,3c0,1.8,0.3,2.9,1.4,2.9C565.3,490.9,565.5,489.2,565.5,488z"/>
		<path class="st1" d="M568.2,490.7c1.7-1.6,3.7-2.9,3.7-4.4c0-0.7-0.6-1.1-1.4-1.1c-0.4,0-0.6,0-0.9,0.1l-0.1,0.8h-1.3v-1.9
			c0.7-0.2,1.5-0.3,2.4-0.3c1.5,0,2.9,0.5,2.9,2.3c0,1.9-2.2,3.4-3.5,4.3v0.1h2.3l0.2-0.8l1.1,0l-0.1,2.1h-5.4V490.7z"/>
		<path class="st1" d="M574.7,490.9l1.1-0.1v-5.4l-1.1,0.1v-1.1l2.5-0.5l0.3,0.1v6.8h1.1v1h-3.8V490.9z"/>
	</g>
</g>
<g>
	<g>
		<path class="st1" d="M642.1,490.7c1.7-1.6,3.7-2.9,3.7-4.4c0-0.7-0.6-1.1-1.4-1.1c-0.4,0-0.6,0-0.9,0.1l-0.1,0.8h-1.3v-1.9
			c0.7-0.2,1.5-0.3,2.4-0.3c1.5,0,2.9,0.5,2.9,2.3c0,1.9-2.2,3.4-3.5,4.3v0.1h2.3l0.2-0.8l1.1,0l-0.1,2.1h-5.4V490.7z"/>
		<path class="st1" d="M648.4,488c0-2.5,0.9-4.3,3.1-4.3c2.1,0,2.9,1.7,2.9,4.1c0,2.4-0.9,4.2-3,4.2
			C649.2,492,648.4,490.4,648.4,488z M652.7,488c0-1.7-0.2-3-1.3-3c-1.2,0-1.3,1.5-1.3,3c0,1.8,0.3,2.9,1.4,2.9
			C652.5,490.9,652.7,489.2,652.7,488z"/>
		<path class="st1" d="M655.3,490.7c1.7-1.6,3.7-2.9,3.7-4.4c0-0.7-0.6-1.1-1.4-1.1c-0.4,0-0.6,0-0.9,0.1l-0.1,0.8h-1.3v-1.9
			c0.7-0.2,1.5-0.3,2.4-0.3c1.5,0,2.9,0.5,2.9,2.3c0,1.9-2.2,3.4-3.5,4.3v0.1h2.3l0.2-0.8l1.1,0l-0.1,2.1h-5.4V490.7z"/>
		<path class="st1" d="M661.6,491.7l0.2-1.3c0.5,0.1,1.4,0.2,2,0.2c1.1,0,1.7-0.3,1.7-1.2c0-0.7-0.5-1-1.2-1h-1.1v-1.2h1
			c0.8,0,1.2-0.4,1.2-1.1c0-0.8-0.7-1.1-1.5-1.1c-0.4,0-0.6,0-0.9,0.1l-0.1,0.7h-1.2v-1.8c0.7-0.2,1.4-0.3,2.4-0.3
			c1.5,0,3,0.5,3,2.1c0,0.9-0.6,1.6-1.4,1.7c0,0,0,0,0,0c0.9,0.2,1.6,0.8,1.6,1.8c0,1.9-1.7,2.4-3.4,2.4
			C663.2,492,662.4,492,661.6,491.7z"/>
	</g>
</g>
<polyline class="st7" points="89.2,456.5 132.7,455.6 176.5,454.3 220.4,452.7 263.1,449.9 306.5,446 349.9,442.1 393.9,432.9 
	437.4,427 481.5,412.3 524,412.8 567.6,364.1 611,308.9 654.1,130.9 "/>
<circle class="st1" cx="89.2" cy="456.3" r="2.4"/>
<circle class="st1" cx="133" cy="455.5" r="2.4"/>
<circle class="st1" cx="176.2" cy="454.2" r="2.4"/>
<circle class="st1" cx="220.6" cy="452.5" r="2.4"/>
<circle class="st1" cx="263.6" cy="450.1" r="2.4"/>
<circle class="st1" cx="306.5" cy="445.7" r="2.4"/>
<circle class="st1" cx="350.2" cy="442" r="2.4"/>
<circle class="st1" cx="394" cy="433" r="2.4"/>
<circle class="st1" cx="437" cy="427.1" r="2.4"/>
<circle class="st1" cx="481.5" cy="412.3" r="2.4"/>
<circle class="st1" cx="524.3" cy="412.7" r="2.4"/>
<circle class="st1" cx="567.4" cy="364.8" r="2.4"/>
<circle class="st1" cx="610.9" cy="308.6" r="2.4"/>
<circle class="st1" cx="653.5" cy="131.2" r="2.4"/>
<g>
	<path class="st3" d="M585.9,399.8l-0.1-2.5h2l0.2,1.1c0.4,0.1,1,0.1,1.4,0.1h0.2l0-2.4l-1-0.2c-1.6-0.3-2.7-1.1-2.7-2.8
		c0-2,1.4-3.1,3.7-3.2l0-1.4h0.7l0,1.4c1.3,0,2.1,0.2,3.1,0.4v2.5h-1.9l-0.2-1.2c-0.2,0-0.6-0.1-1-0.1l0,2.3l0.7,0.2
		c1.8,0.4,2.9,1.3,2.9,2.9c0,2.2-1.8,3.1-3.7,3.3l0,1.3h-0.7l0-1.3h-0.1C588,400.2,587,400,585.9,399.8z M589.4,393.6l0.2,0.1l0-2.1
		c-0.9,0.1-1.3,0.6-1.3,1.1C588.3,393.3,588.9,393.5,589.4,393.6z M590.3,396.3l0,2.1c0.8-0.1,1.2-0.5,1.2-1.1
		C591.4,396.7,590.9,396.4,590.3,396.3z"/>
	<path class="st3" d="M602.9,394.8c0,3.2-1.3,5.4-4.7,5.4c-1,0-2.1-0.1-2.6-0.3l0.4-1.9c0.2,0,1.2,0.2,2,0.2c1.7,0,2.2-0.8,2.3-2.4
		c-0.5,0.3-1.1,0.5-2.1,0.5c-2.3,0-3.1-1.3-3.1-3c0-2.2,1.3-3.5,3.9-3.5C601.6,389.8,602.9,391.6,602.9,394.8z M597.5,393.1
		c0,1,0.4,1.7,1.4,1.7c0.6,0,1.2-0.2,1.4-0.4c0.1-0.9,0.1-2.8-1.5-2.8C597.9,391.5,597.5,392.2,597.5,393.1z"/>
	<path class="st3" d="M604.1,398.9c0-0.9,0.3-1.3,1.3-1.3c1,0,1.3,0.6,1.3,1.3c0,0.7-0.2,1.3-1.3,1.3
		C604.4,400.2,604.1,399.6,604.1,398.9z"/>
	<path class="st3" d="M607.9,395c0-3.2,1.2-5.4,4.1-5.4c2.9,0,3.8,2.2,3.8,5.2c0,3-1.1,5.3-4,5.3C608.9,400.2,607.9,398,607.9,395z
		 M613.2,395c0-2.2-0.3-3.6-1.4-3.6c-1.3,0-1.4,1.8-1.4,3.5c0,2.3,0.4,3.6,1.5,3.6C613.1,398.4,613.2,396.3,613.2,395z"/>
	<path class="st3" d="M616.9,395c0-3.2,1.2-5.4,4.1-5.4c2.9,0,3.8,2.2,3.8,5.2c0,3-1.1,5.3-4,5.3C617.9,400.2,616.9,398,616.9,395z
		 M622.2,395c0-2.2-0.3-3.6-1.4-3.6c-1.3,0-1.4,1.8-1.4,3.5c0,2.3,0.4,3.6,1.5,3.6C622.1,398.4,622.2,396.3,622.2,395z"/>
	<path class="st3" d="M625.9,395c0-3.2,1.2-5.4,4.1-5.4c2.9,0,3.8,2.2,3.8,5.2c0,3-1.1,5.3-4,5.3C627,400.2,625.9,398,625.9,395z
		 M631.2,395c0-2.2-0.3-3.6-1.4-3.6c-1.3,0-1.4,1.8-1.4,3.5c0,2.3,0.4,3.6,1.5,3.6C631.1,398.4,631.2,396.3,631.2,395z"/>
	<path class="st3" d="M635,398.9c0-0.9,0.3-1.3,1.3-1.3c1,0,1.3,0.6,1.3,1.3c0,0.7-0.2,1.3-1.3,1.3C635.3,400.2,635,399.6,635,398.9
		z"/>
	<path class="st3" d="M638.8,395c0-3.2,1.2-5.4,4.1-5.4c2.9,0,3.8,2.2,3.8,5.2c0,3-1.1,5.3-4,5.3C639.9,400.2,638.8,398,638.8,395z
		 M644.2,395c0-2.2-0.3-3.6-1.4-3.6c-1.3,0-1.4,1.8-1.4,3.5c0,2.3,0.4,3.6,1.5,3.6C644,398.4,644.2,396.3,644.2,395z"/>
	<path class="st3" d="M647.8,395c0-3.2,1.2-5.4,4.1-5.4c2.9,0,3.8,2.2,3.8,5.2c0,3-1.1,5.3-4,5.3C648.9,400.2,647.8,398,647.8,395z
		 M653.2,395c0-2.2-0.3-3.6-1.4-3.6c-1.3,0-1.4,1.8-1.4,3.5c0,2.3,0.4,3.6,1.5,3.6C653,398.4,653.2,396.3,653.2,395z"/>
	<path class="st3" d="M656.8,395c0-3.2,1.2-5.4,4.1-5.4c2.9,0,3.8,2.2,3.8,5.2c0,3-1.1,5.3-4,5.3C657.9,400.2,656.8,398,656.8,395z
		 M662.2,395c0-2.2-0.3-3.6-1.4-3.6c-1.3,0-1.4,1.8-1.4,3.5c0,2.3,0.4,3.6,1.5,3.6C662,398.4,662.2,396.3,662.2,395z"/>
	<path class="st3" d="M666,398.9c0-0.9,0.3-1.3,1.3-1.3c1,0,1.3,0.6,1.3,1.3c0,0.7-0.2,1.3-1.3,1.3C666.2,400.2,666,399.6,666,398.9
		z"/>
	<path class="st3" d="M669.7,395c0-3.2,1.2-5.4,4.1-5.4c2.9,0,3.8,2.2,3.8,5.2c0,3-1.1,5.3-4,5.3C670.8,400.2,669.7,398,669.7,395z
		 M675.1,395c0-2.2-0.3-3.6-1.4-3.6c-1.3,0-1.4,1.8-1.4,3.5c0,2.3,0.4,3.6,1.5,3.6C675,398.4,675.1,396.3,675.1,395z"/>
	<path class="st3" d="M678.7,395c0-3.2,1.2-5.4,4.1-5.4c2.9,0,3.8,2.2,3.8,5.2c0,3-1.1,5.3-4,5.3C679.8,400.2,678.7,398,678.7,395z
		 M684.1,395c0-2.2-0.3-3.6-1.4-3.6c-1.3,0-1.4,1.8-1.4,3.5c0,2.3,0.4,3.6,1.5,3.6C684,398.4,684.1,396.3,684.1,395z"/>
	<path class="st3" d="M687.8,395c0-3.2,1.2-5.4,4.1-5.4c2.9,0,3.8,2.2,3.8,5.2c0,3-1.1,5.3-4,5.3C688.8,400.2,687.8,398,687.8,395z
		 M693.1,395c0-2.2-0.3-3.6-1.4-3.6c-1.3,0-1.4,1.8-1.4,3.5c0,2.3,0.4,3.6,1.5,3.6C693,398.4,693.1,396.3,693.1,395z"/>
</g>
<g>
	<path class="st1" d="M580.8,115.2l-0.1-2.5h2l0.2,1.1c0.4,0.1,1,0.1,1.4,0.1h0.2l0-2.4l-1-0.2c-1.6-0.3-2.7-1.1-2.7-2.8
		c0-2,1.4-3.1,3.7-3.2l0-1.4h0.7l0,1.4c1.3,0,2.1,0.2,3.1,0.4v2.5h-1.9l-0.2-1.2c-0.2,0-0.6-0.1-1-0.1l0,2.3l0.7,0.2
		c1.8,0.4,2.9,1.3,2.9,2.9c0,2.2-1.8,3.1-3.7,3.3l0,1.3h-0.7l0-1.3h-0.1C582.9,115.6,581.9,115.5,580.8,115.2z M584.2,109.1l0.2,0.1
		l0-2.1c-0.9,0.1-1.3,0.6-1.3,1.1C583.2,108.8,583.7,109,584.2,109.1z M585.2,111.7l0,2.1c0.8-0.1,1.2-0.5,1.2-1.1
		C586.3,112.1,585.8,111.9,585.2,111.7z"/>
	<path class="st1" d="M590,112.8c0-1,0.5-2.1,1.8-2.5c-1.2-0.4-1.6-1.2-1.6-2.3c0-2.2,1.8-2.9,3.7-2.9c1.9,0,3.7,0.8,3.7,2.8
		c0,1.1-0.5,2.1-1.7,2.4c1.2,0.3,1.8,1.2,1.8,2.3c0,2.2-1.8,2.9-4,2.9C591.8,115.6,590,115,590,112.8z M595.2,112.6
		c0-0.7-0.4-1.4-1.3-1.4c-0.9,0-1.4,0.5-1.4,1.4c0,0.9,0.5,1.2,1.4,1.2C594.7,113.8,595.2,113.5,595.2,112.6z M595.2,108.2
		c0-0.8-0.4-1.3-1.4-1.3c-0.8,0-1.3,0.5-1.3,1.3c0,0.7,0.3,1.3,1.4,1.3C594.7,109.5,595.2,109,595.2,108.2z"/>
	<path class="st1" d="M598.7,110.6c0-3.2,1.3-5.4,4.7-5.4c1,0,2.1,0.1,2.6,0.3l-0.4,1.9c-0.2,0-1.2-0.2-2-0.2
		c-1.7,0-2.2,0.8-2.3,2.4c0.5-0.3,1.1-0.5,2.1-0.5c2.2,0,3.1,1.3,3.1,3c0,2-1.3,3.5-3.9,3.5C600,115.6,598.7,113.8,598.7,110.6z
		 M604.1,112.3c0-1-0.4-1.7-1.4-1.7c-0.6,0-1.2,0.2-1.4,0.4c-0.1,0.8,0,2.8,1.5,2.8C603.7,113.8,604.1,113.2,604.1,112.3z"/>
	<path class="st1" d="M607.7,114.4c0-0.9,0.3-1.3,1.3-1.3c1,0,1.3,0.6,1.3,1.3c0,0.7-0.2,1.3-1.3,1.3
		C607.9,115.6,607.7,115.1,607.7,114.4z"/>
	<path class="st1" d="M611.4,112.8c0-1,0.5-2.1,1.8-2.5c-1.2-0.4-1.6-1.2-1.6-2.3c0-2.2,1.8-2.9,3.7-2.9c1.9,0,3.7,0.8,3.7,2.8
		c0,1.1-0.5,2.1-1.7,2.4c1.2,0.3,1.8,1.2,1.8,2.3c0,2.2-1.8,2.9-4,2.9C613.2,115.6,611.4,115,611.4,112.8z M616.6,112.6
		c0-0.7-0.4-1.4-1.3-1.4c-0.9,0-1.4,0.5-1.4,1.4c0,0.9,0.5,1.2,1.4,1.2C616.1,113.8,616.6,113.5,616.6,112.6z M616.6,108.2
		c0-0.8-0.4-1.3-1.4-1.3c-0.8,0-1.3,0.5-1.3,1.3c0,0.7,0.3,1.3,1.4,1.3C616.2,109.5,616.6,109,616.6,108.2z"/>
	<path class="st1" d="M620.1,110.6c0-3.2,1.3-5.4,4.7-5.4c1,0,2.1,0.1,2.6,0.3l-0.4,1.9c-0.2,0-1.2-0.2-2-0.2
		c-1.7,0-2.2,0.8-2.3,2.4c0.5-0.3,1.1-0.5,2.1-0.5c2.2,0,3.1,1.3,3.1,3c0,2-1.3,3.5-3.9,3.5C621.4,115.6,620.1,113.8,620.1,110.6z
		 M625.5,112.3c0-1-0.4-1.7-1.4-1.7c-0.6,0-1.2,0.2-1.4,0.4c-0.1,0.8,0,2.8,1.5,2.8C625.1,113.8,625.5,113.2,625.5,112.3z"/>
	<path class="st1" d="M629,113.6c2.1-1.8,4.5-3.3,4.5-5.2c0-0.9-0.7-1.3-1.6-1.3c-0.4,0-0.6,0-0.9,0.1l-0.1,1H629v-2.6
		c1-0.3,2.1-0.4,3.3-0.4c1.9,0,3.8,0.6,3.8,3c0,2.5-3.1,4.2-4.5,5.1v0.1h2.7l0.2-0.8l1.7,0l-0.1,2.8H629V113.6z"/>
	<path class="st1" d="M637.3,114.4c0-0.9,0.3-1.3,1.3-1.3c1,0,1.3,0.6,1.3,1.3c0,0.7-0.2,1.3-1.3,1.3
		C637.6,115.6,637.3,115.1,637.3,114.4z"/>
	<path class="st1" d="M641.1,110.5c0-3.2,1.2-5.4,4.1-5.4c2.9,0,3.8,2.2,3.8,5.2c0,3-1.1,5.3-4,5.3
		C642.1,115.6,641.1,113.5,641.1,110.5z M646.4,110.4c0-2.2-0.3-3.6-1.4-3.6c-1.3,0-1.4,1.8-1.4,3.5c0,2.3,0.4,3.6,1.5,3.6
		C646.3,113.9,646.4,111.8,646.4,110.4z"/>
	<path class="st1" d="M657.9,110.2c0,3.2-1.3,5.4-4.7,5.4c-1,0-2.1-0.1-2.6-0.3l0.4-1.9c0.2,0,1.2,0.2,2,0.2c1.7,0,2.2-0.8,2.3-2.4
		c-0.5,0.3-1.1,0.5-2.1,0.5c-2.3,0-3.1-1.3-3.1-3c0-2.2,1.3-3.5,3.9-3.5C656.5,105.2,657.9,107,657.9,110.2z M652.4,108.5
		c0,1,0.4,1.7,1.4,1.7c0.6,0,1.2-0.2,1.4-0.4c0.1-0.9,0.1-2.8-1.5-2.8C652.9,107,652.4,107.6,652.4,108.5z"/>
	<path class="st1" d="M658.8,115.2l0.3-1.9c0.5,0.1,1.8,0.3,2.6,0.3c1.3,0,1.9-0.3,1.9-1.2c0-0.7-0.5-1-1.3-1h-1.5v-1.8h1.2
		c0.8,0,1.4-0.4,1.4-1.2c0-0.9-0.7-1.2-1.7-1.2c-0.4,0-0.6,0-0.9,0.1l-0.1,0.8h-1.8v-2.4c1-0.2,1.9-0.4,3.2-0.4
		c1.9,0,3.9,0.6,3.9,2.8c0,1.2-0.8,2-1.8,2.2c0,0,0,0.1,0,0.1c1.1,0.2,1.9,1,1.9,2.3c0,2.4-2.3,3-4.4,3
		C660.9,115.6,659.9,115.6,658.8,115.2z"/>
	<path class="st1" d="M667.3,114.4c0-0.9,0.3-1.3,1.3-1.3c1,0,1.3,0.6,1.3,1.3c0,0.7-0.2,1.3-1.3,1.3
		C667.6,115.6,667.3,115.1,667.3,114.4z"/>
	<path class="st1" d="M678.9,110.2c0,3.2-1.3,5.4-4.7,5.4c-1,0-2.1-0.1-2.6-0.3l0.4-1.9c0.2,0,1.2,0.2,2,0.2c1.7,0,2.2-0.8,2.3-2.4
		c-0.5,0.3-1.1,0.5-2.1,0.5c-2.3,0-3.1-1.3-3.1-3c0-2.2,1.3-3.5,3.9-3.5C677.6,105.2,678.9,107,678.9,110.2z M673.5,108.5
		c0,1,0.4,1.7,1.4,1.7c0.6,0,1.2-0.2,1.4-0.4c0.1-0.9,0.1-2.8-1.5-2.8C673.9,107,673.5,107.6,673.5,108.5z"/>
	<path class="st1" d="M683.3,113.9l0.8-0.1v-1.2h-4.4V111l3.9-5.7h2.8v5.7h1.6l0,1.6h-1.5v1.3h0.7v1.5h-3.9V113.9z M684.1,111v-3.6
		H684l-2.5,3.6H684.1z"/>
	<path class="st1" d="M688.6,115.4l0.2-1.9c0.6,0.1,1.6,0.2,2.3,0.2c1.1,0,2-0.3,2-1.3c0-1-1-1.3-2.5-1.3c-0.9,0-1.4,0.2-1.7,0.2
		l-0.1-0.1l0.3-5.9h6.1l-0.1,2h-4l-0.1,2c0.3-0.1,0.7-0.1,1.2-0.1c1.9,0,3.3,0.9,3.3,2.8c0,2.6-1.8,3.5-4.2,3.5
		C690.4,115.6,689.6,115.5,688.6,115.4z"/>
</g>
<g>
	<path class="st3" d="M653,413.6l1.6-0.1v-8.2l-1.7,0.2v-0.9l2.7-0.5l0.3,0.1v9.2h1.5v0.8H653V413.6z"/>
	<path class="st3" d="M658.4,409.5c0-3.1,1.2-5.4,3.7-5.4c2.4,0,3.6,2.1,3.6,5.1c0,3.1-1.1,5.4-3.6,5.4
		C659.6,414.6,658.4,412.5,658.4,409.5z M664.4,409.5c0-2.3-0.4-4.5-2.4-4.5c-2,0-2.3,2.3-2.3,4.5c0,2.1,0.5,4.2,2.4,4.2
		C663.9,413.7,664.4,411.7,664.4,409.5z"/>
	<path class="st3" d="M667,415.9l0.3-2.8h1.3l0,0.2l-0.9,2.8L667,415.9z"/>
	<path class="st3" d="M670.1,414.2l0.2-1c0.8,0.2,1.7,0.4,2.3,0.4c1.7,0,2.9-0.5,2.9-2.1c0-1.3-0.9-1.9-2.2-1.9h-1.1v-0.9h1.1
		c1.2,0,1.9-0.6,1.9-1.8c0-1.4-1.3-1.8-2.5-1.8c-0.8,0-1.1,0.1-1.5,0.2l-0.1,1.2h-0.9v-1.9c0.8-0.2,1.4-0.4,2.8-0.4
		c2,0,3.5,0.8,3.5,2.6c0,1.1-0.7,2.1-1.8,2.3c0,0,0,0,0,0c1.3,0.2,2.1,1.1,2.1,2.3c0,2.3-1.8,3.2-4.1,3.2
		C672.2,414.6,671.1,414.5,670.1,414.2z"/>
	<path class="st3" d="M678.1,409.9c0-3.2,1.1-5.6,4.5-5.7c0.7,0,1.6,0.1,2,0.3l-0.2,0.9c-0.2-0.1-0.9-0.2-1.8-0.2
		c-2.3,0-3.1,1.8-3.2,3.8c0.5-0.4,1.5-0.8,2.6-0.8c1.9,0,3.1,1.1,3.1,3c0,2-1.3,3.4-3.5,3.4C679,414.6,678.1,412.4,678.1,409.9z
		 M684,411.3c0-1.4-0.8-2.3-2.2-2.3c-1.1,0-2.2,0.6-2.4,0.8c0,1.3,0.2,3.9,2.4,3.9C683.2,413.7,684,412.7,684,411.3z"/>
	<path class="st3" d="M686.3,406.9c0-1.7,0.6-3,2.1-3c1.4,0,2,1.2,2,2.8c0,1.7-0.6,2.9-2,2.9C687,409.6,686.3,408.5,686.3,406.9z
		 M689.5,406.8c0-1.2-0.2-2.3-1.2-2.3c-1,0-1.1,1.2-1.1,2.3c0,1.2,0.3,2.2,1.1,2.2C689.3,409,689.5,407.9,689.5,406.8z M687.6,414.3
		l5.9-10.2l0.6,0.3l-5.9,10.2L687.6,414.3z M691.5,411.8c0-1.7,0.6-3,2.1-3c1.4,0,2,1.2,2,2.8c0,1.7-0.6,2.9-2,2.9
		C692.1,414.6,691.5,413.5,691.5,411.8z M694.7,411.8c0-1.2-0.2-2.3-1.2-2.3c-1,0-1.1,1.2-1.1,2.3c0,1.2,0.3,2.2,1.1,2.2
		C694.4,414,694.7,412.9,694.7,411.8z"/>
</g>
<polyline class="st8" points="89.2,458.7 132.7,458.7 176.5,458.7 219.8,458.7 263.1,458.7 306.5,458.7 350.2,458.7 393.9,458.1 
	437,458.1 481.2,457.8 524.3,457.6 567.6,455.2 610.8,455.2 654.1,426 "/>
<circle class="st3" cx="89.2" cy="458.8" r="2.4"/>
<circle class="st3" cx="132.8" cy="458.8" r="2.4"/>
<circle class="st3" cx="176.1" cy="458.8" r="2.4"/>
<circle class="st3" cx="220.5" cy="458.8" r="2.4"/>
<circle class="st3" cx="263.3" cy="458.8" r="2.4"/>
<circle class="st3" cx="306.5" cy="458.8" r="2.4"/>
<circle class="st3" cx="350" cy="458.8" r="2.4"/>
<circle class="st3" cx="393.8" cy="457.6" r="2.4"/>
<circle class="st3" cx="436.8" cy="458" r="2.4"/>
<circle class="st3" cx="481.5" cy="458" r="2.4"/>
<circle class="st3" cx="524" cy="457.6" r="2.4"/>
<circle class="st3" cx="567.7" cy="455.2" r="2.4"/>
<circle class="st3" cx="610.8" cy="455.3" r="2.4"/>
<circle class="st3" cx="654.3" cy="425.8" r="2.4"/>
</svg>
