<?xml version="1.0" encoding="utf-8"?>
<!-- Generator: Adobe Illustrator 27.9.1, SVG Export Plug-In . SVG Version: 6.00 Build 0)  -->
<svg version="1.1" id="Layer_1" xmlns="http://www.w3.org/2000/svg" xmlns:xlink="http://www.w3.org/1999/xlink" x="0px" y="0px"
	 viewBox="0 0 740 436.2" style="enable-background:new 0 0 740 436.2;" xml:space="preserve">
<style type="text/css">
	.st0{clip-path:url(#SVGID_00000103958836727314456770000011338761767473175698_);}
	.st1{fill:#1D1D1B;}
	.st2{fill:none;stroke:#C9C9C9;stroke-width:0.7;stroke-miterlimit:10;}
	.st3{fill:#1EB66B;}
	.st4{fill:none;stroke:#000000;stroke-miterlimit:10;}
	.st5{fill:none;stroke:#C9C9C9;stroke-width:0.4192;stroke-miterlimit:10;}
	.st6{fill:none;stroke:#000000;stroke-width:0.5988;stroke-miterlimit:10;}
	.st7{fill:none;stroke:#1D1D1B;stroke-width:2;stroke-linecap:round;stroke-linejoin:round;stroke-miterlimit:10;}
	.st8{fill:none;stroke:#1EB66B;stroke-width:2;stroke-linecap:round;stroke-linejoin:round;stroke-miterlimit:10;}
	.st9{fill:none;stroke:#000000;stroke-width:0.6541;stroke-miterlimit:10;}
	.st10{fill:none;stroke:#C9C9C9;stroke-width:0.4578;stroke-miterlimit:10;}
	.st11{fill:none;stroke:#C4C4C4;stroke-width:0.7;stroke-miterlimit:10;}
	.st12{fill:#FFFFFF;stroke:#C4C4C4;stroke-width:0.7;stroke-miterlimit:10;}
	.st13{fill:#1AA0DC;}
	.st14{fill:#93D3F1;}
	.st15{fill:none;stroke:#000000;stroke-width:0.25;stroke-miterlimit:10;}
	.st16{fill:none;stroke:#000000;stroke-width:0.35;stroke-miterlimit:10;stroke-dasharray:1,1;}
	.st17{fill:#FFFFFF;stroke:#000000;stroke-width:0.6889;stroke-miterlimit:10;}
	.st18{fill:#FFFFFF;stroke:#000000;stroke-width:0.4957;stroke-miterlimit:10;}
	.st19{fill:#FFFFFF;stroke:#000000;stroke-width:0.5306;stroke-miterlimit:10;}
	.st20{fill:none;stroke:#1F1410;stroke-width:0.7;}
	.st21{fill:#1F1410;}
	.st22{fill:#FFFFFF;stroke:#1F1410;stroke-width:0.4183;}
	.st23{fill:#9A989D;}
	.st24{fill:#59595C;}
	.st25{fill:#626266;}
	.st26{fill:none;}
	.st27{fill:#706F6F;}
	.st28{fill:none;stroke:#D71380;stroke-width:4;}
	.st29{fill:#DD162A;stroke:#FFFFFF;stroke-width:2.5449;stroke-miterlimit:10;}
	.st30{fill:none;stroke:#199CDA;stroke-width:1.9569;stroke-miterlimit:4.0001;}
	.st31{fill:none;stroke:#199CDA;stroke-width:1.9568;stroke-miterlimit:4.0001;}
	.st32{fill:#199CD6;}
	.st33{fill:#FFFFFF;}
	.st34{fill:none;stroke:#199CDA;stroke-width:1.9568;}
	.st35{fill:#1F1410;stroke:#FFFFFF;stroke-width:1.9568;}
	.st36{fill:none;stroke:#C9C6C5;stroke-width:0.7;}
	.st37{fill:#FFFFFF;stroke:#1F1410;stroke-width:0.3291;}
	.st38{fill:none;stroke:#D71380;stroke-width:4;stroke-linecap:round;stroke-linejoin:round;}
	.st39{fill:none;stroke:#199CDA;stroke-width:1.0683;stroke-miterlimit:4.0001;}
	.st40{fill:none;stroke:#199CDA;stroke-width:1.0683;}
	.st41{fill:#1F1410;stroke:#FFFFFF;stroke-width:1.0683;}
	.st42{fill:none;stroke:#1F1410;stroke-width:0.6;}
	.st43{fill:none;stroke:#000000;stroke-linecap:round;stroke-linejoin:round;stroke-miterlimit:10;}
	.st44{fill:none;stroke:#A6A5A5;stroke-width:2;stroke-linecap:round;stroke-linejoin:round;stroke-miterlimit:10;}
	.st45{fill:none;stroke:#A6A5A5;stroke-miterlimit:10;}
	.st46{fill:none;stroke:#1D1D1B;stroke-miterlimit:10;}
	.st47{fill:#00A0E0;}
	.st48{fill:none;stroke:#00A0E0;stroke-width:1.4736;stroke-linecap:round;stroke-linejoin:round;stroke-miterlimit:10;}
	.st49{fill:none;stroke:#00A0E0;stroke-width:1.5;stroke-linecap:round;stroke-linejoin:round;stroke-miterlimit:10;}
	.st50{fill:none;stroke:#000000;stroke-width:2.9478;stroke-linecap:round;stroke-linejoin:round;stroke-miterlimit:10;}
	.st51{fill:none;stroke:#00A2E2;stroke-width:1.4739;stroke-linecap:round;stroke-linejoin:round;stroke-miterlimit:10;}
	.st52{fill:none;stroke:#000000;stroke-width:0.6132;stroke-linecap:round;stroke-linejoin:round;stroke-miterlimit:10;}
	.st53{fill:none;stroke:#A6A5A5;stroke-width:0.6132;stroke-miterlimit:10;}
	.st54{fill:none;stroke:#00A0E0;stroke-width:0.9036;stroke-linecap:round;stroke-linejoin:round;stroke-miterlimit:10;}
	.st55{fill:none;stroke:#00A0E0;stroke-width:0.9198;stroke-linecap:round;stroke-linejoin:round;stroke-miterlimit:10;}
	.st56{fill:none;stroke:#000000;stroke-width:1.8077;stroke-linecap:round;stroke-linejoin:round;stroke-miterlimit:10;}
	.st57{fill:none;stroke:#00A2E2;stroke-width:0.9038;stroke-linecap:round;stroke-linejoin:round;stroke-miterlimit:10;}
	.st58{fill:none;stroke:#1D1D1B;stroke-width:0.7;stroke-miterlimit:10;}
</style>
<g id="Parrafos_vertical_1360_x2F_960">
	<g id="Parrafos_1360_x2F_960">
	</g>
</g>
<g id="Ubicación_1360_x2F_960">
</g>
<g id="Ubicación_con_color_320">
</g>
<g id="Cifra_x5F_final">
</g>
<g id="Reloj">
</g>
<g id="Planisferio_ubicador">
</g>
<g id="Accidente_x5F_aeereo">
</g>
<g id="Lugar_accidente">
</g>
<g id="Capital_x5F_ubicador">
</g>
<g id="Ruta_320">
	<g id="Parrafos_vertical_1360_x2F_960_1_">
		<g id="Parrafos_1360_x2F_960_9_">
		</g>
	</g>
	<g id="Ubicación_con_color_1360_x2F_960">
	</g>
	<g id="Ubicación_con_marco_1360_x2F_960">
	</g>
	<g id="Lugar_principal_del_Mapa_1360_x2F_960">
	</g>
	<g id="Ruta_1360_x2F_960">
	</g>
	<g id="Mar_1360_x2F_960">
	</g>
	<g id="Calle_1360_x2F_960">
	</g>
	<g id="Número_y_aclaración_1360_x2F_960">
	</g>
	<g id="Subtítulo_info">
	</g>
	<g id="Titulo_1360_x2F__960">
	</g>
	<g id="Parrafos_1360_x2F_960_5_">
	</g>
</g>
<g id="Número_grande_320">
</g>
<g id="Mobile">
	<g id="Titulo_320">
	</g>
	<g id="Parrafos_vertical_320">
		<g id="Parrafos_1360_x2F_960_26_">
		</g>
	</g>
	<g id="Mar_320">
	</g>
	<g id="Calle_320">
	</g>
	<g id="Número_y_aclaración_320_19_">
	</g>
	<g id="Ubicación_con_punto_320">
		<g id="Detalle">
		</g>
	</g>
	<g id="Ubicación_con_marco_320">
	</g>
	<g id="Mobile_1_">
		<g id="Titulo_320_21_">
		</g>
		<g id="Parrafos_vertical_320_21_">
			<g id="Parrafos_1360_x2F_960_29_">
			</g>
		</g>
		<g id="Mar_320_21_">
		</g>
		<g id="Calle_320_21_">
		</g>
		<g id="Número_y_aclaración_320_22_">
		</g>
		<g id="Ubicación_con_punto_320_21_">
			<g id="Detalle_21_">
			</g>
		</g>
		<g id="Ubicación_con_marco_320_21_">
		</g>
	</g>
</g>
<g id="Número_y_aclaración_320">
</g>
<g id="Desktop">
</g>
<g id="Mobile_2_">
	<g id="Titulo_320_23_">
	</g>
	<g id="Parrafos_vertical_320_23_">
		<g id="Parrafos_1360_x2F_960_31_">
		</g>
	</g>
	<g id="Mar_320_23_">
	</g>
	<g id="Calle_320_23_">
	</g>
	<g id="Número_y_aclaración_320_24_">
	</g>
	<g id="Ubicación_con_punto_320_23_">
		<g id="Detalle_23_">
		</g>
	</g>
	<g id="Ubicación_con_marco_320_23_">
	</g>
</g>
<g id="Desktop_1_">
</g>
<g>
	<g>
		<path class="st1" d="M5.2,430.9l1-0.1v-7.2h-1v-0.7h6.6v2h-0.8l-0.1-1.2H7.2v3h2.7l0-0.8h0.7v2.3H10l0-0.8H7.2v3.5h1.5v0.7H5.2
			V430.9z"/>
		<path class="st1" d="M13.2,429.7l0-3.6h-0.8v-0.7l1.7-0.1l0.1,0.1l0,4.1c0,1.2,0.8,1.5,1.5,1.5c0.7,0,1.3-0.3,1.6-0.6l0-4.3h-0.9
			v-0.7l1.7-0.1l0.1,0.1l0,5.4l0.9,0v0.7l-1.6,0.1l-0.1-0.1l-0.1-0.6c-0.6,0.5-1.4,0.8-2.1,0.8C13.9,431.7,13.2,430.9,13.2,429.7z"
			/>
		<path class="st1" d="M20.1,428.5c0-1.9,1.1-3.2,2.9-3.2c1.7,0,2.6,1.2,2.6,2.6v0.6h-4.5c0,1.4,0.7,2.5,2.3,2.5
			c0.7,0,1.2-0.1,1.8-0.3l0.2,0.7c-0.6,0.2-1.5,0.4-2.1,0.4C21.1,431.7,20.1,430.4,20.1,428.5z M24.6,427.8c0-1.2-0.6-1.8-1.7-1.8
			c-0.9,0-1.7,0.6-1.8,1.9L24.6,427.8z"/>
		<path class="st1" d="M26.6,430.9l0.8-0.1v-4.7l-0.9,0v-0.7l1.6-0.1l0.1,0.1l0.1,0.6c0.6-0.5,1.3-0.8,2.1-0.8
			c1.4,0,2.1,0.8,2.1,2.1v3.6h0.8v0.7h-2.5v-0.7l0.7-0.1v-3.4c0-1.2-0.8-1.5-1.5-1.5c-0.7,0-1.3,0.3-1.6,0.6v4.3h0.8v0.7h-2.6V430.9
			z"/>
		<path class="st1" d="M35,429.9v-3.8h-0.9v-0.6l0.9-0.1l0.3-1.4H36v1.4h1.9v0.7H36v3.8c0,0.7,0.3,1,1,1c0.2,0,0.7,0,0.9-0.1
			l0.1,0.7c-0.4,0.1-0.9,0.2-1.2,0.2C35.7,431.7,35,431.1,35,429.9z"/>
		<path class="st1" d="M38.9,428.5c0-1.9,1.1-3.2,2.9-3.2c1.7,0,2.6,1.2,2.6,2.6v0.6h-4.5c0,1.4,0.7,2.5,2.3,2.5
			c0.7,0,1.2-0.1,1.8-0.3l0.2,0.7c-0.6,0.2-1.5,0.4-2.1,0.4C39.9,431.7,38.9,430.4,38.9,428.5z M43.4,427.8c0-1.2-0.6-1.8-1.7-1.8
			c-0.9,0-1.7,0.6-1.8,1.9L43.4,427.8z"/>
		<path class="st1" d="M45.6,426.2c0-0.4,0.2-0.7,0.6-0.7c0.5,0,0.6,0.3,0.6,0.7c0,0.4-0.2,0.7-0.6,0.7S45.6,426.6,45.6,426.2z
			 M45.6,431c0-0.4,0.2-0.7,0.6-0.7c0.5,0,0.6,0.3,0.6,0.7c0,0.4-0.2,0.7-0.6,0.7S45.6,431.4,45.6,431z"/>
		<path class="st1" d="M50.8,427.4c0-3,1.7-4.6,4.7-4.6c0.8,0,1.9,0,2.9,0.3v1.8h-0.8l-0.1-1.2c-0.7-0.1-1.2-0.2-2-0.2
			c-2.4,0-3.6,1.4-3.6,3.8c0,2.5,1.1,3.6,3.4,3.6c1,0,1.7-0.2,2.1-0.2V428h-2.3v-0.8h4.2v0.8h-0.9v3.2c-0.9,0.3-2.2,0.5-3.2,0.5
			C52.3,431.7,50.8,430.2,50.8,427.4z"/>
		<path class="st1" d="M60.3,430.9l0.8-0.1v-7.7h-0.9v-0.7l1.8-0.1l0.1,0.1v8.5h0.8v0.7h-2.6V430.9z"/>
		<path class="st1" d="M63.9,428.6c0-1.9,0.9-3.3,3-3.3c1.9,0,3,1.2,3,3.1c0,2-1,3.3-3.1,3.3C64.9,431.7,63.9,430.5,63.9,428.6z
			 M68.8,428.5c0-1.5-0.6-2.6-2-2.6c-1.4,0-1.9,1.1-1.9,2.5c0,1.5,0.5,2.5,1.9,2.5C68.3,431,68.8,430,68.8,428.5z"/>
		<path class="st1" d="M71.6,431.4v-8.3h-0.9v-0.7l1.8-0.1l0.1,0.1v3.4c0.5-0.3,1.1-0.6,1.9-0.6c1.8,0,2.7,1.2,2.7,3
			c0,2.1-1.4,3.4-3.2,3.4C73.2,431.7,72.4,431.6,71.6,431.4z M76.2,428.4c0-1.4-0.6-2.4-2-2.4c-0.7,0-1.3,0.2-1.7,0.5v4.3
			c0.4,0.1,0.9,0.2,1.4,0.2C75.5,431,76.2,429.7,76.2,428.4z"/>
		<path class="st1" d="M78.4,430c0-1.5,1.5-2.1,4-2.1v-0.7c0-0.7-0.4-1.2-1.3-1.2c-0.9,0-1.6,0.2-2.2,0.4l-0.2-0.7
			c0.6-0.2,1.3-0.5,2.5-0.5c1.4,0,2.1,0.7,2.1,1.9v3l0.1,0.7h0.9v0.6l-1.4,0.1h-0.3l-0.1-0.7c-0.6,0.6-1.5,0.8-2.3,0.8
			C79,431.7,78.4,430.9,78.4,430z M82.4,430.4v-1.8c-2.3-0.1-3,0.6-3,1.4c0,0.7,0.5,1.1,1.2,1.1C81.4,431,82,430.6,82.4,430.4z"/>
		<path class="st1" d="M85.2,430.9l0.8-0.1v-7.7h-0.9v-0.7l1.8-0.1l0.1,0.1v8.5h0.8v0.7h-2.6V430.9z"/>
		<path class="st1" d="M91.5,430.9l1-0.1v-7.2h-1v-0.7H98v2h-0.8l-0.1-1.2h-3.6v3h2.7l0-0.8H97v2.3h-0.7l0-0.8h-2.7v3.5H95v0.7h-3.5
			V430.9z"/>
		<path class="st1" d="M99,428.6c0-1.9,0.9-3.3,3-3.3c1.9,0,3,1.2,3,3.1c0,2-1,3.3-3.1,3.3C100,431.7,99,430.5,99,428.6z
			 M103.9,428.5c0-1.5-0.6-2.6-2-2.6c-1.4,0-1.9,1.1-1.9,2.5c0,1.5,0.5,2.5,1.9,2.5C103.4,431,103.9,430,103.9,428.5z"/>
		<path class="st1" d="M106.1,430.9l0.8-0.1v-4.7l-0.9,0v-0.7l1.6-0.1l0.1,0.1l0.1,0.8c0.6-0.5,1.6-0.8,2.4-0.8c0.3,0,0.5,0,0.6,0
			v1.4h-0.9V426c-0.8,0-1.5,0.3-2.1,0.7v4.1h1.1v0.7h-2.9V430.9z"/>
		<path class="st1" d="M111.7,428.5c0-1.9,1.1-3.2,2.9-3.2c1.7,0,2.6,1.2,2.6,2.6v0.6h-4.5c0,1.4,0.7,2.5,2.3,2.5
			c0.7,0,1.2-0.1,1.8-0.3l0.2,0.7c-0.6,0.2-1.5,0.4-2.1,0.4C112.8,431.7,111.7,430.4,111.7,428.5z M116.3,427.8
			c0-1.2-0.6-1.8-1.7-1.8c-0.9,0-1.7,0.6-1.8,1.9L116.3,427.8z"/>
		<path class="st1" d="M118.4,431.4l-0.1-1.5h0.8l0.1,0.9c0.4,0.1,0.7,0.2,1.1,0.2c0.8,0,1.6-0.3,1.6-1c0-0.7-0.5-0.9-1.2-1.2
			l-0.6-0.2c-0.9-0.3-1.6-0.7-1.6-1.7c0-0.9,0.7-1.7,2.3-1.7c0.5,0,1.4,0.1,1.9,0.3l0,1.4h-0.8l-0.1-0.8c-0.4-0.1-0.7-0.2-1.1-0.2
			c-0.7,0-1.3,0.3-1.3,0.9c0,0.6,0.6,0.9,1.3,1.1l0.5,0.2c1.1,0.3,1.8,0.9,1.8,1.8c0,1.3-1.3,1.9-2.6,1.9
			C119.6,431.7,119,431.6,118.4,431.4z"/>
		<path class="st1" d="M124.7,429.9v-3.8h-0.9v-0.6l0.9-0.1l0.3-1.4h0.7v1.4h1.9v0.7h-1.9v3.8c0,0.7,0.3,1,1,1c0.2,0,0.7,0,0.9-0.1
			l0.1,0.7c-0.4,0.1-0.9,0.2-1.2,0.2C125.4,431.7,124.7,431.1,124.7,429.9z"/>
		<path class="st1" d="M131.8,423.7l-0.9-0.1v-0.7h3v0.7h-1.1l1.4,5.8l0.2,1h0l0.2-1l1.8-6.4h1.1l1.8,6.5l0.2,1h0l0.2-1l1.4-5.8
			h-1.1v-0.7h3v0.7l-0.9,0.1l-2,7.9H139l-1.9-7.2L137,424h0l-0.1,0.4l-2,7.2h-1.1L131.8,423.7z"/>
		<path class="st1" d="M143.8,430c0-1.5,1.5-2.1,4-2.1v-0.7c0-0.7-0.4-1.2-1.3-1.2c-0.9,0-1.6,0.2-2.2,0.4l-0.2-0.7
			c0.6-0.2,1.3-0.5,2.5-0.5c1.4,0,2.1,0.7,2.1,1.9v3l0.1,0.7h0.9v0.6l-1.4,0.1H148l-0.1-0.7c-0.6,0.6-1.5,0.8-2.3,0.8
			C144.4,431.7,143.8,430.9,143.8,430z M147.8,430.4v-1.8c-2.3-0.1-3,0.6-3,1.4c0,0.7,0.5,1.1,1.2,1.1
			C146.9,431,147.5,430.6,147.8,430.4z"/>
		<path class="st1" d="M151.4,429.9v-3.8h-0.9v-0.6l0.9-0.1l0.3-1.4h0.7v1.4h1.9v0.7h-1.9v3.8c0,0.7,0.3,1,1,1c0.2,0,0.7,0,0.9-0.1
			l0.1,0.7c-0.4,0.1-0.9,0.2-1.2,0.2C152.1,431.7,151.4,431.1,151.4,429.9z"/>
		<path class="st1" d="M155.3,428.5c0-2,1.2-3.3,3.2-3.3c0.5,0,1.4,0.1,1.9,0.2l0,1.5h-0.7l-0.1-0.9c-0.4-0.1-0.7-0.1-1.1-0.1
			c-1.4,0-2.2,1-2.2,2.5c0,1.6,0.9,2.5,2.3,2.5c0.6,0,1.2-0.1,1.7-0.3l0.1,0.7c-0.6,0.2-1.3,0.3-1.9,0.3
			C156.6,431.7,155.3,430.7,155.3,428.5z"/>
		<path class="st1" d="M161.6,430.9l0.8-0.1v-7.7h-0.9v-0.7l1.8-0.1l0.1,0.1v3.6c0.6-0.5,1.3-0.7,2-0.7c1.4,0,2.1,0.8,2.1,2.1v3.6
			h0.8v0.7h-2.6v-0.7l0.8-0.1v-3.4c0-1.2-0.8-1.5-1.5-1.5c-0.7,0-1.3,0.3-1.6,0.6v4.3h0.8v0.7h-2.6V430.9z"/>
	</g>
</g>
<g>
	<g>
		<g>
			<path d="M39.9,376.3c0-2.7,1-4.7,3.1-4.7c2.1,0,3,1.8,3,4.4c0,2.6-0.9,4.6-3.1,4.6C40.9,380.6,39.9,378.9,39.9,376.3z M45,376.2
				c0-1.9-0.3-3.8-2.1-3.8c-1.7,0-2,2-2,3.8c0,1.8,0.4,3.6,2,3.6C44.6,379.9,45,378.1,45,376.2z"/>
		</g>
		<g>
			<path d="M3.3,329.4l1.4-0.1v-7l-1.5,0.2v-0.7l2.3-0.4l0.2,0.1v7.9H7v0.7H3.3V329.4z"/>
			<path d="M8,325.9c0-2.7,1-4.7,3.1-4.7c2.1,0,3,1.8,3,4.4c0,2.6-0.9,4.6-3.1,4.6C9,330.2,8,328.4,8,325.9z M13.1,325.8
				c0-1.9-0.3-3.8-2.1-3.8c-1.7,0-2,2-2,3.8c0,1.8,0.4,3.6,2,3.6C12.7,329.4,13.1,327.7,13.1,325.8z"/>
			<path d="M15.3,325.9c0-2.7,1-4.7,3.1-4.7c2.1,0,3,1.8,3,4.4c0,2.6-0.9,4.6-3.1,4.6C16.3,330.2,15.3,328.4,15.3,325.9z
				 M20.4,325.8c0-1.9-0.3-3.8-2.1-3.8c-1.7,0-2,2-2,3.8c0,1.8,0.4,3.6,2,3.6C19.9,329.4,20.4,327.7,20.4,325.8z"/>
			<path d="M22.7,329.5c0-0.4,0.2-0.7,0.6-0.7c0.5,0,0.6,0.3,0.6,0.7c0,0.4-0.2,0.7-0.6,0.7S22.7,329.9,22.7,329.5z"/>
			<path d="M25.3,325.9c0-2.7,1-4.7,3.1-4.7c2.1,0,3,1.8,3,4.4c0,2.6-0.9,4.6-3.1,4.6C26.4,330.2,25.3,328.4,25.3,325.9z
				 M30.5,325.8c0-1.9-0.3-3.8-2.1-3.8c-1.7,0-2,2-2,3.8c0,1.8,0.4,3.6,2,3.6C30,329.4,30.5,327.7,30.5,325.8z"/>
			<path d="M32.6,325.9c0-2.7,1-4.7,3.1-4.7c2.1,0,3,1.8,3,4.4c0,2.6-0.9,4.6-3.1,4.6C33.7,330.2,32.6,328.4,32.6,325.9z
				 M37.7,325.8c0-1.9-0.3-3.8-2.1-3.8c-1.7,0-2,2-2,3.8c0,1.8,0.4,3.6,2,3.6C37.3,329.4,37.7,327.7,37.7,325.8z"/>
			<path d="M39.9,325.9c0-2.7,1-4.7,3.1-4.7c2.1,0,3,1.8,3,4.4c0,2.6-0.9,4.6-3.1,4.6C40.9,330.2,39.9,328.4,39.9,325.9z M45,325.8
				c0-1.9-0.3-3.8-2.1-3.8c-1.7,0-2,2-2,3.8c0,1.8,0.4,3.6,2,3.6C44.6,329.4,45,327.7,45,325.8z"/>
		</g>
		<g>
			<path d="M1.4,278.9c2.2-2.1,4.3-3.8,4.3-5.6c0-1-0.9-1.6-2.1-1.6c-0.7,0-0.9,0.1-1.3,0.2l-0.1,1.1H1.5v-1.6
				c0.6-0.2,1.3-0.4,2.4-0.4c1.5,0,3,0.8,3,2.4c0,1.9-2.3,3.8-4.2,5.5v0H6l0.2-1.1h0.7l-0.1,1.9H1.4V278.9z"/>
			<path d="M8,275.4c0-2.7,1-4.7,3.1-4.7c2.1,0,3,1.8,3,4.4c0,2.6-0.9,4.6-3.1,4.6C9,279.8,8,278,8,275.4z M13.1,275.4
				c0-1.9-0.3-3.8-2.1-3.8c-1.7,0-2,2-2,3.8c0,1.8,0.4,3.6,2,3.6C12.7,279,13.1,277.3,13.1,275.4z"/>
			<path d="M15.3,275.4c0-2.7,1-4.7,3.1-4.7c2.1,0,3,1.8,3,4.4c0,2.6-0.9,4.6-3.1,4.6C16.3,279.8,15.3,278,15.3,275.4z M20.4,275.4
				c0-1.9-0.3-3.8-2.1-3.8c-1.7,0-2,2-2,3.8c0,1.8,0.4,3.6,2,3.6C19.9,279,20.4,277.3,20.4,275.4z"/>
			<path d="M22.7,279.1c0-0.4,0.2-0.7,0.6-0.7c0.5,0,0.6,0.3,0.6,0.7c0,0.4-0.2,0.7-0.6,0.7S22.7,279.5,22.7,279.1z"/>
			<path d="M25.4,275.4c0-2.7,1-4.7,3.1-4.7c2.1,0,3,1.8,3,4.4c0,2.6-0.9,4.6-3.1,4.6C26.4,279.8,25.4,278,25.4,275.4z M30.5,275.4
				c0-1.9-0.3-3.8-2.1-3.8c-1.7,0-2,2-2,3.8c0,1.8,0.4,3.6,2,3.6C30,279,30.5,277.3,30.5,275.4z"/>
			<path d="M32.6,275.4c0-2.7,1-4.7,3.1-4.7c2.1,0,3,1.8,3,4.4c0,2.6-0.9,4.6-3.1,4.6C33.7,279.8,32.6,278,32.6,275.4z M37.7,275.4
				c0-1.9-0.3-3.8-2.1-3.8c-1.7,0-2,2-2,3.8c0,1.8,0.4,3.6,2,3.6C37.3,279,37.7,277.3,37.7,275.4z"/>
			<path d="M39.9,275.4c0-2.7,1-4.7,3.1-4.7c2.1,0,3,1.8,3,4.4c0,2.6-0.9,4.6-3.1,4.6C40.9,279.8,39.9,278,39.9,275.4z M45,275.4
				c0-1.9-0.3-3.8-2.1-3.8c-1.7,0-2,2-2,3.8c0,1.8,0.4,3.6,2,3.6C44.6,279,45,277.3,45,275.4z"/>
		</g>
		<g>
			<path d="M1.2,229l0.2-0.8c0.7,0.2,1.4,0.3,2,0.3c1.4,0,2.5-0.4,2.5-1.8c0-1.1-0.8-1.6-1.9-1.6H3v-0.8h1c1.1,0,1.6-0.5,1.6-1.5
				c0-1.2-1.1-1.5-2.1-1.5c-0.7,0-0.9,0.1-1.3,0.2l-0.1,1H1.2v-1.6c0.6-0.2,1.2-0.4,2.4-0.4c1.7,0,3,0.7,3,2.2c0,1-0.6,1.8-1.5,1.9
				c0,0,0,0,0,0c1.1,0.2,1.8,1,1.8,2c0,2-1.5,2.7-3.5,2.7C2.9,229.3,1.9,229.3,1.2,229z"/>
			<path d="M8,225c0-2.7,1-4.7,3.1-4.7c2.1,0,3,1.8,3,4.4c0,2.6-0.9,4.6-3.1,4.6C9,229.3,8,227.6,8,225z M13.1,224.9
				c0-1.9-0.3-3.8-2.1-3.8c-1.7,0-2,2-2,3.8c0,1.8,0.4,3.6,2,3.6C12.7,228.6,13.1,226.8,13.1,224.9z"/>
			<path d="M15.3,225c0-2.7,1-4.7,3.1-4.7c2.1,0,3,1.8,3,4.4c0,2.6-0.9,4.6-3.1,4.6C16.3,229.3,15.3,227.6,15.3,225z M20.4,224.9
				c0-1.9-0.3-3.8-2.1-3.8c-1.7,0-2,2-2,3.8c0,1.8,0.4,3.6,2,3.6C19.9,228.6,20.4,226.8,20.4,224.9z"/>
			<path d="M22.7,228.6c0-0.4,0.2-0.7,0.6-0.7c0.5,0,0.6,0.3,0.6,0.7c0,0.4-0.2,0.7-0.6,0.7S22.7,229,22.7,228.6z"/>
			<path d="M25.4,225c0-2.7,1-4.7,3.1-4.7c2.1,0,3,1.8,3,4.4c0,2.6-0.9,4.6-3.1,4.6C26.4,229.3,25.4,227.6,25.4,225z M30.5,224.9
				c0-1.9-0.3-3.8-2.1-3.8c-1.7,0-2,2-2,3.8c0,1.8,0.4,3.6,2,3.6C30,228.6,30.5,226.8,30.5,224.9z"/>
			<path d="M32.6,225c0-2.7,1-4.7,3.1-4.7c2.1,0,3,1.8,3,4.4c0,2.6-0.9,4.6-3.1,4.6C33.7,229.3,32.6,227.6,32.6,225z M37.7,224.9
				c0-1.9-0.3-3.8-2.1-3.8c-1.7,0-2,2-2,3.8c0,1.8,0.4,3.6,2,3.6C37.3,228.6,37.7,226.8,37.7,224.9z"/>
			<path d="M39.9,225c0-2.7,1-4.7,3.1-4.7c2.1,0,3,1.8,3,4.4c0,2.6-0.9,4.6-3.1,4.6C40.9,229.3,39.9,227.6,39.9,225z M45,224.9
				c0-1.9-0.3-3.8-2.1-3.8c-1.7,0-2,2-2,3.8c0,1.8,0.4,3.6,2,3.6C44.6,228.6,45,226.8,45,224.9z"/>
		</g>
		<g>
			<path d="M3.7,178.1l0.9-0.1v-1.8H0.7v-0.8l3.8-5.2h1.2v5.3h1.7l0,0.8H5.6v1.9h0.7v0.7H3.7V178.1z M4.6,175.4v-4.2h0l-3,4.2H4.6z"
				/>
			<path d="M8,174.6c0-2.7,1-4.7,3.1-4.7c2.1,0,3,1.8,3,4.4c0,2.6-0.9,4.6-3.1,4.6C9,178.9,8,177.1,8,174.6z M13.1,174.5
				c0-1.9-0.3-3.8-2.1-3.8c-1.7,0-2,2-2,3.8c0,1.8,0.4,3.6,2,3.6C12.7,178.1,13.1,176.4,13.1,174.5z"/>
			<path d="M15.3,174.6c0-2.7,1-4.7,3.1-4.7c2.1,0,3,1.8,3,4.4c0,2.6-0.9,4.6-3.1,4.6C16.3,178.9,15.3,177.1,15.3,174.6z
				 M20.4,174.5c0-1.9-0.3-3.8-2.1-3.8c-1.7,0-2,2-2,3.8c0,1.8,0.4,3.6,2,3.6C19.9,178.1,20.4,176.4,20.4,174.5z"/>
			<path d="M22.7,178.2c0-0.4,0.2-0.7,0.6-0.7c0.5,0,0.6,0.3,0.6,0.7c0,0.4-0.2,0.7-0.6,0.7S22.7,178.6,22.7,178.2z"/>
			<path d="M25.4,174.6c0-2.7,1-4.7,3.1-4.7c2.1,0,3,1.8,3,4.4c0,2.6-0.9,4.6-3.1,4.6C26.4,178.9,25.4,177.1,25.4,174.6z
				 M30.5,174.5c0-1.9-0.3-3.8-2.1-3.8c-1.7,0-2,2-2,3.8c0,1.8,0.4,3.6,2,3.6C30,178.1,30.5,176.4,30.5,174.5z"/>
			<path d="M32.6,174.6c0-2.7,1-4.7,3.1-4.7c2.1,0,3,1.8,3,4.4c0,2.6-0.9,4.6-3.1,4.6C33.7,178.9,32.6,177.1,32.6,174.6z
				 M37.7,174.5c0-1.9-0.3-3.8-2.1-3.8c-1.7,0-2,2-2,3.8c0,1.8,0.4,3.6,2,3.6C37.3,178.1,37.7,176.4,37.7,174.5z"/>
			<path d="M39.9,174.6c0-2.7,1-4.7,3.1-4.7c2.1,0,3,1.8,3,4.4c0,2.6-0.9,4.6-3.1,4.6C40.9,178.9,39.9,177.1,39.9,174.6z M45,174.5
				c0-1.9-0.3-3.8-2.1-3.8c-1.7,0-2,2-2,3.8c0,1.8,0.4,3.6,2,3.6C44.6,178.1,45,176.4,45,174.5z"/>
		</g>
		<g>
			<path d="M1.3,128.2l0.2-0.8c0.7,0.2,1.4,0.3,2,0.3c1.6,0,2.4-0.8,2.4-2c0-1-0.7-1.8-2.3-1.8c-0.9,0-1.6,0.4-1.8,0.4l-0.1-0.1
				l0.4-4.5h4.5l-0.1,0.8H2.9l-0.3,2.8C3,123.1,3.5,123,4,123c1.9,0,2.8,1.2,2.8,2.5c0,2-1.4,2.9-3.4,2.9
				C3,128.5,2.1,128.4,1.3,128.2z"/>
			<path d="M8,124.1c0-2.7,1-4.7,3.1-4.7c2.1,0,3,1.8,3,4.4c0,2.6-0.9,4.6-3.1,4.6C9,128.5,8,126.7,8,124.1z M13.1,124.1
				c0-1.9-0.3-3.8-2.1-3.8c-1.7,0-2,2-2,3.8c0,1.8,0.4,3.6,2,3.6C12.7,127.7,13.1,126,13.1,124.1z"/>
			<path d="M15.3,124.1c0-2.7,1-4.7,3.1-4.7c2.1,0,3,1.8,3,4.4c0,2.6-0.9,4.6-3.1,4.6C16.3,128.5,15.3,126.7,15.3,124.1z
				 M20.4,124.1c0-1.9-0.3-3.8-2.1-3.8c-1.7,0-2,2-2,3.8c0,1.8,0.4,3.6,2,3.6C19.9,127.7,20.4,126,20.4,124.1z"/>
			<path d="M22.7,127.8c0-0.4,0.2-0.7,0.6-0.7c0.5,0,0.6,0.3,0.6,0.7c0,0.4-0.2,0.7-0.6,0.7S22.7,128.2,22.7,127.8z"/>
			<path d="M25.4,124.1c0-2.7,1-4.7,3.1-4.7c2.1,0,3,1.8,3,4.4c0,2.6-0.9,4.6-3.1,4.6C26.4,128.5,25.4,126.7,25.4,124.1z
				 M30.5,124.1c0-1.9-0.3-3.8-2.1-3.8c-1.7,0-2,2-2,3.8c0,1.8,0.4,3.6,2,3.6C30,127.7,30.5,126,30.5,124.1z"/>
			<path d="M32.6,124.1c0-2.7,1-4.7,3.1-4.7c2.1,0,3,1.8,3,4.4c0,2.6-0.9,4.6-3.1,4.6C33.7,128.5,32.6,126.7,32.6,124.1z
				 M37.7,124.1c0-1.9-0.3-3.8-2.1-3.8c-1.7,0-2,2-2,3.8c0,1.8,0.4,3.6,2,3.6C37.3,127.7,37.7,126,37.7,124.1z"/>
			<path d="M39.9,124.1c0-2.7,1-4.7,3.1-4.7c2.1,0,3,1.8,3,4.4c0,2.6-0.9,4.6-3.1,4.6C41,128.5,39.9,126.7,39.9,124.1z M45,124.1
				c0-1.9-0.3-3.8-2.1-3.8c-1.7,0-2,2-2,3.8c0,1.8,0.4,3.6,2,3.6C44.6,127.7,45,126,45,124.1z"/>
		</g>
		<g>
			<path d="M0.8,74c0-2.7,0.9-4.8,3.8-4.9c0.6,0,1.4,0.1,1.7,0.2l-0.2,0.8c-0.2,0-0.8-0.2-1.5-0.2c-2,0-2.7,1.5-2.7,3.3
				c0.4-0.3,1.3-0.7,2.3-0.7c1.6,0,2.7,0.9,2.7,2.6c0,1.8-1.1,2.9-3,2.9C1.6,78,0.8,76.1,0.8,74z M5.9,75.2c0-1.2-0.7-2-1.9-2
				c-1,0-1.9,0.5-2.1,0.7c0,1.1,0.2,3.3,2.1,3.3C5.2,77.3,5.9,76.4,5.9,75.2z"/>
			<path d="M8,73.7c0-2.7,1-4.7,3.1-4.7c2.1,0,3,1.8,3,4.4c0,2.6-0.9,4.6-3.1,4.6C9,78,8,76.2,8,73.7z M13.1,73.6
				c0-1.9-0.3-3.8-2.1-3.8c-1.7,0-2,2-2,3.8c0,1.8,0.4,3.6,2,3.6C12.7,77.3,13.1,75.5,13.1,73.6z"/>
			<path d="M15.3,73.7c0-2.7,1-4.7,3.1-4.7c2.1,0,3,1.8,3,4.4c0,2.6-0.9,4.6-3.1,4.6C16.3,78,15.3,76.2,15.3,73.7z M20.4,73.6
				c0-1.9-0.3-3.8-2.1-3.8c-1.7,0-2,2-2,3.8c0,1.8,0.4,3.6,2,3.6C19.9,77.3,20.4,75.5,20.4,73.6z"/>
			<path d="M22.7,77.3c0-0.4,0.2-0.7,0.6-0.7c0.5,0,0.6,0.3,0.6,0.7c0,0.4-0.2,0.7-0.6,0.7S22.7,77.7,22.7,77.3z"/>
			<path d="M25.3,73.7c0-2.7,1-4.7,3.1-4.7c2.1,0,3,1.8,3,4.4c0,2.6-0.9,4.6-3.1,4.6C26.4,78,25.3,76.2,25.3,73.7z M30.5,73.6
				c0-1.9-0.3-3.8-2.1-3.8c-1.7,0-2,2-2,3.8c0,1.8,0.4,3.6,2,3.6C30,77.3,30.5,75.5,30.5,73.6z"/>
			<path d="M32.6,73.7c0-2.7,1-4.7,3.1-4.7c2.1,0,3,1.8,3,4.4c0,2.6-0.9,4.6-3.1,4.6C33.7,78,32.6,76.2,32.6,73.7z M37.7,73.6
				c0-1.9-0.3-3.8-2.1-3.8c-1.7,0-2,2-2,3.8c0,1.8,0.4,3.6,2,3.6C37.3,77.3,37.7,75.5,37.7,73.6z"/>
			<path d="M39.9,73.7c0-2.7,1-4.7,3.1-4.7c2.1,0,3,1.8,3,4.4c0,2.6-0.9,4.6-3.1,4.6C40.9,78,39.9,76.2,39.9,73.7z M45,73.6
				c0-1.9-0.3-3.8-2.1-3.8c-1.7,0-2,2-2,3.8c0,1.8,0.4,3.6,2,3.6C44.6,77.3,45,75.5,45,73.6z"/>
		</g>
	</g>
</g>
<line class="st2" x1="56.2" y1="328.7" x2="740" y2="328.7"/>
<line class="st2" x1="56.2" y1="278.3" x2="740" y2="278.3"/>
<line class="st2" x1="56.2" y1="227.9" x2="740" y2="227.9"/>
<line class="st2" x1="56.2" y1="177.4" x2="740" y2="177.4"/>
<line class="st2" x1="56.2" y1="127" x2="740" y2="127"/>
<line class="st2" x1="56.2" y1="76.6" x2="740" y2="76.6"/>
<rect x="69.1" y="304.6" class="st3" width="14.8" height="74.5"/>
<rect x="99.1" y="326.2" class="st3" width="14.8" height="53"/>
<rect x="129.1" y="253.5" class="st3" width="14.8" height="125.7"/>
<rect x="159.2" y="160.6" class="st3" width="14.8" height="218.6"/>
<rect x="189.2" y="193.9" class="st3" width="14.8" height="185.2"/>
<rect x="219.3" y="219.6" class="st3" width="14.8" height="159.6"/>
<rect x="249.3" y="164.6" class="st3" width="14.8" height="214.5"/>
<rect x="279.3" y="80.2" class="st3" width="14.8" height="299"/>
<rect x="309.4" y="222.9" class="st3" width="14.8" height="156.3"/>
<rect x="339.4" y="170.8" class="st3" width="14.8" height="208.4"/>
<rect x="369.4" y="127.4" class="st3" width="14.8" height="251.8"/>
<rect x="399.5" y="138" class="st3" width="14.8" height="241.2"/>
<rect x="429.5" y="189.1" class="st3" width="14.8" height="190"/>
<rect x="459.6" y="257.6" class="st3" width="14.8" height="121.6"/>
<rect x="489.6" y="288.3" class="st3" width="14.8" height="90.9"/>
<rect x="519.6" y="263.1" class="st3" width="14.8" height="116.1"/>
<rect x="549.7" y="261.2" class="st3" width="14.8" height="118"/>
<rect x="579.7" y="291.9" class="st3" width="14.8" height="87.2"/>
<rect x="609.7" y="305.8" class="st3" width="14.8" height="73.4"/>
<rect x="639.8" y="279.6" class="st3" width="14.8" height="99.5"/>
<rect x="669.8" y="277.4" class="st3" width="14.8" height="101.8"/>
<rect x="699.9" y="262" class="st3" width="14.8" height="117.1"/>
<g>
	<g>
		<path class="st1" d="M62.7,394.2c1.7-1.6,3.7-2.9,3.7-4.4c0-0.7-0.6-1.1-1.4-1.1c-0.4,0-0.6,0-0.9,0.1l-0.1,0.8h-1.3v-1.9
			c0.7-0.2,1.5-0.3,2.4-0.3c1.5,0,2.9,0.5,2.9,2.3c0,1.9-2.2,3.4-3.5,4.3v0.1h2.3l0.2-0.8l1.1,0l-0.1,2.1h-5.4V394.2z"/>
		<path class="st1" d="M69,391.6c0-2.5,0.9-4.3,3.1-4.3c2.1,0,2.9,1.7,2.9,4.1c0,2.4-0.9,4.2-3,4.2C69.9,395.6,69,393.9,69,391.6z
			 M73.4,391.5c0-1.7-0.2-3-1.3-3c-1.2,0-1.3,1.5-1.3,3c0,1.8,0.3,2.9,1.4,2.9C73.2,394.4,73.4,392.8,73.4,391.5z"/>
		<path class="st1" d="M76,391.6c0-2.5,0.9-4.3,3.1-4.3c2.1,0,2.9,1.7,2.9,4.1c0,2.4-0.9,4.2-3,4.2C76.8,395.6,76,393.9,76,391.6z
			 M80.3,391.5c0-1.7-0.2-3-1.3-3c-1.2,0-1.3,1.5-1.3,3c0,1.8,0.3,2.9,1.4,2.9C80.1,394.4,80.3,392.8,80.3,391.5z"/>
		<path class="st1" d="M83.1,394.4l1.1-0.1v-5.4l-1.1,0.1v-1.1l2.5-0.5l0.3,0.1v6.8h1.1v1h-3.8V394.4z"/>
	</g>
</g>
<g>
	<g>
		<path class="st1" d="M101.6,391.6c0-2.5,0.9-4.3,2.9-4.3c1.9,0,2.8,1.7,2.8,4c0,2.4-0.9,4.2-2.9,4.2
			C102.5,395.6,101.6,393.9,101.6,391.6z M106.2,391.5c0-1.8-0.3-3.5-1.9-3.5c-1.6,0-1.8,1.8-1.8,3.5c0,1.7,0.4,3.3,1.8,3.3
			C105.9,394.9,106.2,393.3,106.2,391.5z"/>
		<path class="st1" d="M108.2,394.8c2-2,4-3.5,4-5.1c0-0.9-0.8-1.5-1.9-1.5c-0.6,0-0.8,0.1-1.2,0.1l-0.1,1h-0.7v-1.5
			c0.6-0.2,1.2-0.3,2.2-0.3c1.4,0,2.7,0.7,2.7,2.2c0,1.7-2.1,3.5-3.8,5v0h3.1l0.2-1h0.6l-0.1,1.8h-5V394.8z"/>
	</g>
</g>
<g>
	<g>
		<path class="st1" d="M131,391.6c0-2.5,0.9-4.3,2.9-4.3c1.9,0,2.8,1.7,2.8,4c0,2.4-0.9,4.2-2.9,4.2
			C131.9,395.6,131,393.9,131,391.6z M135.7,391.5c0-1.8-0.3-3.5-1.9-3.5c-1.6,0-1.8,1.8-1.8,3.5c0,1.7,0.4,3.3,1.8,3.3
			C135.3,394.9,135.7,393.3,135.7,391.5z"/>
		<path class="st1" d="M137.7,395.3l0.2-0.7c0.6,0.2,1.3,0.3,1.8,0.3c1.3,0,2.3-0.4,2.3-1.7c0-1-0.7-1.5-1.7-1.5h-0.9V391h0.9
			c1,0,1.5-0.5,1.5-1.4c0-1.1-1-1.4-2-1.4c-0.7,0-0.8,0.1-1.2,0.1l-0.1,0.9h-0.7v-1.5c0.6-0.2,1.1-0.3,2.2-0.3c1.6,0,2.8,0.6,2.8,2
			c0,0.9-0.6,1.7-1.4,1.8c0,0,0,0,0,0c1,0.2,1.6,0.9,1.6,1.8c0,1.8-1.4,2.5-3.2,2.5C139.3,395.6,138.4,395.5,137.7,395.3z"/>
	</g>
</g>
<g>
	<g>
		<path class="st1" d="M160.8,391.6c0-2.5,0.9-4.3,2.9-4.3c1.9,0,2.8,1.7,2.8,4c0,2.4-0.9,4.2-2.9,4.2
			C161.8,395.6,160.8,393.9,160.8,391.6z M165.5,391.5c0-1.8-0.3-3.5-1.9-3.5c-1.6,0-1.8,1.8-1.8,3.5c0,1.7,0.4,3.3,1.8,3.3
			C165.1,394.9,165.5,393.3,165.5,391.5z"/>
		<path class="st1" d="M170.1,394.8l0.8-0.1v-1.7h-3.6v-0.8l3.5-4.8h1.1v4.9h1.5l0,0.7h-1.5v1.7h0.6v0.6h-2.3V394.8z M170.9,392.4
			v-3.9h0l-2.8,3.9H170.9z"/>
	</g>
</g>
<g>
	<g>
		<path class="st1" d="M189.1,391.6c0-2.5,0.9-4.3,2.9-4.3c1.9,0,2.8,1.7,2.8,4c0,2.4-0.9,4.2-2.9,4.2
			C190.1,395.6,189.1,393.9,189.1,391.6z M193.8,391.5c0-1.8-0.3-3.5-1.9-3.5c-1.6,0-1.8,1.8-1.8,3.5c0,1.7,0.4,3.3,1.8,3.3
			C193.4,394.9,193.8,393.3,193.8,391.5z"/>
		<path class="st1" d="M195.8,395.3l0.2-0.7c0.6,0.2,1.3,0.3,1.8,0.3c1.4,0,2.2-0.7,2.2-1.9c0-0.9-0.7-1.7-2.1-1.7
			c-0.9,0-1.5,0.3-1.7,0.4l-0.1-0.1l0.4-4.1h4.1l-0.1,0.7h-3.3l-0.2,2.6c0.3-0.2,0.8-0.2,1.3-0.2c1.7,0,2.6,1.1,2.6,2.3
			c0,1.8-1.3,2.7-3.1,2.7C197.3,395.6,196.5,395.5,195.8,395.3z"/>
	</g>
</g>
<g>
	<g>
		<path class="st1" d="M219,391.6c0-2.5,0.9-4.3,2.9-4.3c1.9,0,2.8,1.7,2.8,4c0,2.4-0.9,4.2-2.9,4.2C220,395.6,219,393.9,219,391.6z
			 M223.7,391.5c0-1.8-0.3-3.5-1.9-3.5c-1.6,0-1.8,1.8-1.8,3.5c0,1.7,0.4,3.3,1.8,3.3C223.3,394.9,223.7,393.3,223.7,391.5z"/>
		<path class="st1" d="M225.7,391.9c0-2.5,0.8-4.4,3.5-4.5c0.5,0,1.3,0.1,1.6,0.2l-0.2,0.7c-0.2,0-0.7-0.2-1.4-0.2
			c-1.8,0-2.5,1.4-2.5,3c0.4-0.3,1.2-0.6,2.1-0.6c1.5,0,2.5,0.8,2.5,2.4c0,1.6-1,2.7-2.7,2.7C226.4,395.6,225.7,393.8,225.7,391.9z
			 M230.3,393c0-1.1-0.6-1.8-1.8-1.8c-0.9,0-1.7,0.5-1.9,0.7c0,1,0.2,3,1.9,3C229.7,394.9,230.3,394.1,230.3,393z"/>
	</g>
</g>
<g>
	<g>
		<path class="st1" d="M248.8,391.6c0-2.5,0.9-4.3,2.9-4.3c1.9,0,2.8,1.7,2.8,4c0,2.4-0.9,4.2-2.9,4.2
			C249.7,395.6,248.8,393.9,248.8,391.6z M253.5,391.5c0-1.8-0.3-3.5-1.9-3.5c-1.6,0-1.8,1.8-1.8,3.5c0,1.7,0.4,3.3,1.8,3.3
			C253.1,394.9,253.5,393.3,253.5,391.5z"/>
		<path class="st1" d="M259.8,388.2h-3.6l-0.1,1.1h-0.7v-1.8h5.2v0.6l-3.4,7.3h-1L259.8,388.2z"/>
	</g>
</g>
<g>
	<g>
		<path class="st1" d="M279.1,391.6c0-2.5,0.9-4.3,2.9-4.3c1.9,0,2.8,1.7,2.8,4c0,2.4-0.9,4.2-2.9,4.2
			C280,395.6,279.1,393.9,279.1,391.6z M283.8,391.5c0-1.8-0.3-3.5-1.9-3.5c-1.6,0-1.8,1.8-1.8,3.5c0,1.7,0.4,3.3,1.8,3.3
			C283.4,394.9,283.8,393.3,283.8,391.5z"/>
		<path class="st1" d="M285.7,393.4c0-0.9,0.5-1.7,1.6-2.1c-0.9-0.3-1.4-1-1.4-1.9c0-1.5,1.2-2.1,2.6-2.1c1.4,0,2.6,0.7,2.6,2.1
			c0,1-0.5,1.6-1.5,2c1,0.2,1.7,0.9,1.7,2c0,1.6-1.3,2.2-2.8,2.2C287,395.6,285.7,394.9,285.7,393.4z M290.3,393.4
			c0-1.1-0.8-1.7-1.8-1.7c-0.9,0-1.8,0.5-1.8,1.6c0,1.1,0.8,1.6,1.8,1.6C289.5,394.9,290.3,394.4,290.3,393.4z M290.2,389.5
			c0-1-0.7-1.5-1.7-1.5c-1,0-1.7,0.5-1.7,1.5c0,0.7,0.5,1.5,1.7,1.5C289.5,391,290.2,390.4,290.2,389.5z"/>
	</g>
</g>
<g>
	<g>
		<path class="st1" d="M308,391.6c0-2.5,0.9-4.3,2.9-4.3c1.9,0,2.8,1.7,2.8,4c0,2.4-0.9,4.2-2.9,4.2C309,395.6,308,393.9,308,391.6z
			 M312.7,391.5c0-1.8-0.3-3.5-1.9-3.5c-1.6,0-1.8,1.8-1.8,3.5c0,1.7,0.4,3.3,1.8,3.3C312.3,394.9,312.7,393.3,312.7,391.5z"/>
		<path class="st1" d="M320.2,391.1c0,2.5-0.8,4.4-3.5,4.5c-0.5,0-1.3-0.1-1.6-0.2l0.2-0.7c0.2,0,0.7,0.2,1.4,0.2
			c1.8,0,2.5-1.4,2.5-3c-0.4,0.2-1.2,0.6-2.1,0.6c-1.5,0-2.5-0.8-2.5-2.4c0-1.6,1-2.7,2.7-2.7C319.5,387.4,320.2,389.2,320.2,391.1z
			 M315.6,390c0,1.1,0.7,1.8,1.8,1.8c0.9,0,1.7-0.4,1.9-0.6c0-1.1-0.1-3.1-1.9-3.1C316.2,388.1,315.6,388.9,315.6,390z"/>
	</g>
</g>
<g>
	<g>
		<path class="st1" d="M341,394.8l1.3-0.1v-6.4l-1.4,0.2v-0.7l2.1-0.4l0.2,0.1v7.2h1.2v0.6H341V394.8z"/>
		<path class="st1" d="M345.2,391.6c0-2.5,0.9-4.3,2.9-4.3c1.9,0,2.8,1.7,2.8,4c0,2.4-0.9,4.2-2.9,4.2
			C346.2,395.6,345.2,393.9,345.2,391.6z M349.9,391.5c0-1.8-0.3-3.5-1.9-3.5c-1.6,0-1.8,1.8-1.8,3.5c0,1.7,0.4,3.3,1.8,3.3
			C349.5,394.9,349.9,393.3,349.9,391.5z"/>
	</g>
</g>
<g>
	<g>
		<path class="st1" d="M372.3,394.8l1.3-0.1v-6.4l-1.4,0.2v-0.7l2.1-0.4l0.2,0.1v7.2h1.2v0.6h-3.4V394.8z"/>
		<path class="st1" d="M376.7,394.8l1.3-0.1v-6.4l-1.4,0.2v-0.7l2.1-0.4l0.2,0.1v7.2h1.2v0.6h-3.4V394.8z"/>
	</g>
</g>
<g>
	<g>
		<path class="st1" d="M402.4,394.8l1.3-0.1v-6.4l-1.4,0.2v-0.7l2.1-0.4l0.2,0.1v7.2h1.2v0.6h-3.4V394.8z"/>
		<path class="st1" d="M406.7,394.8c2-2,4-3.5,4-5.1c0-0.9-0.8-1.5-1.9-1.5c-0.6,0-0.8,0.1-1.2,0.1l-0.1,1h-0.7v-1.5
			c0.6-0.2,1.2-0.3,2.2-0.3c1.4,0,2.7,0.7,2.7,2.2c0,1.7-2.1,3.5-3.8,5v0h3.1l0.2-1h0.6l-0.1,1.8h-5V394.8z"/>
	</g>
</g>
<g>
	<g>
		<path class="st1" d="M429.9,394.8l1.3-0.1v-6.4l-1.4,0.2v-0.7l2.1-0.4l0.2,0.1v7.2h1.2v0.6h-3.4V394.8z"/>
		<path class="st1" d="M434.2,395.3l0.2-0.7c0.6,0.2,1.3,0.3,1.8,0.3c1.3,0,2.3-0.4,2.3-1.7c0-1-0.7-1.5-1.7-1.5h-0.9V391h0.9
			c1,0,1.5-0.5,1.5-1.4c0-1.1-1-1.4-2-1.4c-0.7,0-0.8,0.1-1.2,0.1l-0.1,0.9h-0.7v-1.5c0.6-0.2,1.1-0.3,2.2-0.3c1.6,0,2.8,0.6,2.8,2
			c0,0.9-0.6,1.7-1.4,1.8c0,0,0,0,0,0c1,0.2,1.6,0.9,1.6,1.8c0,1.8-1.4,2.5-3.2,2.5C435.8,395.6,434.9,395.5,434.2,395.3z"/>
	</g>
</g>
<g>
	<g>
		<path class="st1" d="M461.5,394.8l1.3-0.1v-6.4l-1.4,0.2v-0.7l2.1-0.4l0.2,0.1v7.2h1.2v0.6h-3.4V394.8z"/>
		<path class="st1" d="M468.4,394.8l0.8-0.1v-1.7h-3.6v-0.8l3.5-4.8h1.1v4.9h1.5l0,0.7H470v1.7h0.6v0.6h-2.3V394.8z M469.1,392.4
			v-3.9h0l-2.8,3.9H469.1z"/>
	</g>
</g>
<g>
	<g>
		<path class="st1" d="M489.7,394.8l1.3-0.1v-6.4l-1.4,0.2v-0.7l2.1-0.4l0.2,0.1v7.2h1.2v0.6h-3.4V394.8z"/>
		<path class="st1" d="M493.9,395.3l0.2-0.7c0.6,0.2,1.3,0.3,1.8,0.3c1.4,0,2.2-0.7,2.2-1.9c0-0.9-0.7-1.7-2.1-1.7
			c-0.9,0-1.5,0.3-1.7,0.4l-0.1-0.1l0.4-4.1h4.1l-0.1,0.7h-3.3l-0.2,2.6c0.3-0.2,0.8-0.2,1.3-0.2c1.7,0,2.6,1.1,2.6,2.3
			c0,1.8-1.3,2.7-3.1,2.7C495.5,395.6,494.6,395.5,493.9,395.3z"/>
	</g>
</g>
<g>
	<g>
		<path class="st1" d="M522.2,394.8l1.3-0.1v-6.4l-1.4,0.2v-0.7l2.1-0.4l0.2,0.1v7.2h1.2v0.6h-3.4V394.8z"/>
		<path class="st1" d="M526.4,391.9c0-2.5,0.8-4.4,3.5-4.5c0.5,0,1.3,0.1,1.6,0.2l-0.2,0.7c-0.2,0-0.7-0.2-1.4-0.2
			c-1.8,0-2.5,1.4-2.5,3c0.4-0.3,1.2-0.6,2.1-0.6c1.5,0,2.5,0.8,2.5,2.4c0,1.6-1,2.7-2.7,2.7C527.2,395.6,526.4,393.8,526.4,391.9z
			 M531.1,393c0-1.1-0.6-1.8-1.8-1.8c-0.9,0-1.7,0.5-1.9,0.7c0,1,0.2,3,1.9,3C530.5,394.9,531.1,394.1,531.1,393z"/>
	</g>
</g>
<g>
	<g>
		<path class="st1" d="M551.3,394.8l1.3-0.1v-6.4l-1.4,0.2v-0.7l2.1-0.4l0.2,0.1v7.2h1.2v0.6h-3.4V394.8z"/>
		<path class="st1" d="M559.9,388.2h-3.6l-0.1,1.1h-0.7v-1.8h5.2v0.6l-3.4,7.3h-1L559.9,388.2z"/>
	</g>
</g>
<g>
	<g>
		<path class="st1" d="M581,394.8l1.3-0.1v-6.4l-1.4,0.2v-0.7l2.1-0.4l0.2,0.1v7.2h1.2v0.6H581V394.8z"/>
		<path class="st1" d="M585.3,393.4c0-0.9,0.5-1.7,1.6-2.1c-0.9-0.3-1.4-1-1.4-1.9c0-1.5,1.2-2.1,2.6-2.1c1.4,0,2.6,0.7,2.6,2.1
			c0,1-0.5,1.6-1.5,2c1,0.2,1.7,0.9,1.7,2c0,1.6-1.3,2.2-2.8,2.2C586.5,395.6,585.3,394.9,585.3,393.4z M589.8,393.4
			c0-1.1-0.8-1.7-1.8-1.7c-0.9,0-1.8,0.5-1.8,1.6c0,1.1,0.8,1.6,1.8,1.6C589,394.9,589.8,394.4,589.8,393.4z M589.7,389.5
			c0-1-0.7-1.5-1.7-1.5c-1,0-1.7,0.5-1.7,1.5c0,0.7,0.5,1.5,1.7,1.5C589,391,589.7,390.4,589.7,389.5z"/>
	</g>
</g>
<g>
	<g>
		<path class="st1" d="M610.5,394.8l1.3-0.1v-6.4l-1.4,0.2v-0.7l2.1-0.4l0.2,0.1v7.2h1.2v0.6h-3.4V394.8z"/>
		<path class="st1" d="M620.3,391.1c0,2.5-0.8,4.4-3.5,4.5c-0.5,0-1.3-0.1-1.6-0.2l0.2-0.7c0.2,0,0.7,0.2,1.4,0.2
			c1.8,0,2.5-1.4,2.5-3c-0.4,0.2-1.2,0.6-2.1,0.6c-1.5,0-2.5-0.8-2.5-2.4c0-1.6,1-2.7,2.7-2.7C619.6,387.4,620.3,389.2,620.3,391.1z
			 M615.7,390c0,1.1,0.7,1.8,1.8,1.8c0.9,0,1.7-0.4,1.9-0.6c0-1.1-0.1-3.1-1.9-3.1C616.3,388.1,615.7,388.9,615.7,390z"/>
	</g>
</g>
<g>
	<g>
		<path class="st1" d="M639.8,394.8c2-2,4-3.5,4-5.1c0-0.9-0.8-1.5-1.9-1.5c-0.6,0-0.8,0.1-1.2,0.1l-0.1,1h-0.7v-1.5
			c0.6-0.2,1.2-0.3,2.2-0.3c1.4,0,2.7,0.7,2.7,2.2c0,1.7-2.1,3.5-3.8,5v0h3.1l0.2-1h0.6l-0.1,1.8h-5V394.8z"/>
		<path class="st1" d="M645.8,391.6c0-2.5,0.9-4.3,2.9-4.3c1.9,0,2.8,1.7,2.8,4c0,2.4-0.9,4.2-2.9,4.2
			C646.8,395.6,645.8,393.9,645.8,391.6z M650.5,391.5c0-1.8-0.3-3.5-1.9-3.5c-1.6,0-1.8,1.8-1.8,3.5c0,1.7,0.4,3.3,1.8,3.3
			C650.1,394.9,650.5,393.3,650.5,391.5z"/>
	</g>
</g>
<g>
	<g>
		<path class="st1" d="M667.9,394.8c2-2,4-3.5,4-5.1c0-0.9-0.8-1.5-1.9-1.5c-0.6,0-0.8,0.1-1.2,0.1l-0.1,1H668v-1.5
			c0.6-0.2,1.2-0.3,2.2-0.3c1.4,0,2.7,0.7,2.7,2.2c0,1.7-2.1,3.5-3.8,5v0h3.1l0.2-1h0.6l-0.1,1.8h-5V394.8z"/>
		<path class="st1" d="M674,394.8l1.3-0.1v-6.4l-1.4,0.2v-0.7l2.1-0.4l0.2,0.1v7.2h1.2v0.6H674V394.8z"/>
	</g>
</g>
<g>
	<g>
		<path class="st1" d="M694.1,394c1.6-1.4,3.6-2.6,3.6-4.1c0-0.7-0.5-1-1.2-1c-0.3,0-0.5,0-0.7,0.1l-0.1,0.8h-1.5v-2
			c0.8-0.2,1.6-0.3,2.6-0.3c1.5,0,3,0.5,3,2.4c0,1.9-2.4,3.3-3.5,4v0.1h2.1l0.2-0.6l1.3,0l-0.1,2.2h-5.6V394z"/>
		<path class="st1" d="M700.5,391.6c0-2.5,0.9-4.2,3.2-4.2c2.2,0,3,1.8,3,4.1c0,2.4-0.8,4.2-3.1,4.2
			C701.4,395.6,700.5,393.9,700.5,391.6z M704.7,391.5c0-1.7-0.2-2.8-1.1-2.8c-1,0-1.1,1.4-1.1,2.8c0,1.8,0.3,2.8,1.1,2.8
			C704.6,394.2,704.7,392.6,704.7,391.5z"/>
		<path class="st1" d="M707.6,394c1.6-1.4,3.6-2.6,3.6-4.1c0-0.7-0.5-1-1.2-1c-0.3,0-0.5,0-0.7,0.1l-0.1,0.8h-1.5v-2
			c0.8-0.2,1.6-0.3,2.6-0.3c1.5,0,3,0.5,3,2.4c0,1.9-2.4,3.3-3.5,4v0.1h2.1l0.2-0.6l1.3,0l-0.1,2.2h-5.6V394z"/>
		<path class="st1" d="M714.1,394c1.6-1.4,3.6-2.6,3.6-4.1c0-0.7-0.5-1-1.2-1c-0.3,0-0.5,0-0.7,0.1l-0.1,0.8h-1.5v-2
			c0.8-0.2,1.6-0.3,2.6-0.3c1.5,0,3,0.5,3,2.4c0,1.9-2.4,3.3-3.5,4v0.1h2.1l0.2-0.6l1.3,0l-0.1,2.2h-5.6V394z"/>
	</g>
</g>
<line class="st4" x1="59.6" y1="379.2" x2="740" y2="379.2"/>
<g>
	<path d="M54.9,297.9l1.3-0.1v-6.4l-1.3,0.2v-1.6l3.4-0.7l0.4,0.1v8.5h1.3v1.5h-5V297.9z"/>
	<path d="M64.3,297.9l0.8-0.1v-1.2h-4.4V295l3.9-5.7h2.8v5.7H69l0,1.6h-1.5v1.3h0.7v1.5h-3.9V297.9z M65.1,294.9v-3.6H65l-2.5,3.6
		H65.1z"/>
	<path d="M74.8,291h-3.2l-0.2,1.4h-1.8v-3.2h7.6v1.4l-3.8,8.7h-2.8L74.8,291z"/>
	<path d="M78.5,298.3c0-0.9,0.3-1.3,1.3-1.3c1,0,1.3,0.6,1.3,1.3c0,0.7-0.2,1.3-1.3,1.3C78.8,299.6,78.5,299,78.5,298.3z"/>
	<path d="M82.2,296.8c0-1,0.5-2.1,1.8-2.5c-1.2-0.4-1.6-1.2-1.6-2.3c0-2.2,1.8-2.9,3.7-2.9c1.9,0,3.7,0.8,3.7,2.8
		c0,1.1-0.5,2.1-1.7,2.4c1.2,0.3,1.8,1.2,1.8,2.3c0,2.2-1.8,2.9-4,2.9C84.1,299.6,82.2,299,82.2,296.8z M87.4,296.5
		c0-0.7-0.4-1.4-1.3-1.4c-0.9,0-1.4,0.5-1.4,1.4c0,0.9,0.5,1.2,1.4,1.2C86.9,297.8,87.4,297.4,87.4,296.5z M87.4,292.2
		c0-0.8-0.4-1.3-1.4-1.3c-0.8,0-1.3,0.5-1.3,1.3c0,0.7,0.3,1.3,1.4,1.3C87,293.5,87.4,293,87.4,292.2z"/>
	<path d="M91,294.4c0-3.2,1.2-5.4,4.1-5.4c2.9,0,3.8,2.2,3.8,5.2c0,3-1.1,5.3-4,5.3C92,299.6,91,297.4,91,294.4z M96.3,294.4
		c0-2.2-0.3-3.6-1.4-3.6c-1.3,0-1.4,1.8-1.4,3.5c0,2.3,0.4,3.6,1.5,3.6C96.2,297.8,96.3,295.7,96.3,294.4z"/>
	<path d="M99.9,294.5c0-3.2,1.3-5.4,4.7-5.4c1,0,2.1,0.1,2.6,0.3l-0.4,1.9c-0.2,0-1.2-0.2-2-0.2c-1.7,0-2.2,0.8-2.3,2.4
		c0.5-0.3,1.1-0.5,2.1-0.5c2.2,0,3.1,1.3,3.1,3c0,2-1.3,3.5-3.9,3.5C101.3,299.6,99.9,297.8,99.9,294.5z M105.3,296.3
		c0-1-0.4-1.7-1.4-1.7c-0.6,0-1.2,0.2-1.4,0.4c-0.1,0.8,0,2.8,1.5,2.8C104.9,297.8,105.3,297.1,105.3,296.3z"/>
</g>
<g>
	<path d="M139.2,152.3l0.8-0.1V151h-4.4v-1.6l3.9-5.7h2.8v5.7h1.6l0,1.6h-1.5v1.3h0.7v1.5h-3.9V152.3z M140,149.3v-3.6H140l-2.5,3.6
		H140z"/>
	<path d="M144.6,153.6l0.3-1.9c0.5,0.1,1.8,0.3,2.6,0.3c1.3,0,1.9-0.3,1.9-1.2c0-0.7-0.5-1-1.3-1h-1.5v-1.8h1.2
		c0.8,0,1.4-0.4,1.4-1.2c0-0.9-0.7-1.2-1.7-1.2c-0.4,0-0.6,0-0.9,0.1l-0.1,0.8h-1.8V144c1-0.2,1.9-0.4,3.2-0.4
		c1.9,0,3.9,0.6,3.9,2.8c0,1.2-0.8,2-1.8,2.2c0,0,0,0.1,0,0.1c1.1,0.2,1.9,1,1.9,2.3c0,2.4-2.3,3-4.4,3
		C146.7,154,145.7,153.9,144.6,153.6z"/>
	<path d="M152.9,153.6l0.3-1.9c0.5,0.1,1.8,0.3,2.6,0.3c1.3,0,1.9-0.3,1.9-1.2c0-0.7-0.5-1-1.3-1h-1.5v-1.8h1.2
		c0.8,0,1.4-0.4,1.4-1.2c0-0.9-0.7-1.2-1.7-1.2c-0.4,0-0.6,0-0.9,0.1l-0.1,0.8H153V144c1-0.2,1.9-0.4,3.2-0.4c1.9,0,3.9,0.6,3.9,2.8
		c0,1.2-0.8,2-1.8,2.2c0,0,0,0.1,0,0.1c1.1,0.2,1.9,1,1.9,2.3c0,2.4-2.3,3-4.4,3C155,154,154,153.9,152.9,153.6z"/>
	<path d="M161.4,152.7c0-0.9,0.3-1.3,1.3-1.3c1,0,1.3,0.6,1.3,1.3c0,0.7-0.2,1.3-1.3,1.3C161.7,154,161.4,153.4,161.4,152.7z"/>
	<path d="M168.5,152.3l0.8-0.1V151h-4.4v-1.6l3.9-5.7h2.8v5.7h1.6l0,1.6h-1.5v1.3h0.7v1.5h-3.9V152.3z M169.3,149.3v-3.6h-0.1
		l-2.5,3.6H169.3z"/>
	<path d="M173.9,153.6l0.3-1.9c0.5,0.1,1.8,0.3,2.6,0.3c1.3,0,1.9-0.3,1.9-1.2c0-0.7-0.5-1-1.3-1h-1.5v-1.8h1.2
		c0.8,0,1.4-0.4,1.4-1.2c0-0.9-0.7-1.2-1.7-1.2c-0.4,0-0.6,0-0.9,0.1l-0.1,0.8H174V144c1-0.2,1.9-0.4,3.2-0.4c1.9,0,3.9,0.6,3.9,2.8
		c0,1.2-0.8,2-1.8,2.2c0,0,0,0.1,0,0.1c1.1,0.2,1.9,1,1.9,2.3c0,2.4-2.3,3-4.4,3C176,154,175,153.9,173.9,153.6z"/>
	<path d="M182.3,148.9c0-3.2,1.2-5.4,4.1-5.4c2.9,0,3.8,2.2,3.8,5.2c0,3-1.1,5.3-4,5.3C183.3,154,182.3,151.8,182.3,148.9z
		 M187.6,148.8c0-2.2-0.3-3.6-1.4-3.6c-1.3,0-1.4,1.8-1.4,3.5c0,2.3,0.4,3.6,1.5,3.6C187.5,152.2,187.6,150.2,187.6,148.8z"/>
</g>
<g>
	<path d="M260.4,72l0.2-1.9c0.6,0.1,1.6,0.2,2.3,0.2c1.1,0,2-0.3,2-1.3c0-1-1-1.3-2.5-1.3c-0.9,0-1.4,0.2-1.7,0.2l-0.1-0.1l0.3-5.9
		h6.1l-0.1,2h-4l-0.1,2c0.3-0.1,0.7-0.1,1.2-0.1c1.9,0,3.3,0.9,3.3,2.8c0,2.6-1.8,3.5-4.2,3.5C262.3,72.2,261.5,72.2,260.4,72z"/>
	<path d="M276.3,66.8c0,3.2-1.3,5.4-4.7,5.4c-1,0-2.1-0.1-2.6-0.3l0.4-1.9c0.2,0,1.2,0.2,2,0.2c1.7,0,2.2-0.8,2.3-2.4
		c-0.5,0.3-1.1,0.5-2.1,0.5c-2.3,0-3.1-1.3-3.1-3c0-2.2,1.3-3.5,3.9-3.5C275,61.8,276.3,63.6,276.3,66.8z M270.9,65.1
		c0,1,0.4,1.7,1.4,1.7c0.6,0,1.2-0.2,1.4-0.4c0.1-0.9,0.1-2.8-1.5-2.8C271.3,63.6,270.9,64.3,270.9,65.1z"/>
	<path d="M277.4,70.3c2.1-1.8,4.5-3.3,4.5-5.2c0-0.9-0.7-1.3-1.6-1.3c-0.4,0-0.6,0-0.9,0.1l-0.1,1h-1.9v-2.6c1-0.3,2.1-0.4,3.3-0.4
		c1.9,0,3.8,0.6,3.8,3c0,2.5-3.1,4.2-4.5,5.1v0.1h2.7l0.2-0.8l1.7,0l-0.1,2.8h-7.1V70.3z"/>
	<path d="M285.7,71c0-0.9,0.3-1.3,1.3-1.3c1,0,1.3,0.6,1.3,1.3c0,0.7-0.2,1.3-1.3,1.3C286,72.2,285.7,71.7,285.7,71z"/>
	<path d="M294.6,63.7h-3.2l-0.2,1.4h-1.8v-3.2h7.6v1.4l-3.8,8.7h-2.8L294.6,63.7z"/>
	<path d="M298,72l0.2-1.9c0.6,0.1,1.6,0.2,2.3,0.2c1.1,0,2-0.3,2-1.3c0-1-1-1.3-2.5-1.3c-0.9,0-1.4,0.2-1.7,0.2l-0.1-0.1l0.3-5.9
		h6.1l-0.1,2h-4l-0.1,2c0.3-0.1,0.7-0.1,1.2-0.1c1.9,0,3.3,0.9,3.3,2.8c0,2.6-1.8,3.5-4.2,3.5C299.8,72.2,299,72.2,298,72z"/>
	<path d="M306,71.9l0.3-1.9c0.5,0.1,1.8,0.3,2.6,0.3c1.3,0,1.9-0.3,1.9-1.2c0-0.7-0.5-1-1.3-1H308v-1.8h1.2c0.8,0,1.4-0.4,1.4-1.2
		c0-0.9-0.7-1.2-1.7-1.2c-0.4,0-0.6,0-0.9,0.1l-0.1,0.8h-1.8v-2.4c1-0.2,1.9-0.4,3.2-0.4c1.9,0,3.9,0.6,3.9,2.8c0,1.2-0.8,2-1.8,2.2
		c0,0,0,0.1,0,0.1c1.1,0.2,1.9,1,1.9,2.3c0,2.4-2.3,3-4.4,3C308.1,72.2,307.1,72.2,306,71.9z"/>
</g>
<g>
	<path d="M354.6,119.7l0.8-0.1v-1.2h-4.4v-1.6l3.9-5.7h2.8v5.7h1.6l0,1.6h-1.5v1.3h0.7v1.5h-3.9V119.7z M355.4,116.8v-3.6h-0.1
		l-2.5,3.6H355.4z"/>
	<path d="M367.9,116c0,3.2-1.3,5.4-4.7,5.4c-1,0-2.1-0.1-2.6-0.3l0.4-1.9c0.2,0,1.2,0.2,2,0.2c1.7,0,2.2-0.8,2.3-2.4
		c-0.5,0.3-1.1,0.5-2.1,0.5c-2.3,0-3.1-1.3-3.1-3c0-2.2,1.3-3.5,3.9-3.5C366.5,111,367.9,112.8,367.9,116z M362.4,114.3
		c0,1,0.4,1.7,1.4,1.7c0.6,0,1.2-0.2,1.4-0.4c0.1-0.9,0.1-2.8-1.5-2.8C362.9,112.7,362.4,113.4,362.4,114.3z"/>
	<path d="M376.7,116c0,3.2-1.3,5.4-4.7,5.4c-1,0-2.1-0.1-2.6-0.3l0.4-1.9c0.2,0,1.2,0.2,2,0.2c1.7,0,2.2-0.8,2.3-2.4
		c-0.5,0.3-1.1,0.5-2.1,0.5c-2.3,0-3.1-1.3-3.1-3c0-2.2,1.3-3.5,3.9-3.5C375.3,111,376.7,112.8,376.7,116z M371.2,114.3
		c0,1,0.4,1.7,1.4,1.7c0.6,0,1.2-0.2,1.4-0.4c0.1-0.9,0.1-2.8-1.5-2.8C371.7,112.7,371.2,113.4,371.2,114.3z"/>
	<path d="M377.8,120.1c0-0.9,0.3-1.3,1.3-1.3c1,0,1.3,0.6,1.3,1.3c0,0.7-0.2,1.3-1.3,1.3C378.1,121.4,377.8,120.8,377.8,120.1z"/>
	<path d="M381.9,119.7l1.3-0.1v-6.4l-1.3,0.2v-1.6l3.4-0.7l0.4,0.1v8.5h1.3v1.5h-5V119.7z"/>
	<path d="M388,118.6c0-1,0.5-2.1,1.8-2.5c-1.2-0.4-1.6-1.2-1.6-2.3c0-2.2,1.8-2.9,3.7-2.9c1.9,0,3.7,0.8,3.7,2.8
		c0,1.1-0.5,2.1-1.7,2.4c1.2,0.3,1.8,1.2,1.8,2.3c0,2.2-1.8,2.9-4,2.9C389.8,121.4,388,120.8,388,118.6z M393.2,118.4
		c0-0.7-0.4-1.4-1.3-1.4c-0.9,0-1.4,0.5-1.4,1.4c0,0.9,0.5,1.2,1.4,1.2C392.7,119.6,393.2,119.2,393.2,118.4z M393.2,114
		c0-0.8-0.4-1.3-1.4-1.3c-0.8,0-1.3,0.5-1.3,1.3c0,0.7,0.3,1.3,1.4,1.3C392.7,115.3,393.2,114.8,393.2,114z"/>
	<path d="M401.8,112.9h-3.2l-0.2,1.4h-1.8v-3.2h7.6v1.4l-3.8,8.7h-2.8L401.8,112.9z"/>
</g>
<g>
	<path d="M501.6,252.5c2.1-1.8,4.5-3.3,4.5-5.2c0-0.9-0.7-1.3-1.6-1.3c-0.4,0-0.6,0-0.9,0.1l-0.1,1h-1.9v-2.6c1-0.3,2.1-0.4,3.3-0.4
		c1.9,0,3.8,0.6,3.8,3c0,2.5-3.1,4.2-4.5,5.1v0.1h2.7l0.2-0.8l1.7,0l-0.1,2.8h-7.1V252.5z"/>
	<path d="M509.6,254l0.3-1.9c0.5,0.1,1.8,0.3,2.6,0.3c1.3,0,1.9-0.3,1.9-1.2c0-0.7-0.5-1-1.3-1h-1.5v-1.8h1.2c0.8,0,1.4-0.4,1.4-1.2
		c0-0.9-0.7-1.2-1.7-1.2c-0.4,0-0.6,0-0.9,0.1l-0.1,0.8h-1.8v-2.4c1-0.2,1.9-0.4,3.2-0.4c1.9,0,3.9,0.6,3.9,2.8c0,1.2-0.8,2-1.8,2.2
		c0,0,0,0.1,0,0.1c1.1,0.2,1.9,1,1.9,2.3c0,2.4-2.3,3-4.4,3C511.7,254.4,510.8,254.4,509.6,254z"/>
	<path d="M518,249.3c0-3.2,1.2-5.4,4.1-5.4c2.9,0,3.8,2.2,3.8,5.2c0,3-1.1,5.3-4,5.3C519.1,254.4,518,252.3,518,249.3z M523.4,249.2
		c0-2.2-0.3-3.6-1.4-3.6c-1.3,0-1.4,1.8-1.4,3.5c0,2.3,0.4,3.6,1.5,3.6C523.3,252.7,523.4,250.6,523.4,249.2z"/>
	<path d="M527.2,253.2c0-0.9,0.3-1.3,1.3-1.3c1,0,1.3,0.6,1.3,1.3c0,0.7-0.2,1.3-1.3,1.3C527.4,254.4,527.2,253.9,527.2,253.2z"/>
	<path d="M531.3,252.7l1.3-0.1v-6.4l-1.3,0.2v-1.6l3.4-0.7l0.4,0.1v8.5h1.3v1.5h-5V252.7z"/>
	<path d="M537.3,251.7c0-1,0.5-2.1,1.8-2.5c-1.2-0.4-1.6-1.2-1.6-2.3c0-2.2,1.8-2.9,3.7-2.9c1.9,0,3.7,0.8,3.7,2.8
		c0,1.1-0.5,2.1-1.7,2.4c1.2,0.3,1.8,1.2,1.8,2.3c0,2.2-1.8,2.9-4,2.9C539.1,254.4,537.3,253.8,537.3,251.7z M542.5,251.4
		c0-0.7-0.4-1.4-1.3-1.4c-0.9,0-1.4,0.5-1.4,1.4c0,0.9,0.5,1.2,1.4,1.2C542,252.6,542.5,252.3,542.5,251.4z M542.5,247.1
		c0-0.8-0.4-1.3-1.4-1.3c-0.8,0-1.3,0.5-1.3,1.3c0,0.7,0.3,1.3,1.4,1.3C542.1,248.3,542.5,247.9,542.5,247.1z"/>
	<path d="M553.8,249c0,3.2-1.3,5.4-4.7,5.4c-1,0-2.1-0.1-2.6-0.3l0.4-1.9c0.2,0,1.2,0.2,2,0.2c1.7,0,2.2-0.8,2.3-2.4
		c-0.5,0.3-1.1,0.5-2.1,0.5c-2.3,0-3.1-1.3-3.1-3c0-2.2,1.3-3.5,3.9-3.5C552.5,244,553.8,245.8,553.8,249z M548.4,247.3
		c0,1,0.4,1.7,1.4,1.7c0.6,0,1.2-0.2,1.4-0.4c0.1-0.9,0.1-2.8-1.5-2.8C548.8,245.8,548.4,246.4,548.4,247.3z"/>
</g>
<g>
	<path class="st3" d="M678.3,252.2c2.1-1.8,4.5-3.3,4.5-5.2c0-0.9-0.7-1.3-1.6-1.3c-0.4,0-0.6,0-0.9,0.1l-0.1,1h-1.9v-2.6
		c1-0.3,2.1-0.4,3.3-0.4c1.9,0,3.8,0.6,3.8,3c0,2.5-3.1,4.2-4.5,5.1v0.1h2.7l0.2-0.8l1.7,0l-0.1,2.8h-7.1V252.2z"/>
	<path class="st3" d="M686.4,253.8l0.3-1.9c0.5,0.1,1.8,0.3,2.6,0.3c1.3,0,1.9-0.3,1.9-1.2c0-0.7-0.5-1-1.3-1h-1.5v-1.8h1.2
		c0.8,0,1.4-0.4,1.4-1.2c0-0.9-0.7-1.2-1.7-1.2c-0.4,0-0.6,0-0.9,0.1l-0.1,0.8h-1.8v-2.4c1-0.2,1.9-0.4,3.2-0.4
		c1.9,0,3.9,0.6,3.9,2.8c0,1.2-0.8,2-1.8,2.2c0,0,0,0.1,0,0.1c1.1,0.2,1.9,1,1.9,2.3c0,2.4-2.3,3-4.4,3
		C688.5,254.2,687.5,254.1,686.4,253.8z"/>
	<path class="st3" d="M694.8,252.2c2.1-1.8,4.5-3.3,4.5-5.2c0-0.9-0.7-1.3-1.6-1.3c-0.4,0-0.6,0-0.9,0.1l-0.1,1h-1.9v-2.6
		c1-0.3,2.1-0.4,3.3-0.4c1.9,0,3.8,0.6,3.8,3c0,2.5-3.1,4.2-4.5,5.1v0.1h2.7l0.2-0.8l1.7,0l-0.1,2.8h-7.1V252.2z"/>
	<path class="st3" d="M703.1,252.9c0-0.9,0.3-1.3,1.3-1.3c1,0,1.3,0.6,1.3,1.3c0,0.7-0.2,1.3-1.3,1.3
		C703.4,254.2,703.1,253.6,703.1,252.9z"/>
	<path class="st3" d="M706.9,252.2c2.1-1.8,4.5-3.3,4.5-5.2c0-0.9-0.7-1.3-1.6-1.3c-0.4,0-0.6,0-0.9,0.1l-0.1,1h-1.9v-2.6
		c1-0.3,2.1-0.4,3.3-0.4c1.9,0,3.8,0.6,3.8,3c0,2.5-3.1,4.2-4.5,5.1v0.1h2.7l0.2-0.8l1.7,0L714,254h-7.1V252.2z"/>
	<path class="st3" d="M715.2,252.2c2.1-1.8,4.5-3.3,4.5-5.2c0-0.9-0.7-1.3-1.6-1.3c-0.4,0-0.6,0-0.9,0.1l-0.1,1h-1.9v-2.6
		c1-0.3,2.1-0.4,3.3-0.4c1.9,0,3.8,0.6,3.8,3c0,2.5-3.1,4.2-4.5,5.1v0.1h2.7l0.2-0.8l1.7,0l-0.1,2.8h-7.1V252.2z"/>
	<path class="st3" d="M726.7,252.5l0.8-0.1v-1.2h-4.4v-1.6l3.9-5.7h2.8v5.7h1.6l0,1.6h-1.5v1.3h0.7v1.5h-3.9V252.5z M727.5,249.5
		V246h-0.1l-2.5,3.6H727.5z"/>
</g>
<g>
	<path d="M249.1,17.1l1.3-0.1V9h-1.3V7.2h6.3c2.4,0,4.6,0.7,4.6,3.5c0,2.2-1.5,3.5-4.6,3.5h-2v2.9h2v1.8h-6.3V17.1z M255.1,12.4
		c1.2,0,1.8-0.7,1.8-1.8c0-1.2-0.7-1.7-2-1.7h-1.4v3.4H255.1z"/>
	<path d="M261.1,14.7c0-2.5,1.6-4.4,4.2-4.4c2.6,0,3.9,1.9,3.9,4v0.8H264c0,1.3,1,1.8,2.1,1.8s1.8-0.2,2.5-0.3l0.4,1.8
		c-0.9,0.3-2.3,0.6-3.3,0.6C262.4,19,261.1,17.5,261.1,14.7z M266.6,13.8c0-1.1-0.4-1.8-1.3-1.8c-0.8,0-1.3,0.6-1.4,1.8L266.6,13.8z
		 M264.4,9.4l1.7-2.8l2.3,0.6l-2.4,2.4L264.4,9.4z"/>
	<path d="M270.3,17.1l0.8-0.1v-4.8l-0.8,0v-1.7l3.1-0.1l0.2,0.1l0.1,1c1-0.8,2.3-1.1,3.1-1.1c0.3,0,0.8,0,1.1,0.1v2.8h-2.5v-1
		c-0.5,0-1,0.2-1.5,0.5v4.2h1.3v1.7h-4.8V17.1z"/>
	<path d="M278.8,14.8c0-2.7,1.5-4.5,4.2-4.5c0.3,0,1,0,1.6,0.2V8.4l-1,0V6.7l3.6-0.2l0.2,0.2v10.5h0.9v1.7l-3,0.2l-0.1-0.1l-0.2-1
		c-0.5,0.6-1.6,1.1-2.7,1.1C279.8,19,278.8,17,278.8,14.8z M284.6,16.7v-4.4c-0.3-0.1-0.6-0.2-1.1-0.2c-1.3,0-1.8,0.9-1.8,2.3
		c0,1.5,0.3,2.6,1.7,2.6C283.9,17,284.3,16.9,284.6,16.7z"/>
	<path d="M289.3,17.1l0.8-0.1v-4.8l-0.8,0v-1.7l3.3-0.1l0.2,0.2v6.5h0.9v1.7h-4.4V17.1z M290,8.3c0-1,0.4-1.5,1.4-1.5
		c1.2,0,1.5,0.7,1.5,1.5c0,0.8-0.3,1.4-1.5,1.4C290.3,9.7,290,9.1,290,8.3z"/>
	<path d="M294.7,14.8c0-2.7,1.5-4.5,4.2-4.5c0.3,0,1,0,1.6,0.2V8.4l-1,0V6.7l3.6-0.2l0.2,0.2v10.5h0.9v1.7l-3,0.2l-0.1-0.1l-0.2-1
		c-0.5,0.6-1.6,1.1-2.7,1.1C295.7,19,294.7,17,294.7,14.8z M300.5,16.7v-4.4c-0.3-0.1-0.6-0.2-1.1-0.2c-1.3,0-1.8,0.9-1.8,2.3
		c0,1.5,0.3,2.6,1.7,2.6C299.8,17,300.1,16.9,300.5,16.7z"/>
	<path d="M305.1,16.6c0-2.2,2.6-2.6,5-2.7v-0.5c0-0.7-0.4-1-1.3-1c-0.9,0-1.9,0.2-2.7,0.5l-0.5-1.9c0.9-0.4,2.2-0.6,3.9-0.6
		c1.8,0,3.4,0.7,3.4,3V16l0.1,1.2h0.8v1.5l-2.7,0.2h-0.5l-0.1-1.2c-0.5,0.7-1.7,1.2-2.7,1.2C305.9,19,305.1,18,305.1,16.6z
		 M310.1,16.8v-1.6c-1.4,0-2.2,0.4-2.2,1.2c0,0.7,0.5,0.9,1,0.9C309.4,17.3,309.8,17,310.1,16.8z"/>
	<path d="M318.3,17.1l0.8-0.1v-4.8h-1v-1.7h1v-1c0-2,1.1-3.2,3.1-3.2c0.9,0,1.5,0.1,2,0.3l-0.4,1.9c-0.3-0.1-0.6-0.2-1.1-0.2
		c-0.7,0-0.9,0.4-0.9,1.1v1.1h1.5v1.7h-1.5v4.9h1.2v1.7h-4.7V17.1z"/>
	<path d="M324.5,14.8c0-2.7,1.5-4.5,4.4-4.5c2.8,0,4.4,1.6,4.4,4.2c0,2.8-1.6,4.5-4.5,4.5C326,19,324.5,17.5,324.5,14.8z
		 M330.5,14.7c0-1.7-0.5-2.5-1.6-2.5c-1,0-1.6,0.7-1.6,2.5c0,1.9,0.5,2.5,1.6,2.5S330.5,16.5,330.5,14.7z"/>
	<path d="M334.5,17.1l0.8-0.1v-4.8l-0.8,0v-1.7l3.1-0.1l0.2,0.1l0.1,1c1-0.8,2.3-1.1,3.1-1.1c0.3,0,0.8,0,1.1,0.1v2.8h-2.5v-1
		c-0.5,0-1,0.2-1.5,0.5v4.2h1.3v1.7h-4.8V17.1z"/>
	<path d="M342.9,14.7c0-2.5,1.6-4.4,4.2-4.4c2.6,0,3.9,1.9,3.9,4v0.8h-5.2c0,1.3,1,1.8,2.1,1.8s1.8-0.2,2.5-0.3l0.4,1.8
		c-0.9,0.3-2.3,0.6-3.3,0.6C344.3,19,342.9,17.5,342.9,14.7z M348.5,13.8c0-1.1-0.4-1.8-1.3-1.8c-0.8,0-1.3,0.6-1.4,1.8L348.5,13.8z
		"/>
	<path d="M352.3,18.5l-0.1-2.2h2.4l0.1,0.8c0.3,0.1,0.7,0.1,1,0.1c0.7,0,1.3-0.2,1.3-0.7c0-0.5-0.6-0.7-1.3-0.9l-0.9-0.2
		c-1.8-0.5-2.5-1.1-2.5-2.4c0-1.4,0.8-2.7,4-2.7c0.6,0,2.2,0.1,3.1,0.6l0,2h-2.2l-0.1-0.8c-0.4-0.1-0.7-0.1-1-0.1
		c-0.7,0-1.2,0.2-1.2,0.6c0,0.5,0.7,0.6,1.5,0.8l0.8,0.2c2,0.5,2.6,1.6,2.6,2.5c0,1.7-1.5,2.8-3.9,2.8
		C354.4,19,353.4,18.9,352.3,18.5z"/>
	<path d="M361.6,16.2v-3.8h-1.1v-1.7l1.1-0.2l0.9-1.9h1.8v2h2v1.8h-2v3.6c0,0.8,0.5,1,1.1,1c0.2,0,0.7,0,0.9-0.1l0.2,1.9
		c-0.6,0.2-1.4,0.3-2.1,0.3C362.3,19,361.6,17.8,361.6,16.2z"/>
	<path d="M367.5,16.6c0-2.2,2.6-2.6,5-2.7v-0.5c0-0.7-0.4-1-1.3-1c-0.9,0-1.9,0.2-2.7,0.5l-0.5-1.9c0.9-0.4,2.2-0.6,3.9-0.6
		c1.8,0,3.4,0.7,3.4,3V16l0.1,1.2h0.8v1.5l-2.7,0.2h-0.5l-0.1-1.2c-0.5,0.7-1.7,1.2-2.7,1.2C368.2,19,367.5,18,367.5,16.6z
		 M372.4,16.8v-1.6c-1.4,0-2.2,0.4-2.2,1.2c0,0.7,0.5,0.9,1,0.9C371.7,17.3,372.2,17,372.4,16.8z"/>
	<path d="M377,17.1l0.8-0.1V8.4h-0.9V6.7l3.5-0.2l0.2,0.2v10.5h0.9v1.7H377V17.1z"/>
	<path d="M386,20.4l0.8-0.1v-8.1l-0.8,0v-1.7l3.1-0.1l0.2,0.1l0.1,0.7c0.6-0.4,1.6-0.9,2.6-0.9c2.4,0,3.3,1.9,3.3,4
		c0,2.7-1.5,4.6-4.2,4.6c-0.3,0-1.1-0.1-1.6-0.2v1.7h1.2v1.7H386V20.4z M392.5,14.7c0-1.6-0.4-2.4-1.7-2.4c-0.5,0-0.8,0.1-1.2,0.3
		v4.2c0.3,0.2,0.7,0.2,1.2,0.2C392.1,17.1,392.5,15.9,392.5,14.7z"/>
	<path d="M396.4,14.8c0-2.7,1.5-4.5,4.4-4.5c2.8,0,4.4,1.6,4.4,4.2c0,2.8-1.6,4.5-4.5,4.5C397.9,19,396.4,17.5,396.4,14.8z
		 M402.4,14.7c0-1.7-0.5-2.5-1.6-2.5c-1,0-1.6,0.7-1.6,2.5c0,1.9,0.5,2.5,1.6,2.5S402.4,16.5,402.4,14.7z"/>
	<path d="M406.3,17.1l0.8-0.1v-4.8l-0.8,0v-1.7l3.1-0.1l0.2,0.1l0.1,1c1-0.8,2.3-1.1,3.1-1.1c0.3,0,0.8,0,1.1,0.1v2.8h-2.5v-1
		c-0.5,0-1,0.2-1.5,0.5v4.2h1.3v1.7h-4.8V17.1z"/>
	<path d="M418.4,17.1l0.8-0.1V8.4h-0.9V6.6l3.5-0.2l0.2,0.1v4.9c0.9-0.7,1.8-1.1,2.7-1.1c1.9,0,2.6,1.2,2.6,2.5v4.2h0.8v1.7h-4.4
		v-1.7l0.8-0.1v-3.6c0-1.1-0.8-1.2-1.2-1.2c-0.6,0-1.1,0.2-1.3,0.4v4.5h0.9v1.7h-4.4V17.1z"/>
	<path d="M429,14.7c0-2.5,1.6-4.4,4.2-4.4c2.6,0,3.9,1.9,3.9,4v0.8h-5.2c0,1.3,1,1.8,2.1,1.8s1.8-0.2,2.5-0.3l0.4,1.8
		c-0.9,0.3-2.3,0.6-3.3,0.6C430.4,19,429,17.5,429,14.7z M434.5,13.8c0-1.1-0.4-1.8-1.3-1.8c-0.8,0-1.3,0.6-1.4,1.8L434.5,13.8z"/>
	<path d="M438.2,14.7c0-2.6,1.8-4.3,4.7-4.3c0.7,0,1.9,0.1,2.7,0.4l0,2.6h-1.8l-0.2-1c-0.3,0-0.4,0-0.7,0c-1.1,0-1.9,0.8-1.9,2.2
		c0,1.6,0.8,2.4,2.2,2.4c0.7,0,1.6-0.2,2.2-0.3l0.3,1.8c-0.9,0.3-2,0.5-2.9,0.5C439.7,19,438.2,17.5,438.2,14.7z"/>
	<path d="M447.6,16.2v-3.8h-1.1v-1.7l1.1-0.2l0.9-1.9h1.8v2h2v1.8h-2v3.6c0,0.8,0.5,1,1.1,1c0.2,0,0.7,0,0.9-0.1l0.2,1.9
		c-0.6,0.2-1.4,0.3-2.1,0.3C448.4,19,447.6,17.8,447.6,16.2z"/>
	<path d="M453.5,16.6c0-2.2,2.6-2.6,5-2.7v-0.5c0-0.7-0.4-1-1.3-1c-0.9,0-1.9,0.2-2.7,0.5l-0.5-1.9c0.9-0.4,2.2-0.6,3.9-0.6
		c1.8,0,3.4,0.7,3.4,3V16l0.1,1.2h0.8v1.5l-2.7,0.2h-0.5l-0.1-1.2c-0.5,0.7-1.7,1.2-2.7,1.2C454.3,19,453.5,18,453.5,16.6z
		 M455.8,9.4l1.7-2.8l2.3,0.6l-2.4,2.4L455.8,9.4z M458.5,16.8v-1.6c-1.4,0-2.2,0.4-2.2,1.2c0,0.7,0.5,0.9,1,0.9
		C457.8,17.3,458.2,17,458.5,16.8z"/>
	<path d="M463.1,17.1l0.8-0.1v-4.8l-0.8,0v-1.7l3.1-0.1l0.2,0.1l0.1,1c1-0.8,2.3-1.1,3.1-1.1c0.3,0,0.8,0,1.1,0.1v2.8h-2.5v-1
		c-0.5,0-1,0.2-1.5,0.5v4.2h1.3v1.7h-4.8V17.1z"/>
	<path d="M471.6,14.7c0-2.5,1.6-4.4,4.2-4.4c2.6,0,3.9,1.9,3.9,4v0.8h-5.2c0,1.3,1,1.8,2.1,1.8s1.8-0.2,2.5-0.3l0.4,1.8
		c-0.9,0.3-2.3,0.6-3.3,0.6C473,19,471.6,17.5,471.6,14.7z M477.1,13.8c0-1.1-0.4-1.8-1.3-1.8c-0.8,0-1.3,0.6-1.4,1.8L477.1,13.8z"
		/>
	<path d="M480.8,16.6c0-2.2,2.6-2.6,5-2.7v-0.5c0-0.7-0.4-1-1.3-1c-0.9,0-1.9,0.2-2.7,0.5l-0.5-1.9c0.9-0.4,2.2-0.6,3.9-0.6
		c1.8,0,3.4,0.7,3.4,3V16l0.1,1.2h0.8v1.5l-2.7,0.2h-0.5l-0.1-1.2c-0.5,0.7-1.7,1.2-2.7,1.2C481.6,19,480.8,18,480.8,16.6z
		 M485.8,16.8v-1.6c-1.4,0-2.2,0.4-2.2,1.2c0,0.7,0.5,0.9,1,0.9C485.1,17.3,485.5,17,485.8,16.8z"/>
</g>
</svg>
