<?xml version="1.0" encoding="utf-8"?>
<!-- Generator: Adobe Illustrator 27.9.0, SVG Export Plug-In . SVG Version: 6.00 Build 0)  -->
<svg version="1.1" id="Capa_1" xmlns="http://www.w3.org/2000/svg" xmlns:xlink="http://www.w3.org/1999/xlink" x="0px" y="0px"
	 viewBox="0 0 300 300" style="enable-background:new 0 0 300 300;" xml:space="preserve">
<path d="M234.2,111.4c-8.1-13.8-20-22.8-25.9-26.8c-0.2,0-14.7-8.6-14.7-8.6s-1.5-0.7,2.4-0.7c2.4,0,6.6,3.5,9.2,4.8l0.2-2.9
	c0.9-9-2.6-17.3-4.2-17.3s-14,11.6-14,11.6C137.4,58,112.2,72.3,90.9,85C40.2,121.7,49.2,177.4,51,179c1.5,1.5,20-5.9,20-5.9
	s-5.9,13.6-2.2,16c7.9,9.4,27,8.6,41.9,4.2c4-5.9,4.6-16.7,4.4-27.7c-0.7-20.8-5.9-29.2-12.9-35.6c-2-2.2-2.2-3.5-0.9-3.3
	c0,0,12.5,3.5,16,22.8c3.1,16,0.7,34.7-0.2,40.8c1.3-0.7,2.9-1.3,4.4-2c22.4-10.8,39.7-35.1,51.8-47.2c0.7-0.7,1.3-1.1,2-1.8
	c7-7.9,17.1-12.7,28.5-12.7c21.1,0,38.2,17.1,38.2,38.2s-17.1,38.2-38.2,38.2c-2.2,0-4.2-0.2-6.4-0.4c7.7,5.5,12.5,14.3,12.5,24.4
	c0,12.5-7.7,26.3-18.7,30.9c1.5,0.4,6.1-2.6,13.2-6.1c18.9-9.2,43-35.8,46.1-79.9C250.7,144.5,245.6,130.4,234.2,111.4z M78.6,146.3
	c-4,0-7-3.1-7-7s3.1-7,7-7c4,0,7,3.1,7,7S82.4,146.3,78.6,146.3z"/>
</svg>
